Comic Neue Bold Oblique.ufo
<glyph name="percent" format="1">
  <advance width="754"/>
  <unicode hex="0025"/>
  <outline>
    <contour>
      <point x="315" y="383"/>
      <point x="395" y="449"/>
      <point x="412" y="530" type="curve" smooth="yes"/>
      <point x="429" y="610"/>
      <point x="377" y="676"/>
      <point x="296" y="676" type="curve" smooth="yes"/>
      <point x="216" y="676"/>
      <point x="136" y="610"/>
      <point x="119" y="530" type="curve" smooth="yes"/>
      <point x="102" y="449"/>
      <point x="154" y="383"/>
      <point x="234" y="383" type="curve" smooth="yes"/>
    </contour>
    <contour>
      <point x="305" y="581"/>
      <point x="323" y="558"/>
      <point x="317" y="530" type="curve" smooth="yes"/>
      <point x="311" y="501"/>
      <point x="283" y="478"/>
      <point x="254" y="478" type="curve" smooth="yes"/>
      <point x="226" y="478"/>
      <point x="208" y="501"/>
      <point x="214" y="530" type="curve" smooth="yes"/>
      <point x="220" y="558"/>
      <point x="248" y="581"/>
      <point x="276" y="581" type="curve" smooth="yes"/>
    </contour>
    <contour>
      <point x="528" y="-7"/>
      <point x="608" y="58"/>
      <point x="625" y="139" type="curve" smooth="yes"/>
      <point x="642" y="220"/>
      <point x="590" y="285"/>
      <point x="510" y="285" type="curve" smooth="yes"/>
      <point x="429" y="285"/>
      <point x="349" y="220"/>
      <point x="332" y="139" type="curve" smooth="yes"/>
      <point x="315" y="58"/>
      <point x="367" y="-7"/>
      <point x="448" y="-7" type="curve" smooth="yes"/>
    </contour>
    <contour>
      <point x="518" y="191"/>
      <point x="536" y="167"/>
      <point x="530" y="139" type="curve" smooth="yes"/>
      <point x="524" y="110"/>
      <point x="496" y="87"/>
      <point x="468" y="87" type="curve" smooth="yes"/>
      <point x="439" y="87"/>
      <point x="421" y="110"/>
      <point x="427" y="139" type="curve" smooth="yes"/>
      <point x="433" y="167"/>
      <point x="461" y="191"/>
      <point x="490" y="191" type="curve" smooth="yes"/>
    </contour>
    <contour>
      <point x="158" y="0"/>
      <point x="175" y="7"/>
      <point x="188" y="24" type="curve" smooth="yes"/>
      <point x="633" y="604" type="line" smooth="yes"/>
      <point x="638" y="611"/>
      <point x="641" y="619"/>
      <point x="643" y="626" type="curve"/>
      <point x="647" y="649"/>
      <point x="632" y="672"/>
      <point x="606" y="672" type="curve" smooth="yes"/>
      <point x="590" y="672"/>
      <point x="573" y="664"/>
      <point x="561" y="649" type="curve" smooth="yes"/>
      <point x="119" y="71" type="line" smooth="yes"/>
      <point x="111" y="61"/>
      <point x="107" y="51"/>
      <point x="106" y="45" type="curve"/>
      <point x="101" y="22"/>
      <point x="115" y="0"/>
      <point x="143" y="0" type="curve" smooth="yes"/>
    </contour>
  </outline>
</glyph>
<glyph name="parenleft" format="1">
  <advance width="395"/>
  <unicode hex="0028"/>
  <outline>
    <contour>
      <point x="154" y="-88"/>
      <point x="164" y="-98"/>
      <point x="184" y="-98" type="curve" smooth="yes"/>
      <point x="207" y="-98"/>
      <point x="236" y="-77"/>
      <point x="242" y="-51" type="curve" smooth="yes"/>
      <point x="245" y="-37"/>
      <point x="242" y="-25"/>
      <point x="234" y="-15" type="curve"/>
      <point x="184" y="53"/>
      <point x="139" y="190"/>
      <point x="171" y="342" type="curve" smooth="yes"/>
      <point x="200" y="477"/>
      <point x="294" y="615"/>
      <point x="391" y="682" type="curve"/>
      <point x="407" y="692"/>
      <point x="414" y="705"/>
      <point x="417" y="719" type="curve" smooth="yes"/>
      <point x="423" y="745"/>
      <point x="406" y="768"/>
      <point x="380" y="768" type="curve" smooth="yes"/>
      <point x="370" y="768"/>
      <point x="357" y="763"/>
      <point x="340" y="750" type="curve" smooth="yes"/>
      <point x="213" y="650"/>
      <point x="109" y="503"/>
      <point x="75" y="342" type="curve" smooth="yes"/>
      <point x="27" y="116"/>
      <point x="123" y="-39"/>
      <point x="147" y="-78" type="curve"/>
    </contour>
  </outline>
</glyph>
<glyph name="asterisk" format="1">
  <advance width="423"/>
  <unicode hex="002A"/>
  <outline>
    <contour>
      <point x="321" y="603" type="line"/>
      <point x="325" y="625" type="line"/>
      <point x="331" y="651"/>
      <point x="314" y="672"/>
      <point x="288" y="672" type="curve" smooth="yes"/>
      <point x="262" y="672"/>
      <point x="237" y="651"/>
      <point x="231" y="625" type="curve"/>
      <point x="227" y="603" type="line"/>
      <point x="207" y="609" type="line" smooth="yes"/>
      <point x="200" y="611"/>
      <point x="197" y="611"/>
      <point x="192" y="611" type="curve" smooth="yes"/>
      <point x="169" y="611"/>
      <point x="143" y="593"/>
      <point x="137" y="565" type="curve" smooth="yes"/>
      <point x="132" y="545"/>
      <point x="140" y="526"/>
      <point x="159" y="520" type="curve" smooth="yes"/>
      <point x="179" y="513" type="line"/>
      <point x="162" y="496" type="line" smooth="yes"/>
      <point x="154" y="488"/>
      <point x="149" y="478"/>
      <point x="147" y="469" type="curve" smooth="yes"/>
      <point x="142" y="444"/>
      <point x="158" y="421"/>
      <point x="185" y="421" type="curve" smooth="yes"/>
      <point x="199" y="421"/>
      <point x="214" y="427"/>
      <point x="226" y="440" type="curve" smooth="yes"/>
      <point x="243" y="458" type="line"/>
      <point x="253" y="441" type="line"/>
      <point x="261" y="429"/>
      <point x="270" y="421"/>
      <point x="286" y="421" type="curve" smooth="yes"/>
      <point x="312" y="421"/>
      <point x="338" y="444"/>
      <point x="343" y="468" type="curve" smooth="yes"/>
      <point x="345" y="478"/>
      <point x="344" y="487"/>
      <point x="340" y="496" type="curve" smooth="yes"/>
      <point x="332" y="514" type="line"/>
      <point x="354" y="521" type="line" smooth="yes"/>
      <point x="375" y="527"/>
      <point x="392" y="546"/>
      <point x="396" y="566" type="curve" smooth="yes"/>
      <point x="402" y="594"/>
      <point x="383" y="612"/>
      <point x="359" y="612" type="curve" smooth="yes"/>
      <point x="355" y="612"/>
      <point x="352" y="612"/>
      <point x="344" y="610" type="curve"/>
    </contour>
  </outline>
</glyph>
<glyph name="comma" format="1">
  <advance width="287"/>
  <unicode hex="002C"/>
  <outline>
    <contour>
      <point x="166" y="92"/>
      <point x="148" y="115"/>
      <point x="119" y="115" type="curve" smooth="yes"/>
      <point x="88" y="115"/>
      <point x="54" y="85"/>
      <point x="47" y="52" type="curve"/>
      <point x="44" y="40"/>
      <point x="45" y="30"/>
      <point x="48" y="21" type="curve"/>
      <point x="20" y="-26" type="line" smooth="yes"/>
      <point x="17" y="-31"/>
      <point x="15" y="-35"/>
      <point x="14" y="-42" type="curve"/>
      <point x="9" y="-65"/>
      <point x="24" y="-84"/>
      <point x="49" y="-84" type="curve" smooth="yes"/>
      <point x="75" y="-84"/>
      <point x="89" y="-66"/>
      <point x="103" y="-45" type="curve" smooth="yes"/>
      <point x="127" y="-7"/>
      <point x="156" y="43"/>
      <point x="160" y="64" type="curve" smooth="yes"/>
    </contour>
  </outline>
</glyph>
<glyph name="one" format="1">
  <advance width="430"/>
  <unicode hex="0031"/>
  <outline>
    <contour>
      <point x="123" y="521" type="line" smooth="yes"/>
      <point x="114" y="513"/>
      <point x="106" y="501"/>
      <point x="103" y="489" type="curve"/>
      <point x="98" y="463"/>
      <point x="114" y="441"/>
      <point x="141" y="441" type="curve" smooth="yes"/>
      <point x="153" y="441"/>
      <point x="167" y="445"/>
      <point x="179" y="455" type="curve" smooth="yes"/>
      <point x="220" y="490" type="line"/>
      <point x="186" y="340"/>
      <point x="162" y="241"/>
      <point x="129" y="96" type="curve"/>
      <point x="71" y="96" type="line" smooth="yes"/>
      <point x="43" y="96"/>
      <point x="18" y="74"/>
      <point x="13" y="48" type="curve" smooth="yes"/>
      <point x="7" y="21"/>
      <point x="23" y="0"/>
      <point x="51" y="0" type="curve" smooth="yes"/>
      <point x="249" y="0" type="line" smooth="yes"/>
      <point x="274" y="0"/>
      <point x="301" y="21"/>
      <point x="307" y="48" type="curve" smooth="yes"/>
      <point x="312" y="74"/>
      <point x="299" y="96"/>
      <point x="267" y="96" type="curve" smooth="yes"/>
      <point x="226" y="96" type="line"/>
      <point x="343" y="615" type="line" smooth="yes"/>
      <point x="348" y="639"/>
      <point x="335" y="663"/>
      <point x="304" y="663" type="curve" smooth="yes"/>
      <point x="294" y="663"/>
      <point x="277" y="657"/>
      <point x="267" y="648" type="curve" smooth="yes"/>
    </contour>
  </outline>
</glyph>
<glyph name="two" format="1">
  <advance width="554"/>
  <unicode hex="0032"/>
  <outline>
    <contour>
      <point x="210" y="511"/>
      <point x="269" y="564"/>
      <point x="334" y="564" type="curve" smooth="yes"/>
      <point x="389" y="564"/>
      <point x="425" y="531"/>
      <point x="415" y="484" type="curve" smooth="yes"/>
      <point x="402" y="423"/>
      <point x="342" y="390"/>
      <point x="259" y="342" type="curve" smooth="yes"/>
      <point x="163" y="288"/>
      <point x="55" y="220"/>
      <point x="18" y="47" type="curve" smooth="yes"/>
      <point x="9" y="0" type="line"/>
      <point x="369" y="0" type="line" smooth="yes"/>
      <point x="394" y="0"/>
      <point x="421" y="21"/>
      <point x="426" y="47" type="curve" smooth="yes"/>
      <point x="432" y="74"/>
      <point x="414" y="95"/>
      <point x="389" y="95" type="curve" smooth="yes"/>
      <point x="128" y="95" type="line"/>
      <point x="160" y="182"/>
      <point x="233" y="226"/>
      <point x="303" y="266" type="curve" smooth="yes"/>
      <point x="390" y="315"/>
      <point x="488" y="372"/>
      <point x="511" y="484" type="curve" smooth="yes"/>
      <point x="532" y="581"/>
      <point x="469" y="660"/>
      <point x="355" y="660" type="curve" smooth="yes"/>
      <point x="273" y="660"/>
      <point x="202" y="616"/>
      <point x="160" y="582" type="curve" smooth="yes"/>
      <point x="130" y="558"/>
      <point x="121" y="546"/>
      <point x="117" y="530" type="curve"/>
      <point x="112" y="506"/>
      <point x="126" y="481"/>
      <point x="155" y="481" type="curve" smooth="yes"/>
      <point x="178" y="481"/>
      <point x="189" y="492"/>
      <point x="201" y="503" type="curve" smooth="yes"/>
    </contour>
  </outline>
</glyph>
<glyph name="four" format="1">
  <advance width="534"/>
  <unicode hex="0034"/>
  <outline>
    <contour>
      <point x="323" y="-1"/>
      <point x="351" y="22"/>
      <point x="356" y="47" type="curve" smooth="yes"/>
      <point x="378" y="149" type="line"/>
      <point x="384" y="149" type="line" smooth="yes"/>
      <point x="410" y="149"/>
      <point x="439" y="170"/>
      <point x="444" y="197" type="curve"/>
      <point x="450" y="223"/>
      <point x="436" y="245"/>
      <point x="409" y="245" type="curve" smooth="yes"/>
      <point x="399" y="245" type="line"/>
      <point x="478" y="619" type="line" smooth="yes"/>
      <point x="484" y="646"/>
      <point x="467" y="667"/>
      <point x="439" y="667" type="curve" smooth="yes"/>
      <point x="421" y="667"/>
      <point x="407" y="659"/>
      <point x="394" y="644" type="curve" smooth="yes"/>
      <point x="53" y="228" type="line" smooth="yes"/>
      <point x="46" y="219"/>
      <point x="41" y="211"/>
      <point x="39" y="201" type="curve" smooth="yes"/>
      <point x="34" y="175"/>
      <point x="45" y="154"/>
      <point x="77" y="154" type="curve" smooth="yes"/>
      <point x="282" y="151" type="line"/>
      <point x="259" y="47" type="line" smooth="yes"/>
      <point x="254" y="22"/>
      <point x="270" y="-1"/>
      <point x="297" y="-1" type="curve" smooth="yes"/>
    </contour>
    <contour>
      <point x="345" y="447" type="line"/>
      <point x="302" y="247" type="line"/>
      <point x="183" y="250" type="line"/>
    </contour>
  </outline>
</glyph>
<glyph name="semicolon" format="1">
  <advance width="297"/>
  <unicode hex="003B"/>
  <outline>
    <contour>
      <point x="217" y="325"/>
      <point x="251" y="354"/>
      <point x="259" y="391" type="curve" smooth="yes"/>
      <point x="265" y="422"/>
      <point x="248" y="446"/>
      <point x="219" y="446" type="curve" smooth="yes"/>
      <point x="188" y="446"/>
      <point x="154" y="415"/>
      <point x="147" y="382" type="curve" smooth="yes"/>
      <point x="140" y="351"/>
      <point x="155" y="325"/>
      <point x="186" y="325" type="curve" smooth="yes"/>
    </contour>
    <contour>
      <point x="163" y="92"/>
      <point x="145" y="115"/>
      <point x="116" y="115" type="curve" smooth="yes"/>
      <point x="85" y="115"/>
      <point x="51" y="85"/>
      <point x="44" y="52" type="curve"/>
      <point x="41" y="40"/>
      <point x="42" y="30"/>
      <point x="45" y="21" type="curve"/>
      <point x="17" y="-26" type="line" smooth="yes"/>
      <point x="14" y="-31"/>
      <point x="12" y="-35"/>
      <point x="11" y="-42" type="curve"/>
      <point x="6" y="-65"/>
      <point x="21" y="-84"/>
      <point x="46" y="-84" type="curve" smooth="yes"/>
      <point x="72" y="-84"/>
      <point x="86" y="-66"/>
      <point x="100" y="-45" type="curve" smooth="yes"/>
      <point x="124" y="-7"/>
      <point x="153" y="43"/>
      <point x="157" y="64" type="curve" smooth="yes"/>
    </contour>
  </outline>
</glyph>
<glyph name="equal" format="1">
  <advance width="519"/>
  <unicode hex="003D"/>
  <outline>
    <contour>
      <point x="386" y="292" type="line" smooth="yes"/>
      <point x="411" y="292"/>
      <point x="438" y="313"/>
      <point x="444" y="339" type="curve" smooth="yes"/>
      <point x="449" y="364"/>
      <point x="431" y="387"/>
      <point x="406" y="387" type="curve" smooth="yes"/>
      <point x="146" y="387" type="line" smooth="yes"/>
      <point x="119" y="387"/>
      <point x="94" y="364"/>
      <point x="89" y="339" type="curve" smooth="yes"/>
      <point x="83" y="313"/>
      <point x="99" y="292"/>
      <point x="126" y="292" type="curve" smooth="yes"/>
    </contour>
    <contour>
      <point x="347" y="112" type="line" smooth="yes"/>
      <point x="372" y="112"/>
      <point x="400" y="133"/>
      <point x="405" y="159" type="curve"/>
      <point x="411" y="184"/>
      <point x="392" y="207"/>
      <point x="367" y="207" type="curve" smooth="yes"/>
      <point x="107" y="207" type="line" smooth="yes"/>
      <point x="80" y="207"/>
      <point x="56" y="184"/>
      <point x="50" y="159" type="curve"/>
      <point x="45" y="133"/>
      <point x="60" y="112"/>
      <point x="87" y="112" type="curve" smooth="yes"/>
    </contour>
  </outline>
</glyph>
<glyph name="question" format="1">
  <advance width="559"/>
  <unicode hex="003F"/>
  <outline>
    <contour>
      <point x="156" y="233"/>
      <point x="147" y="219"/>
      <point x="144" y="206" type="curve"/>
      <point x="139" y="180"/>
      <point x="155" y="159"/>
      <point x="181" y="159" type="curve" smooth="yes"/>
      <point x="193" y="159"/>
      <point x="209" y="161"/>
      <point x="343" y="265" type="curve" smooth="yes"/>
      <point x="409" y="316"/>
      <point x="494" y="371"/>
      <point x="518" y="481" type="curve" smooth="yes"/>
      <point x="545" y="607"/>
      <point x="472" y="691"/>
      <point x="339" y="691" type="curve" smooth="yes"/>
      <point x="263" y="691"/>
      <point x="197" y="650"/>
      <point x="157" y="616" type="curve"/>
      <point x="142" y="602"/>
      <point x="126" y="586"/>
      <point x="123" y="570" type="curve"/>
      <point x="116" y="541"/>
      <point x="135" y="522"/>
      <point x="160" y="522" type="curve" smooth="yes"/>
      <point x="172" y="522"/>
      <point x="185" y="526"/>
      <point x="195" y="535" type="curve" smooth="yes"/>
      <point x="226" y="563"/>
      <point x="267" y="597"/>
      <point x="319" y="597" type="curve" smooth="yes"/>
      <point x="415" y="597"/>
      <point x="437" y="537"/>
      <point x="425" y="481" type="curve" smooth="yes"/>
      <point x="408" y="403"/>
      <point x="233" y="287"/>
      <point x="169" y="242" type="curve" smooth="yes"/>
    </contour>
    <contour>
      <point x="148" y="0"/>
      <point x="182" y="29"/>
      <point x="189" y="65" type="curve" smooth="yes"/>
      <point x="196" y="96"/>
      <point x="179" y="121"/>
      <point x="149" y="121" type="curve" smooth="yes"/>
      <point x="119" y="121"/>
      <point x="84" y="90"/>
      <point x="77" y="57" type="curve" smooth="yes"/>
      <point x="70" y="25"/>
      <point x="86" y="0"/>
      <point x="117" y="0" type="curve" smooth="yes"/>
    </contour>
  </outline>
</glyph>
<glyph name="F" format="1">
  <advance width="571"/>
  <unicode hex="0046"/>
  <outline>
    <contour>
      <point x="164" y="301" type="line"/>
      <point x="430" y="301" type="line" smooth="yes"/>
      <point x="458" y="301"/>
      <point x="484" y="324"/>
      <point x="490" y="350" type="curve" smooth="yes"/>
      <point x="496" y="378"/>
      <point x="480" y="401"/>
      <point x="452" y="401" type="curve" smooth="yes"/>
      <point x="186" y="401" type="line"/>
      <point x="224" y="581" type="line"/>
      <point x="573" y="581" type="line" smooth="yes"/>
      <point x="601" y="581"/>
      <point x="627" y="605"/>
      <point x="633" y="631" type="curve" smooth="yes"/>
      <point x="639" y="659"/>
      <point x="622" y="681"/>
      <point x="594" y="681" type="curve" smooth="yes"/>
      <point x="195" y="681" type="line" smooth="yes"/>
      <point x="167" y="681"/>
      <point x="141" y="659"/>
      <point x="135" y="631" type="curve" smooth="yes"/>
      <point x="11" y="49" type="line" smooth="yes"/>
      <point x="5" y="21"/>
      <point x="22" y="-1"/>
      <point x="50" y="-1" type="curve" smooth="yes"/>
      <point x="78" y="-1"/>
      <point x="105" y="21"/>
      <point x="111" y="49" type="curve" smooth="yes"/>
    </contour>
  </outline>
</glyph>
<glyph name="L" format="1">
  <advance width="503"/>
  <unicode hex="004C"/>
  <outline>
    <contour>
      <point x="383" y="22" type="line" smooth="yes"/>
      <point x="409" y="24"/>
      <point x="434" y="48"/>
      <point x="439" y="72" type="curve" smooth="yes"/>
      <point x="445" y="103"/>
      <point x="427" y="123"/>
      <point x="396" y="121" type="curve" smooth="yes"/>
      <point x="124" y="102" type="line"/>
      <point x="237" y="632" type="line" smooth="yes"/>
      <point x="242" y="658"/>
      <point x="224" y="681"/>
      <point x="198" y="681" type="curve" smooth="yes"/>
      <point x="170" y="681"/>
      <point x="143" y="658"/>
      <point x="138" y="632" type="curve" smooth="yes"/>
      <point x="14" y="49" type="line" smooth="yes"/>
      <point x="8" y="22"/>
      <point x="28" y="-2"/>
      <point x="56" y="0" type="curve" smooth="yes"/>
    </contour>
  </outline>
</glyph>
<glyph name="M" format="1">
  <advance width="883"/>
  <unicode hex="004D"/>
  <outline>
    <contour>
      <point x="751" y="642" type="line"/>
      <point x="751" y="665"/>
      <point x="739" y="681"/>
      <point x="715" y="681" type="curve" smooth="yes"/>
      <point x="690" y="681"/>
      <point x="671" y="671"/>
      <point x="658" y="649" type="curve" smooth="yes"/>
      <point x="404" y="204" type="line"/>
      <point x="357" y="647" type="line"/>
      <point x="354" y="668"/>
      <point x="342" y="681"/>
      <point x="318" y="681" type="curve" smooth="yes"/>
      <point x="294" y="681"/>
      <point x="271" y="667"/>
      <point x="261" y="642" type="curve" smooth="yes"/>
      <point x="16" y="75" type="line" smooth="yes"/>
      <point x="9" y="58"/>
      <point x="6" y="47"/>
      <point x="5" y="42" type="curve" smooth="yes"/>
      <point x="1" y="23"/>
      <point x="12" y="0"/>
      <point x="44" y="0" type="curve" smooth="yes"/>
      <point x="71" y="0"/>
      <point x="91" y="15"/>
      <point x="101" y="39" type="curve" smooth="yes"/>
      <point x="274" y="441" type="line"/>
      <point x="318" y="34" type="line" smooth="yes"/>
      <point x="321" y="10"/>
      <point x="337" y="0"/>
      <point x="357" y="0" type="curve" smooth="yes"/>
      <point x="379" y="0"/>
      <point x="399" y="12"/>
      <point x="410" y="32" type="curve" smooth="yes"/>
      <point x="654" y="456" type="line"/>
      <point x="658" y="38" type="line" smooth="yes"/>
      <point x="658" y="16"/>
      <point x="672" y="0"/>
      <point x="698" y="0" type="curve" smooth="yes"/>
      <point x="727" y="0"/>
      <point x="751" y="22"/>
      <point x="756" y="46" type="curve"/>
      <point x="758" y="53"/>
      <point x="758" y="62"/>
      <point x="758" y="76" type="curve"/>
    </contour>
  </outline>
</glyph>
<glyph name="N" format="1">
  <advance width="645"/>
  <unicode hex="004E"/>
  <outline>
    <contour>
      <point x="422" y="22" type="line" smooth="yes"/>
      <point x="429" y="8"/>
      <point x="444" y="0"/>
      <point x="459" y="0" type="curve" smooth="yes"/>
      <point x="486" y="0"/>
      <point x="512" y="20"/>
      <point x="518" y="49" type="curve" smooth="yes"/>
      <point x="642" y="632" type="line" smooth="yes"/>
      <point x="648" y="659"/>
      <point x="629" y="682"/>
      <point x="603" y="682" type="curve" smooth="yes"/>
      <point x="575" y="682"/>
      <point x="549" y="659"/>
      <point x="543" y="632" type="curve" smooth="yes"/>
      <point x="452" y="207" type="line"/>
      <point x="236" y="660" type="line" smooth="yes"/>
      <point x="230" y="673"/>
      <point x="214" y="681"/>
      <point x="199" y="681" type="curve" smooth="yes"/>
      <point x="170" y="681"/>
      <point x="146" y="658"/>
      <point x="141" y="632" type="curve" smooth="yes"/>
      <point x="16" y="49" type="line" smooth="yes"/>
      <point x="10" y="23"/>
      <point x="29" y="0"/>
      <point x="55" y="0" type="curve" smooth="yes"/>
      <point x="83" y="0"/>
      <point x="109" y="21"/>
      <point x="115" y="49" type="curve" smooth="yes"/>
      <point x="206" y="473" type="line"/>
    </contour>
  </outline>
</glyph>
<glyph name="Q" format="1">
  <advance width="740"/>
  <unicode hex="0051"/>
  <outline>
    <contour>
      <point x="542" y="114" type="line"/>
      <point x="615" y="180"/>
      <point x="666" y="266"/>
      <point x="687" y="364" type="curve" smooth="yes"/>
      <point x="723" y="536"/>
      <point x="633" y="680"/>
      <point x="468" y="680" type="curve" smooth="yes"/>
      <point x="292" y="680"/>
      <point x="103" y="513"/>
      <point x="60" y="313" type="curve" smooth="yes"/>
      <point x="24" y="143"/>
      <point x="113" y="-2"/>
      <point x="279" y="-2" type="curve" smooth="yes"/>
      <point x="337" y="-2"/>
      <point x="396" y="16"/>
      <point x="452" y="48" type="curve"/>
      <point x="531" y="-15" type="line"/>
      <point x="538" y="-20"/>
      <point x="547" y="-22"/>
      <point x="557" y="-22" type="curve" smooth="yes"/>
      <point x="581" y="-22"/>
      <point x="609" y="-5"/>
      <point x="616" y="26" type="curve"/>
      <point x="619" y="42"/>
      <point x="618" y="58"/>
      <point x="604" y="68" type="curve" smooth="yes"/>
    </contour>
    <contour>
      <point x="370" y="108" type="line"/>
      <point x="348" y="100"/>
      <point x="324" y="95"/>
      <point x="300" y="95" type="curve" smooth="yes"/>
      <point x="194" y="95"/>
      <point x="138" y="193"/>
      <point x="164" y="317" type="curve" smooth="yes"/>
      <point x="195" y="464"/>
      <point x="324" y="583"/>
      <point x="440" y="583" type="curve" smooth="yes"/>
      <point x="550" y="583"/>
      <point x="607" y="474"/>
      <point x="583" y="361" type="curve" smooth="yes"/>
      <point x="568" y="288"/>
      <point x="523" y="219"/>
      <point x="470" y="170" type="curve"/>
      <point x="411" y="215" type="line"/>
      <point x="403" y="222"/>
      <point x="392" y="225"/>
      <point x="381" y="225" type="curve" smooth="yes"/>
      <point x="356" y="225"/>
      <point x="329" y="204"/>
      <point x="323" y="176" type="curve" smooth="yes"/>
      <point x="320" y="160"/>
      <point x="320" y="148"/>
      <point x="336" y="135" type="curve" smooth="yes"/>
    </contour>
  </outline>
</glyph>
<glyph name="R" format="1">
  <advance width="623"/>
  <unicode hex="0052"/>
  <outline>
    <contour>
      <point x="480" y="171"/>
      <point x="426" y="238"/>
      <point x="387" y="275" type="curve"/>
      <point x="473" y="310"/>
      <point x="555" y="368"/>
      <point x="576" y="469" type="curve" smooth="yes"/>
      <point x="606" y="607"/>
      <point x="497" y="687"/>
      <point x="273" y="687" type="curve" smooth="yes"/>
      <point x="170" y="687"/>
      <point x="152" y="689"/>
      <point x="139" y="627" type="curve" smooth="yes"/>
      <point x="16" y="49" type="line" smooth="yes"/>
      <point x="10" y="21"/>
      <point x="27" y="0"/>
      <point x="55" y="0" type="curve" smooth="yes"/>
      <point x="81" y="0"/>
      <point x="108" y="21"/>
      <point x="114" y="49" type="curve" smooth="yes"/>
      <point x="152" y="227" type="line"/>
      <point x="177" y="231"/>
      <point x="201" y="233"/>
      <point x="220" y="233" type="curve" smooth="yes"/>
      <point x="255" y="233"/>
      <point x="337" y="225"/>
      <point x="412" y="26" type="curve"/>
      <point x="419" y="10"/>
      <point x="432" y="0"/>
      <point x="451" y="0" type="curve" smooth="yes"/>
      <point x="481" y="0"/>
      <point x="505" y="24"/>
      <point x="510" y="49" type="curve"/>
      <point x="511" y="56"/>
      <point x="512" y="64"/>
      <point x="510" y="72" type="curve"/>
    </contour>
    <contour>
      <point x="229" y="589" type="line"/>
      <point x="249" y="589" type="line" smooth="yes"/>
      <point x="409" y="589"/>
      <point x="494" y="548"/>
      <point x="477" y="469" type="curve" smooth="yes"/>
      <point x="457" y="374"/>
      <point x="296" y="332"/>
      <point x="172" y="324" type="curve"/>
    </contour>
  </outline>
</glyph>
<glyph name="S" format="1">
  <advance width="624"/>
  <unicode hex="0053"/>
  <outline>
    <contour>
      <point x="435" y="274"/>
      <point x="434" y="229"/>
      <point x="427" y="196" type="curve" smooth="yes"/>
      <point x="412" y="127"/>
      <point x="330" y="96"/>
      <point x="270" y="96" type="curve" smooth="yes"/>
      <point x="213" y="96"/>
      <point x="149" y="123"/>
      <point x="140" y="183" type="curve" smooth="yes"/>
      <point x="137" y="205"/>
      <point x="123" y="220"/>
      <point x="98" y="220" type="curve" smooth="yes"/>
      <point x="69" y="220"/>
      <point x="42" y="197"/>
      <point x="37" y="170" type="curve"/>
      <point x="35" y="162"/>
      <point x="35" y="152"/>
      <point x="36" y="145" type="curve"/>
      <point x="55" y="62"/>
      <point x="139" y="0"/>
      <point x="251" y="0" type="curve" smooth="yes"/>
      <point x="358" y="0"/>
      <point x="505" y="63"/>
      <point x="534" y="201" type="curve" smooth="yes"/>
      <point x="555" y="299"/>
      <point x="496" y="366"/>
      <point x="357" y="407" type="curve" smooth="yes"/>
      <point x="275" y="431"/>
      <point x="237" y="460"/>
      <point x="247" y="504" type="curve" smooth="yes"/>
      <point x="260" y="566"/>
      <point x="326" y="589"/>
      <point x="395" y="589" type="curve" smooth="yes"/>
      <point x="450" y="589"/>
      <point x="505" y="567"/>
      <point x="503" y="525" type="curve" smooth="yes"/>
      <point x="502" y="502"/>
      <point x="517" y="483"/>
      <point x="542" y="483" type="curve" smooth="yes"/>
      <point x="570" y="483"/>
      <point x="596" y="505"/>
      <point x="602" y="535" type="curve" smooth="yes"/>
      <point x="628" y="655"/>
      <point x="494" y="682"/>
      <point x="417" y="682" type="curve" smooth="yes"/>
      <point x="299" y="682"/>
      <point x="169" y="640"/>
      <point x="139" y="500" type="curve" smooth="yes"/>
      <point x="115" y="387"/>
      <point x="218" y="335"/>
      <point x="311" y="309" type="curve" smooth="yes"/>
    </contour>
  </outline>
</glyph>
<glyph name="T" format="1">
  <advance width="548"/>
  <unicode hex="0054"/>
  <outline>
    <contour>
      <point x="147" y="681" type="line" smooth="yes"/>
      <point x="121" y="681"/>
      <point x="94" y="660"/>
      <point x="88" y="632" type="curve" smooth="yes"/>
      <point x="82" y="605"/>
      <point x="100" y="582"/>
      <point x="126" y="582" type="curve" smooth="yes"/>
      <point x="277" y="582" type="line"/>
      <point x="164" y="49" type="line" smooth="yes"/>
      <point x="158" y="23"/>
      <point x="177" y="0"/>
      <point x="204" y="0" type="curve" smooth="yes"/>
      <point x="231" y="0"/>
      <point x="257" y="23"/>
      <point x="263" y="49" type="curve" smooth="yes"/>
      <point x="376" y="582" type="line"/>
      <point x="540" y="582" type="line" smooth="yes"/>
      <point x="568" y="582"/>
      <point x="594" y="605"/>
      <point x="600" y="632" type="curve" smooth="yes"/>
      <point x="606" y="660"/>
      <point x="589" y="681"/>
      <point x="561" y="681" type="curve" smooth="yes"/>
    </contour>
  </outline>
</glyph>
<glyph name="bracketleft" format="1">
  <advance width="341"/>
  <unicode hex="005B"/>
  <outline>
    <contour>
      <point x="136" y="-113" type="line" smooth="yes"/>
      <point x="161" y="-113"/>
      <point x="189" y="-92"/>
      <point x="195" y="-64" type="curve" smooth="yes"/>
      <point x="200" y="-39"/>
      <point x="182" y="-16"/>
      <point x="157" y="-16" type="curve" smooth="yes"/>
      <point x="95" y="-16" type="line"/>
      <point x="243" y="681" type="line"/>
      <point x="319" y="681" type="line" smooth="yes"/>
      <point x="345" y="681"/>
      <point x="372" y="702"/>
      <point x="377" y="729" type="curve"/>
      <point x="383" y="755"/>
      <point x="366" y="778"/>
      <point x="340" y="778" type="curve" smooth="yes"/>
      <point x="216" y="778" type="line" smooth="yes"/>
      <point x="189" y="778"/>
      <point x="163" y="755"/>
      <point x="157" y="729" type="curve" smooth="yes"/>
      <point x="-11" y="-64" type="line" smooth="yes"/>
      <point x="-17" y="-92"/>
      <point x="-1" y="-113"/>
      <point x="26" y="-113" type="curve" smooth="yes"/>
    </contour>
  </outline>
</glyph>
<glyph name="asciicircum" format="1">
  <advance width="526"/>
  <unicode hex="005E"/>
  <outline>
    <contour>
      <point x="136" y="431" type="line" smooth="yes"/>
      <point x="129" y="422"/>
      <point x="125" y="414"/>
      <point x="124" y="406" type="curve"/>
      <point x="118" y="380"/>
      <point x="134" y="359"/>
      <point x="161" y="359" type="curve" smooth="yes"/>
      <point x="179" y="359"/>
      <point x="195" y="366"/>
      <point x="208" y="384" type="curve" smooth="yes"/>
      <point x="318" y="541" type="line"/>
      <point x="347" y="384" type="line" smooth="yes"/>
      <point x="351" y="364"/>
      <point x="366" y="359"/>
      <point x="383" y="359" type="curve" smooth="yes"/>
      <point x="410" y="359"/>
      <point x="435" y="380"/>
      <point x="441" y="406" type="curve"/>
      <point x="442" y="412"/>
      <point x="442" y="421"/>
      <point x="439" y="431" type="curve" smooth="yes"/>
      <point x="385" y="615" type="line" smooth="yes"/>
      <point x="378" y="640"/>
      <point x="364" y="648"/>
      <point x="343" y="648" type="curve" smooth="yes"/>
      <point x="321" y="648"/>
      <point x="302" y="636"/>
      <point x="288" y="619" type="curve" smooth="yes"/>
    </contour>
  </outline>
</glyph>
<glyph name="grave" format="1">
  <advance width="526"/>
  <unicode hex="0060"/>
  <outline>
    <contour>
      <point x="330" y="536" type="line" smooth="yes"/>
      <point x="337" y="527"/>
      <point x="346" y="521"/>
      <point x="361" y="521" type="curve" smooth="yes"/>
      <point x="385" y="521"/>
      <point x="413" y="541"/>
      <point x="419" y="568" type="curve" smooth="yes"/>
      <point x="421" y="578"/>
      <point x="420" y="586"/>
      <point x="414" y="598" type="curve"/>
      <point x="344" y="717" type="line"/>
      <point x="336" y="729"/>
      <point x="323" y="739"/>
      <point x="305" y="739" type="curve" smooth="yes"/>
      <point x="277" y="739"/>
      <point x="245" y="713"/>
      <point x="239" y="685" type="curve" smooth="yes"/>
      <point x="236" y="669"/>
      <point x="239" y="657"/>
      <point x="247" y="647" type="curve" smooth="yes"/>
    </contour>
  </outline>
</glyph>
<glyph name="b" format="1">
  <advance width="550"/>
  <unicode hex="0062"/>
  <outline>
    <contour>
      <point x="294" y="491"/>
      <point x="244" y="476"/>
      <point x="196" y="446" type="curve"/>
      <point x="235" y="627" type="line" smooth="yes"/>
      <point x="241" y="654"/>
      <point x="221" y="672"/>
      <point x="197" y="672" type="curve" smooth="yes"/>
      <point x="171" y="672"/>
      <point x="146" y="654"/>
      <point x="140" y="627" type="curve" smooth="yes"/>
      <point x="16" y="46" type="line" smooth="yes"/>
      <point x="11" y="22"/>
      <point x="27" y="1"/>
      <point x="53" y="1" type="curve" smooth="yes"/>
      <point x="70" y="1"/>
      <point x="90" y="11"/>
      <point x="101" y="24" type="curve"/>
      <point x="129" y="15"/>
      <point x="167" y="6"/>
      <point x="205" y="6" type="curve" smooth="yes"/>
      <point x="361" y="6"/>
      <point x="450" y="124"/>
      <point x="481" y="269" type="curve" smooth="yes"/>
      <point x="503" y="373"/>
      <point x="479" y="491"/>
      <point x="347" y="491" type="curve" smooth="yes"/>
    </contour>
    <contour>
      <point x="181" y="100"/>
      <point x="146" y="110"/>
      <point x="126" y="117" type="curve"/>
      <point x="163" y="290" type="line" smooth="yes"/>
      <point x="175" y="348"/>
      <point x="247" y="395"/>
      <point x="329" y="395" type="curve" smooth="yes"/>
      <point x="395" y="395"/>
      <point x="398" y="322"/>
      <point x="387" y="269" type="curve" smooth="yes"/>
      <point x="365" y="167"/>
      <point x="316" y="100"/>
      <point x="218" y="100" type="curve" smooth="yes"/>
    </contour>
  </outline>
</glyph>
<glyph name="c" format="1">
  <advance width="535"/>
  <unicode hex="0063"/>
  <outline>
    <contour>
      <point x="321" y="117"/>
      <point x="284" y="93"/>
      <point x="227" y="93" type="curve" smooth="yes"/>
      <point x="193" y="93"/>
      <point x="111" y="122"/>
      <point x="132" y="221" type="curve" smooth="yes"/>
      <point x="137" y="243"/>
      <point x="148" y="272"/>
      <point x="166" y="302" type="curve" smooth="yes"/>
      <point x="194" y="346"/>
      <point x="255" y="407"/>
      <point x="305" y="407" type="curve" smooth="yes"/>
      <point x="343" y="407"/>
      <point x="361" y="389"/>
      <point x="379" y="361" type="curve"/>
      <point x="384" y="354"/>
      <point x="391" y="349"/>
      <point x="408" y="349" type="curve" smooth="yes"/>
      <point x="434" y="349"/>
      <point x="460" y="370"/>
      <point x="466" y="396" type="curve"/>
      <point x="468" y="408"/>
      <point x="467" y="419"/>
      <point x="460" y="430" type="curve" smooth="yes"/>
      <point x="430" y="476"/>
      <point x="398" y="500"/>
      <point x="323" y="500" type="curve" smooth="yes"/>
      <point x="224" y="500"/>
      <point x="126" y="401"/>
      <point x="87" y="335" type="curve"/>
      <point x="71" y="310"/>
      <point x="48" y="266"/>
      <point x="38" y="219" type="curve" smooth="yes"/>
      <point x="11" y="91"/>
      <point x="100" y="0"/>
      <point x="220" y="0" type="curve" smooth="yes"/>
      <point x="294" y="0"/>
      <point x="372" y="47"/>
      <point x="417" y="94" type="curve" smooth="yes"/>
      <point x="425" y="102"/>
      <point x="432" y="112"/>
      <point x="435" y="124" type="curve" smooth="yes"/>
      <point x="441" y="151"/>
      <point x="424" y="172"/>
      <point x="398" y="172" type="curve" smooth="yes"/>
      <point x="375" y="172"/>
      <point x="359" y="156"/>
      <point x="350" y="147" type="curve" smooth="yes"/>
    </contour>
  </outline>
</glyph>
<glyph name="f" format="1">
  <advance width="397"/>
  <unicode hex="0066"/>
  <outline>
    <contour>
      <point x="113" y="501" type="line" smooth="yes"/>
      <point x="90" y="501"/>
      <point x="63" y="479"/>
      <point x="58" y="454" type="curve" smooth="yes"/>
      <point x="53" y="430"/>
      <point x="70" y="408"/>
      <point x="94" y="408" type="curve" smooth="yes"/>
      <point x="140" y="408" type="line"/>
      <point x="63" y="46" type="line" smooth="yes"/>
      <point x="58" y="22"/>
      <point x="77" y="0"/>
      <point x="102" y="0" type="curve" smooth="yes"/>
      <point x="127" y="0"/>
      <point x="154" y="22"/>
      <point x="159" y="46" type="curve" smooth="yes"/>
      <point x="236" y="408" type="line"/>
      <point x="339" y="408" type="line" smooth="yes"/>
      <point x="364" y="408"/>
      <point x="389" y="430"/>
      <point x="394" y="454" type="curve" smooth="yes"/>
      <point x="400" y="480"/>
      <point x="379" y="500"/>
      <point x="359" y="500" type="curve" smooth="yes"/>
      <point x="257" y="501" type="line"/>
      <point x="278" y="570"/>
      <point x="310" y="580"/>
      <point x="393" y="580" type="curve" smooth="yes"/>
      <point x="423" y="580"/>
      <point x="444" y="602"/>
      <point x="450" y="627" type="curve" smooth="yes"/>
      <point x="458" y="664"/>
      <point x="435" y="673"/>
      <point x="402" y="673" type="curve" smooth="yes"/>
      <point x="265" y="673"/>
      <point x="194" y="630"/>
      <point x="161" y="501" type="curve"/>
    </contour>
  </outline>
</glyph>
<glyph name="g" format="1">
  <advance width="547"/>
  <unicode hex="0067"/>
  <outline>
    <contour>
      <point x="65" y="-161"/>
      <point x="107" y="-168"/>
      <point x="152" y="-168" type="curve" smooth="yes"/>
      <point x="271" y="-168"/>
      <point x="371" y="-104"/>
      <point x="405" y="39" type="curve" smooth="yes"/>
      <point x="504" y="461" type="line" smooth="yes"/>
      <point x="513" y="498"/>
      <point x="494" y="510"/>
      <point x="468" y="510" type="curve" smooth="yes"/>
      <point x="442" y="510"/>
      <point x="425" y="500"/>
      <point x="416" y="482" type="curve"/>
      <point x="395" y="491"/>
      <point x="368" y="500"/>
      <point x="337" y="500" type="curve" smooth="yes"/>
      <point x="202" y="500"/>
      <point x="72" y="374"/>
      <point x="44" y="242" type="curve" smooth="yes"/>
      <point x="15" y="105"/>
      <point x="80" y="9"/>
      <point x="197" y="9" type="curve" smooth="yes"/>
      <point x="236" y="9"/>
      <point x="274" y="24"/>
      <point x="308" y="45" type="curve"/>
      <point x="290" y="-27"/>
      <point x="250" y="-72"/>
      <point x="171" y="-72" type="curve" smooth="yes"/>
      <point x="144" y="-72"/>
      <point x="125" y="-70"/>
      <point x="101" y="-64" type="curve" smooth="yes"/>
      <point x="90" y="-61"/>
      <point x="78" y="-59"/>
      <point x="68" y="-59" type="curve" smooth="yes"/>
      <point x="43" y="-59"/>
      <point x="15" y="-80"/>
      <point x="10" y="-107" type="curve" smooth="yes"/>
      <point x="5" y="-130"/>
      <point x="17" y="-149"/>
      <point x="37" y="-154" type="curve" smooth="yes"/>
    </contour>
    <contour>
      <point x="362" y="265" type="line" smooth="yes"/>
      <point x="334" y="133"/>
      <point x="262" y="103"/>
      <point x="210" y="103" type="curve" smooth="yes"/>
      <point x="134" y="103"/>
      <point x="122" y="182"/>
      <point x="134" y="238" type="curve" smooth="yes"/>
      <point x="154" y="333"/>
      <point x="237" y="404"/>
      <point x="320" y="404" type="curve" smooth="yes"/>
      <point x="344" y="404"/>
      <point x="372" y="396"/>
      <point x="388" y="386" type="curve"/>
    </contour>
  </outline>
</glyph>
<glyph name="k" format="1">
  <advance width="520"/>
  <unicode hex="006B"/>
  <outline>
    <contour>
      <point x="392" y="128"/>
      <point x="346" y="206"/>
      <point x="296" y="291" type="curve"/>
      <point x="345" y="329"/>
      <point x="419" y="392"/>
      <point x="466" y="441" type="curve"/>
      <point x="473" y="447"/>
      <point x="480" y="457"/>
      <point x="482" y="470" type="curve"/>
      <point x="488" y="496"/>
      <point x="472" y="516"/>
      <point x="445" y="516" type="curve" smooth="yes"/>
      <point x="427" y="516"/>
      <point x="413" y="507"/>
      <point x="402" y="496" type="curve" smooth="yes"/>
      <point x="335" y="432"/>
      <point x="232" y="346"/>
      <point x="167" y="299" type="curve"/>
      <point x="235" y="623" type="line" smooth="yes"/>
      <point x="240" y="649"/>
      <point x="226" y="672"/>
      <point x="197" y="672" type="curve" smooth="yes"/>
      <point x="171" y="672"/>
      <point x="144" y="651"/>
      <point x="138" y="625" type="curve" smooth="yes"/>
      <point x="18" y="48" type="line" smooth="yes"/>
      <point x="12" y="23"/>
      <point x="31" y="0"/>
      <point x="56" y="0" type="curve" smooth="yes"/>
      <point x="84" y="0"/>
      <point x="109" y="23"/>
      <point x="115" y="48" type="curve" smooth="yes"/>
      <point x="146" y="193" type="line"/>
      <point x="161" y="202"/>
      <point x="186" y="216"/>
      <point x="212" y="233" type="curve"/>
      <point x="233" y="197"/>
      <point x="291" y="94"/>
      <point x="331" y="20" type="curve" smooth="yes"/>
      <point x="337" y="9"/>
      <point x="350" y="3"/>
      <point x="365" y="3" type="curve" smooth="yes"/>
      <point x="394" y="3"/>
      <point x="418" y="26"/>
      <point x="424" y="53" type="curve" smooth="yes"/>
      <point x="427" y="67"/>
      <point x="422" y="77"/>
      <point x="417" y="84" type="curve"/>
    </contour>
  </outline>
</glyph>
<glyph name="o" format="1">
  <advance width="561"/>
  <unicode hex="006F"/>
  <outline>
    <contour>
      <point x="326" y="0"/>
      <point x="459" y="122"/>
      <point x="490" y="268" type="curve" smooth="yes"/>
      <point x="517" y="392"/>
      <point x="450" y="500"/>
      <point x="333" y="500" type="curve" smooth="yes"/>
      <point x="206" y="500"/>
      <point x="73" y="377"/>
      <point x="42" y="232" type="curve" smooth="yes"/>
      <point x="15" y="104"/>
      <point x="82" y="0"/>
      <point x="199" y="0" type="curve" smooth="yes"/>
    </contour>
    <contour>
      <point x="372" y="411"/>
      <point x="407" y="342"/>
      <point x="390" y="263" type="curve" smooth="yes"/>
      <point x="371" y="170"/>
      <point x="288" y="89"/>
      <point x="217" y="89" type="curve" smooth="yes"/>
      <point x="152" y="89"/>
      <point x="122" y="155"/>
      <point x="139" y="233" type="curve" smooth="yes"/>
      <point x="159" y="328"/>
      <point x="238" y="411"/>
      <point x="310" y="411" type="curve" smooth="yes"/>
    </contour>
  </outline>
</glyph>
<glyph name="q" format="1">
  <advance width="540"/>
  <unicode hex="0071"/>
  <outline>
    <contour>
      <point x="259" y="-120" type="line" smooth="yes"/>
      <point x="252" y="-146"/>
      <point x="263" y="-172"/>
      <point x="294" y="-172" type="curve" smooth="yes"/>
      <point x="320" y="-172"/>
      <point x="344" y="-157"/>
      <point x="352" y="-124" type="curve" smooth="yes"/>
      <point x="499" y="468" type="line" smooth="yes"/>
      <point x="507" y="500"/>
      <point x="487" y="516"/>
      <point x="463" y="516" type="curve" smooth="yes"/>
      <point x="443" y="516"/>
      <point x="423" y="504"/>
      <point x="412" y="487" type="curve"/>
      <point x="396" y="489"/>
      <point x="380" y="490"/>
      <point x="365" y="490" type="curve" smooth="yes"/>
      <point x="204" y="490"/>
      <point x="73" y="382"/>
      <point x="37" y="214" type="curve" smooth="yes"/>
      <point x="11" y="90"/>
      <point x="76" y="-5"/>
      <point x="204" y="-5" type="curve" smooth="yes"/>
      <point x="242" y="-5"/>
      <point x="270" y="4"/>
      <point x="293" y="17" type="curve"/>
    </contour>
    <contour>
      <point x="153" y="85"/>
      <point x="112" y="138"/>
      <point x="128" y="213" type="curve" smooth="yes"/>
      <point x="153" y="332"/>
      <point x="241" y="399"/>
      <point x="345" y="399" type="curve" smooth="yes"/>
      <point x="357" y="399"/>
      <point x="373" y="398"/>
      <point x="388" y="396" type="curve"/>
      <point x="332" y="173" type="line" smooth="yes"/>
      <point x="318" y="116"/>
      <point x="274" y="85"/>
      <point x="215" y="85" type="curve" smooth="yes"/>
    </contour>
  </outline>
</glyph>
<glyph name="t" format="1">
  <advance width="413"/>
  <unicode hex="0074"/>
  <outline>
    <contour>
      <point x="296" y="500" type="line"/>
      <point x="319" y="607" type="line" smooth="yes"/>
      <point x="324" y="632"/>
      <point x="310" y="656"/>
      <point x="281" y="656" type="curve" smooth="yes"/>
      <point x="254" y="656"/>
      <point x="228" y="632"/>
      <point x="223" y="607" type="curve" smooth="yes"/>
      <point x="200" y="500" type="line"/>
      <point x="118" y="500" type="line" smooth="yes"/>
      <point x="92" y="500"/>
      <point x="64" y="481"/>
      <point x="57" y="451" type="curve" smooth="yes"/>
      <point x="52" y="426"/>
      <point x="68" y="403"/>
      <point x="95" y="403" type="curve" smooth="yes"/>
      <point x="179" y="403" type="line"/>
      <point x="103" y="46" type="line" smooth="yes"/>
      <point x="98" y="20"/>
      <point x="116" y="-1"/>
      <point x="141" y="-1" type="curve" smooth="yes"/>
      <point x="167" y="-1"/>
      <point x="194" y="20"/>
      <point x="199" y="46" type="curve" smooth="yes"/>
      <point x="275" y="403" type="line"/>
      <point x="360" y="403" type="line" smooth="yes"/>
      <point x="387" y="403"/>
      <point x="413" y="426"/>
      <point x="418" y="451" type="curve" smooth="yes"/>
      <point x="424" y="479"/>
      <point x="408" y="500"/>
      <point x="381" y="500" type="curve" smooth="yes"/>
    </contour>
  </outline>
</glyph>
<glyph name="w" format="1">
  <advance width="620"/>
  <unicode hex="0077"/>
  <outline>
    <contour>
      <point x="393" y="202" type="line"/>
      <point x="387" y="465" type="line" smooth="yes"/>
      <point x="386" y="489"/>
      <point x="371" y="500"/>
      <point x="347" y="500" type="curve" smooth="yes"/>
      <point x="325" y="500"/>
      <point x="303" y="486"/>
      <point x="291" y="465" type="curve" smooth="yes"/>
      <point x="146" y="207" type="line"/>
      <point x="149" y="460" type="line" smooth="yes"/>
      <point x="150" y="483"/>
      <point x="137" y="500"/>
      <point x="111" y="500" type="curve" smooth="yes"/>
      <point x="85" y="500"/>
      <point x="59" y="479"/>
      <point x="55" y="458" type="curve"/>
      <point x="53" y="450"/>
      <point x="53" y="444"/>
      <point x="53" y="434" type="curve" smooth="yes"/>
      <point x="52" y="39" type="line" smooth="yes"/>
      <point x="52" y="15"/>
      <point x="64" y="0"/>
      <point x="92" y="0" type="curve" smooth="yes"/>
      <point x="113" y="0"/>
      <point x="132" y="12"/>
      <point x="145" y="35" type="curve" smooth="yes"/>
      <point x="297" y="299" type="line"/>
      <point x="308" y="37" type="line" smooth="yes"/>
      <point x="310" y="11"/>
      <point x="325" y="0"/>
      <point x="348" y="0" type="curve" smooth="yes"/>
      <point x="372" y="0"/>
      <point x="390" y="15"/>
      <point x="401" y="36" type="curve" smooth="yes"/>
      <point x="614" y="435" type="line" smooth="yes"/>
      <point x="617" y="441"/>
      <point x="619" y="446"/>
      <point x="621" y="454" type="curve" smooth="yes"/>
      <point x="627" y="480"/>
      <point x="608" y="499"/>
      <point x="583" y="499" type="curve" smooth="yes"/>
      <point x="561" y="499"/>
      <point x="538" y="482"/>
      <point x="528" y="462" type="curve" smooth="yes"/>
    </contour>
  </outline>
</glyph>
<glyph name="x" format="1">
  <advance width="536"/>
  <unicode hex="0078"/>
  <outline>
    <contour>
      <point x="520" y="417" type="line" smooth="yes"/>
      <point x="530" y="425"/>
      <point x="538" y="437"/>
      <point x="541" y="450" type="curve" smooth="yes"/>
      <point x="546" y="475"/>
      <point x="528" y="498"/>
      <point x="503" y="498" type="curve" smooth="yes"/>
      <point x="491" y="498"/>
      <point x="479" y="494"/>
      <point x="465" y="483" type="curve"/>
      <point x="277" y="322" type="line"/>
      <point x="179" y="484" type="line" smooth="yes"/>
      <point x="171" y="497"/>
      <point x="159" y="500"/>
      <point x="147" y="500" type="curve" smooth="yes"/>
      <point x="121" y="500"/>
      <point x="95" y="477"/>
      <point x="89" y="451" type="curve"/>
      <point x="87" y="440"/>
      <point x="89" y="428"/>
      <point x="96" y="419" type="curve"/>
      <point x="196" y="259" type="line"/>
      <point x="-12" y="84" type="line" smooth="yes"/>
      <point x="-26" y="72"/>
      <point x="-31" y="61"/>
      <point x="-33" y="49" type="curve" smooth="yes"/>
      <point x="-38" y="24"/>
      <point x="-22" y="1"/>
      <point x="4" y="1" type="curve" smooth="yes"/>
      <point x="16" y="1"/>
      <point x="28" y="3"/>
      <point x="42" y="15" type="curve" smooth="yes"/>
      <point x="243" y="189" type="line"/>
      <point x="348" y="15" type="line"/>
      <point x="355" y="5"/>
      <point x="368" y="0"/>
      <point x="380" y="0" type="curve" smooth="yes"/>
      <point x="406" y="0"/>
      <point x="432" y="21"/>
      <point x="438" y="48" type="curve"/>
      <point x="440" y="59"/>
      <point x="439" y="69"/>
      <point x="434" y="78" type="curve"/>
      <point x="325" y="253" type="line"/>
    </contour>
  </outline>
</glyph>
<glyph name="y" format="1">
  <advance width="515"/>
  <unicode hex="0079"/>
  <outline>
    <contour>
      <point x="505" y="432" type="line" smooth="yes"/>
      <point x="510" y="439"/>
      <point x="512" y="446"/>
      <point x="514" y="452" type="curve"/>
      <point x="520" y="480"/>
      <point x="501" y="501"/>
      <point x="476" y="501" type="curve" smooth="yes"/>
      <point x="455" y="501"/>
      <point x="435" y="487"/>
      <point x="423" y="470" type="curve" smooth="yes"/>
      <point x="236" y="191" type="line"/>
      <point x="156" y="470" type="line" smooth="yes"/>
      <point x="152" y="485"/>
      <point x="140" y="500"/>
      <point x="119" y="500" type="curve" smooth="yes"/>
      <point x="92" y="500"/>
      <point x="66" y="478"/>
      <point x="60" y="451" type="curve" smooth="yes"/>
      <point x="58" y="442"/>
      <point x="60" y="433"/>
      <point x="61" y="427" type="curve"/>
      <point x="160" y="78" type="line"/>
      <point x="35" y="-109" type="line"/>
      <point x="31" y="-116"/>
      <point x="27" y="-124"/>
      <point x="26" y="-130" type="curve"/>
      <point x="20" y="-157"/>
      <point x="37" y="-179"/>
      <point x="63" y="-179" type="curve" smooth="yes"/>
      <point x="84" y="-179"/>
      <point x="103" y="-165"/>
      <point x="115" y="-148" type="curve" smooth="yes"/>
    </contour>
  </outline>
</glyph>
<glyph name="braceright" format="1">
  <advance width="402"/>
  <unicode hex="007D"/>
  <outline>
    <contour>
      <point x="330" y="294"/>
      <point x="339" y="303"/>
      <point x="344" y="328" type="curve" smooth="yes"/>
      <point x="348" y="347"/>
      <point x="343" y="362"/>
      <point x="322" y="370" type="curve"/>
      <point x="299" y="380"/>
      <point x="283" y="403"/>
      <point x="291" y="438" type="curve" smooth="yes"/>
      <point x="330" y="624" type="line" smooth="yes"/>
      <point x="352" y="726"/>
      <point x="279" y="766"/>
      <point x="219" y="779" type="curve"/>
      <point x="185" y="785"/>
      <point x="155" y="766"/>
      <point x="148" y="732" type="curve" smooth="yes"/>
      <point x="143" y="709"/>
      <point x="156" y="690"/>
      <point x="179" y="685" type="curve"/>
      <point x="204" y="681"/>
      <point x="245" y="665"/>
      <point x="236" y="624" type="curve" smooth="yes"/>
      <point x="197" y="439" type="line" smooth="yes"/>
      <point x="187" y="394"/>
      <point x="198" y="355"/>
      <point x="215" y="327" type="curve"/>
      <point x="183" y="299"/>
      <point x="159" y="261"/>
      <point x="149" y="214" type="curve" smooth="yes"/>
      <point x="113" y="43" type="line" smooth="yes"/>
      <point x="104" y="2"/>
      <point x="57" y="-13"/>
      <point x="31" y="-18" type="curve" smooth="yes"/>
      <point x="1" y="-24"/>
      <point x="-16" y="-40"/>
      <point x="-21" y="-65" type="curve" smooth="yes"/>
      <point x="-27" y="-93"/>
      <point x="-11" y="-118"/>
      <point x="24" y="-112" type="curve" smooth="yes"/>
      <point x="91" y="-102"/>
      <point x="185" y="-59"/>
      <point x="207" y="43" type="curve" smooth="yes"/>
      <point x="243" y="215" type="line" smooth="yes"/>
      <point x="249" y="244"/>
      <point x="263" y="264"/>
      <point x="306" y="284" type="curve"/>
    </contour>
  </outline>
</glyph>
<glyph name="asciitilde" format="1">
  <advance width="666"/>
  <unicode hex="007E"/>
  <outline>
    <contour>
      <point x="575" y="287"/>
      <point x="577" y="296"/>
      <point x="578" y="301" type="curve" smooth="yes"/>
      <point x="584" y="327"/>
      <point x="567" y="348"/>
      <point x="541" y="348" type="curve" smooth="yes"/>
      <point x="521" y="348"/>
      <point x="501" y="335"/>
      <point x="486" y="310" type="curve" smooth="yes"/>
      <point x="469" y="282"/>
      <point x="437" y="231"/>
      <point x="401" y="231" type="curve" smooth="yes"/>
      <point x="382" y="231"/>
      <point x="371" y="249"/>
      <point x="356" y="279" type="curve" smooth="yes"/>
      <point x="336" y="320"/>
      <point x="311" y="365"/>
      <point x="243" y="365" type="curve" smooth="yes"/>
      <point x="163" y="365"/>
      <point x="103" y="304"/>
      <point x="62" y="233" type="curve" smooth="yes"/>
      <point x="58" y="226"/>
      <point x="55" y="221"/>
      <point x="54" y="214" type="curve"/>
      <point x="48" y="188"/>
      <point x="64" y="167"/>
      <point x="90" y="167" type="curve" smooth="yes"/>
      <point x="114" y="167"/>
      <point x="132" y="181"/>
      <point x="143" y="201" type="curve"/>
      <point x="157" y="229"/>
      <point x="189" y="271"/>
      <point x="223" y="271" type="curve" smooth="yes"/>
      <point x="242" y="271"/>
      <point x="253" y="253"/>
      <point x="268" y="223" type="curve" smooth="yes"/>
      <point x="289" y="182"/>
      <point x="312" y="136"/>
      <point x="380" y="136" type="curve" smooth="yes"/>
      <point x="476" y="136"/>
      <point x="541" y="232"/>
      <point x="570" y="280" type="curve"/>
    </contour>
  </outline>
</glyph>
<glyph name="yen" format="1">
  <advance width="599"/>
  <unicode hex="00A5"/>
  <outline>
    <contour>
      <point x="522" y="676"/>
      <point x="505" y="667"/>
      <point x="493" y="650" type="curve" smooth="yes"/>
      <point x="309" y="406" type="line"/>
      <point x="239" y="648" type="line" smooth="yes"/>
      <point x="234" y="665"/>
      <point x="220" y="674"/>
      <point x="203" y="674" type="curve" smooth="yes"/>
      <point x="174" y="674"/>
      <point x="149" y="650"/>
      <point x="144" y="626" type="curve"/>
      <point x="142" y="620"/>
      <point x="143" y="612"/>
      <point x="144" y="605" type="curve"/>
      <point x="215" y="356" type="line"/>
      <point x="165" y="356" type="line" smooth="yes"/>
      <point x="139" y="356"/>
      <point x="114" y="335"/>
      <point x="108" y="309" type="curve"/>
      <point x="103" y="283"/>
      <point x="119" y="262"/>
      <point x="145" y="262" type="curve" smooth="yes"/>
      <point x="228" y="262" type="line"/>
      <point x="218" y="216" type="line"/>
      <point x="135" y="216" type="line" smooth="yes"/>
      <point x="109" y="216"/>
      <point x="84" y="195"/>
      <point x="78" y="169" type="curve"/>
      <point x="73" y="143"/>
      <point x="89" y="122"/>
      <point x="115" y="122" type="curve" smooth="yes"/>
      <point x="198" y="122" type="line"/>
      <point x="183" y="48" type="line"/>
      <point x="177" y="23"/>
      <point x="195" y="0"/>
      <point x="221" y="0" type="curve" smooth="yes"/>
      <point x="248" y="0"/>
      <point x="273" y="23"/>
      <point x="279" y="48" type="curve"/>
      <point x="294" y="122" type="line"/>
      <point x="377" y="122" type="line" smooth="yes"/>
      <point x="404" y="122"/>
      <point x="430" y="143"/>
      <point x="435" y="169" type="curve"/>
      <point x="441" y="195"/>
      <point x="424" y="216"/>
      <point x="397" y="216" type="curve" smooth="yes"/>
      <point x="314" y="216" type="line"/>
      <point x="324" y="262" type="line"/>
      <point x="407" y="262" type="line" smooth="yes"/>
      <point x="434" y="262"/>
      <point x="460" y="283"/>
      <point x="465" y="309" type="curve"/>
      <point x="471" y="335"/>
      <point x="454" y="356"/>
      <point x="427" y="356" type="curve" smooth="yes"/>
      <point x="380" y="356" type="line"/>
      <point x="565" y="599" type="line" smooth="yes"/>
      <point x="575" y="612"/>
      <point x="577" y="621"/>
      <point x="579" y="628" type="curve"/>
      <point x="585" y="655"/>
      <point x="565" y="676"/>
      <point x="540" y="676" type="curve" smooth="yes"/>
    </contour>
  </outline>
</glyph>
<glyph name="section" format="1">
  <advance width="483"/>
  <unicode hex="00A7"/>
  <outline>
    <contour>
      <point x="124" y="173"/>
      <point x="111" y="188"/>
      <point x="88" y="188" type="curve" smooth="yes"/>
      <point x="62" y="188"/>
      <point x="37" y="167"/>
      <point x="31" y="141" type="curve" smooth="yes"/>
      <point x="23" y="103"/>
      <point x="63" y="0"/>
      <point x="190" y="0" type="curve" smooth="yes"/>
      <point x="299" y="0"/>
      <point x="384" y="79"/>
      <point x="400" y="151" type="curve"/>
      <point x="405" y="178"/>
      <point x="404" y="201"/>
      <point x="398" y="220" type="curve"/>
      <point x="412" y="239"/>
      <point x="422" y="260"/>
      <point x="426" y="280" type="curve" smooth="yes"/>
      <point x="449" y="388"/>
      <point x="382" y="410"/>
      <point x="294" y="440" type="curve" smooth="yes"/>
      <point x="266" y="449"/>
      <point x="218" y="464"/>
      <point x="226" y="499" type="curve" smooth="yes"/>
      <point x="231" y="525"/>
      <point x="270" y="541"/>
      <point x="321" y="541" type="curve" smooth="yes"/>
      <point x="369" y="541"/>
      <point x="387" y="527"/>
      <point x="382" y="507" type="curve"/>
      <point x="381" y="499"/>
      <point x="377" y="493"/>
      <point x="375" y="483" type="curve" smooth="yes"/>
      <point x="370" y="461"/>
      <point x="381" y="441"/>
      <point x="413" y="441" type="curve" smooth="yes"/>
      <point x="447" y="441"/>
      <point x="466" y="464"/>
      <point x="475" y="506" type="curve" smooth="yes"/>
      <point x="491" y="581"/>
      <point x="444" y="630"/>
      <point x="338" y="630" type="curve" smooth="yes"/>
      <point x="264" y="630"/>
      <point x="155" y="604"/>
      <point x="133" y="499" type="curve" smooth="yes"/>
      <point x="127" y="474"/>
      <point x="130" y="452"/>
      <point x="138" y="433" type="curve"/>
      <point x="123" y="416"/>
      <point x="112" y="396"/>
      <point x="106" y="370" type="curve" smooth="yes"/>
      <point x="90" y="295"/>
      <point x="134" y="252"/>
      <point x="230" y="220" type="curve" smooth="yes"/>
      <point x="294" y="198"/>
      <point x="313" y="180"/>
      <point x="308" y="156" type="curve" smooth="yes"/>
      <point x="302" y="131"/>
      <point x="273" y="90"/>
      <point x="209" y="90" type="curve" smooth="yes"/>
      <point x="161" y="90"/>
      <point x="130" y="116"/>
      <point x="126" y="154" type="curve" smooth="yes"/>
    </contour>
    <contour>
      <point x="315" y="284"/>
      <point x="288" y="291"/>
      <point x="258" y="301" type="curve" smooth="yes"/>
      <point x="228" y="310"/>
      <point x="177" y="318"/>
      <point x="187" y="364" type="curve" smooth="yes"/>
      <point x="189" y="372"/>
      <point x="192" y="379"/>
      <point x="202" y="387" type="curve"/>
      <point x="223" y="381"/>
      <point x="253" y="371"/>
      <point x="267" y="366" type="curve" smooth="yes"/>
      <point x="341" y="342"/>
      <point x="353" y="327"/>
      <point x="346" y="296" type="curve"/>
      <point x="345" y="290"/>
      <point x="342" y="281"/>
      <point x="335" y="272" type="curve"/>
    </contour>
  </outline>
</glyph>
<glyph name="dieresis" format="1">
  <advance width="526"/>
  <unicode hex="00A8"/>
  <outline>
    <contour>
      <point x="301" y="619"/>
      <point x="275" y="644"/>
      <point x="243" y="644" type="curve" smooth="yes"/>
      <point x="204" y="644"/>
      <point x="168" y="614"/>
      <point x="161" y="581" type="curve" smooth="yes"/>
      <point x="154" y="547"/>
      <point x="177" y="523"/>
      <point x="212" y="523" type="curve" smooth="yes"/>
      <point x="251" y="523"/>
      <point x="287" y="551"/>
      <point x="294" y="586" type="curve" smooth="yes"/>
    </contour>
    <contour>
      <point x="486" y="619"/>
      <point x="460" y="644"/>
      <point x="427" y="644" type="curve" smooth="yes"/>
      <point x="389" y="644"/>
      <point x="352" y="614"/>
      <point x="345" y="581" type="curve" smooth="yes"/>
      <point x="338" y="547"/>
      <point x="361" y="523"/>
      <point x="397" y="523" type="curve" smooth="yes"/>
      <point x="436" y="523"/>
      <point x="472" y="551"/>
      <point x="479" y="586" type="curve" smooth="yes"/>
    </contour>
  </outline>
</glyph>
<glyph name="ordfeminine" format="1">
  <advance width="276"/>
  <unicode hex="00AA"/>
  <outline>
    <contour>
      <point x="260" y="311"/>
      <point x="284" y="332"/>
      <point x="289" y="356" type="curve" smooth="yes"/>
      <point x="343" y="615" type="line"/>
      <point x="327" y="630"/>
      <point x="282" y="652"/>
      <point x="235" y="652" type="curve" smooth="yes"/>
      <point x="134" y="652"/>
      <point x="58" y="551"/>
      <point x="38" y="461" type="curve" smooth="yes"/>
      <point x="21" y="378"/>
      <point x="62" y="315"/>
      <point x="137" y="315" type="curve" smooth="yes"/>
      <point x="165" y="315"/>
      <point x="185" y="321"/>
      <point x="203" y="327" type="curve"/>
      <point x="209" y="317"/>
      <point x="222" y="311"/>
      <point x="236" y="311" type="curve" smooth="yes"/>
    </contour>
    <contour>
      <point x="226" y="561"/>
      <point x="237" y="560"/>
      <point x="242" y="558" type="curve"/>
      <point x="211" y="423" type="line"/>
      <point x="197" y="416"/>
      <point x="174" y="405"/>
      <point x="158" y="405" type="curve" smooth="yes"/>
      <point x="130" y="405"/>
      <point x="124" y="437"/>
      <point x="130" y="463" type="curve" smooth="yes"/>
      <point x="139" y="504"/>
      <point x="171" y="561"/>
      <point x="220" y="561" type="curve" smooth="yes"/>
    </contour>
  </outline>
</glyph>
<glyph name="guillemotleft" format="1">
  <advance width="617"/>
  <unicode hex="00AB"/>
  <outline>
    <contour>
      <point x="169" y="81" type="line"/>
      <point x="178" y="72"/>
      <point x="187" y="69"/>
      <point x="199" y="69" type="curve" smooth="yes"/>
      <point x="224" y="69"/>
      <point x="252" y="90"/>
      <point x="257" y="116" type="curve"/>
      <point x="260" y="129"/>
      <point x="258" y="143"/>
      <point x="249" y="153" type="curve" smooth="yes"/>
      <point x="161" y="249" type="line"/>
      <point x="306" y="354" type="line" smooth="yes"/>
      <point x="322" y="366"/>
      <point x="326" y="376"/>
      <point x="330" y="391" type="curve"/>
      <point x="335" y="418"/>
      <point x="316" y="439"/>
      <point x="292" y="439" type="curve" smooth="yes"/>
      <point x="281" y="439"/>
      <point x="271" y="436"/>
      <point x="258" y="427" type="curve" smooth="yes"/>
      <point x="65" y="286" type="line" smooth="yes"/>
      <point x="52" y="277"/>
      <point x="43" y="262"/>
      <point x="41" y="250" type="curve"/>
      <point x="38" y="237"/>
      <point x="40" y="223"/>
      <point x="49" y="213" type="curve" smooth="yes"/>
    </contour>
    <contour>
      <point x="399" y="81" type="line"/>
      <point x="408" y="72"/>
      <point x="417" y="69"/>
      <point x="429" y="69" type="curve" smooth="yes"/>
      <point x="454" y="69"/>
      <point x="482" y="90"/>
      <point x="487" y="116" type="curve"/>
      <point x="490" y="129"/>
      <point x="488" y="143"/>
      <point x="479" y="153" type="curve" smooth="yes"/>
      <point x="391" y="249" type="line"/>
      <point x="536" y="354" type="line" smooth="yes"/>
      <point x="552" y="366"/>
      <point x="556" y="376"/>
      <point x="560" y="391" type="curve"/>
      <point x="565" y="418"/>
      <point x="546" y="439"/>
      <point x="522" y="439" type="curve" smooth="yes"/>
      <point x="511" y="439"/>
      <point x="501" y="436"/>
      <point x="488" y="427" type="curve" smooth="yes"/>
      <point x="295" y="286" type="line" smooth="yes"/>
      <point x="282" y="277"/>
      <point x="273" y="262"/>
      <point x="271" y="250" type="curve"/>
      <point x="268" y="237"/>
      <point x="270" y="223"/>
      <point x="279" y="213" type="curve" smooth="yes"/>
    </contour>
  </outline>
</glyph>
<glyph name="macron" format="1">
  <advance width="526"/>
  <unicode hex="00AF"/>
  <outline>
    <contour>
      <point x="406" y="545" type="line" smooth="yes"/>
      <point x="431" y="545"/>
      <point x="456" y="567"/>
      <point x="461" y="591" type="curve" smooth="yes"/>
      <point x="467" y="617"/>
      <point x="451" y="637"/>
      <point x="426" y="637" type="curve" smooth="yes"/>
      <point x="236" y="637" type="line" smooth="yes"/>
      <point x="211" y="637"/>
      <point x="187" y="617"/>
      <point x="181" y="591" type="curve" smooth="yes"/>
      <point x="176" y="567"/>
      <point x="191" y="545"/>
      <point x="216" y="545" type="curve" smooth="yes"/>
    </contour>
  </outline>
</glyph>
<glyph name="degree" format="1">
  <advance width="269"/>
  <unicode hex="00B0"/>
  <outline>
    <contour>
      <point x="237" y="422"/>
      <point x="309" y="481"/>
      <point x="324" y="555" type="curve" smooth="yes"/>
      <point x="340" y="629"/>
      <point x="294" y="689"/>
      <point x="220" y="689" type="curve" smooth="yes"/>
      <point x="147" y="689"/>
      <point x="74" y="629"/>
      <point x="58" y="555" type="curve" smooth="yes"/>
      <point x="43" y="481"/>
      <point x="90" y="422"/>
      <point x="163" y="422" type="curve" smooth="yes"/>
    </contour>
    <contour>
      <point x="227" y="601"/>
      <point x="244" y="580"/>
      <point x="238" y="555" type="curve"/>
      <point x="233" y="530"/>
      <point x="208" y="509"/>
      <point x="182" y="509" type="curve" smooth="yes"/>
      <point x="157" y="509"/>
      <point x="139" y="530"/>
      <point x="144" y="555" type="curve"/>
      <point x="150" y="580"/>
      <point x="176" y="601"/>
      <point x="201" y="601" type="curve" smooth="yes"/>
    </contour>
  </outline>
</glyph>
<glyph name="plusminus" format="1">
  <advance width="467"/>
  <unicode hex="00B1"/>
  <outline>
    <contour>
      <point x="54" y="266"/>
      <point x="70" y="245"/>
      <point x="96" y="245" type="curve" smooth="yes"/>
      <point x="173" y="245" type="line"/>
      <point x="157" y="170" type="line" smooth="yes"/>
      <point x="152" y="146"/>
      <point x="168" y="124"/>
      <point x="194" y="124" type="curve" smooth="yes"/>
      <point x="217" y="124"/>
      <point x="244" y="145"/>
      <point x="250" y="170" type="curve" smooth="yes"/>
      <point x="266" y="245" type="line"/>
      <point x="343" y="245" type="line" smooth="yes"/>
      <point x="366" y="245"/>
      <point x="394" y="267"/>
      <point x="400" y="292" type="curve"/>
      <point x="405" y="318"/>
      <point x="386" y="339"/>
      <point x="363" y="339" type="curve" smooth="yes"/>
      <point x="286" y="339" type="line"/>
      <point x="300" y="405" type="line"/>
      <point x="304" y="428"/>
      <point x="289" y="451"/>
      <point x="263" y="451" type="curve" smooth="yes"/>
      <point x="233" y="451"/>
      <point x="211" y="428"/>
      <point x="207" y="405" type="curve"/>
      <point x="193" y="339" type="line"/>
      <point x="116" y="339" type="line" smooth="yes"/>
      <point x="92" y="339"/>
      <point x="65" y="316"/>
      <point x="60" y="292" type="curve" smooth="yes"/>
    </contour>
    <contour>
      <point x="16" y="16"/>
      <point x="34" y="-1"/>
      <point x="58" y="-1" type="curve" smooth="yes"/>
      <point x="275" y="-1" type="line" smooth="yes"/>
      <point x="300" y="-1"/>
      <point x="325" y="18"/>
      <point x="331" y="46" type="curve" smooth="yes"/>
      <point x="337" y="71"/>
      <point x="320" y="93"/>
      <point x="295" y="93" type="curve" smooth="yes"/>
      <point x="78" y="93" type="line" smooth="yes"/>
      <point x="54" y="93"/>
      <point x="28" y="73"/>
      <point x="22" y="46" type="curve" smooth="yes"/>
    </contour>
  </outline>
</glyph>
<glyph name="twosuperior" format="1">
  <advance width="266"/>
  <unicode hex="00B2"/>
  <outline>
    <contour>
      <point x="241" y="402" type="line" smooth="yes"/>
      <point x="262" y="402"/>
      <point x="289" y="423"/>
      <point x="294" y="446" type="curve" smooth="yes"/>
      <point x="300" y="474"/>
      <point x="279" y="491"/>
      <point x="260" y="491" type="curve" smooth="yes"/>
      <point x="142" y="491" type="line"/>
      <point x="156" y="519"/>
      <point x="193" y="543"/>
      <point x="222" y="559" type="curve" smooth="yes"/>
      <point x="273" y="585"/>
      <point x="325" y="614"/>
      <point x="340" y="683" type="curve" smooth="yes"/>
      <point x="355" y="755"/>
      <point x="304" y="796"/>
      <point x="240" y="796" type="curve" smooth="yes"/>
      <point x="183" y="796"/>
      <point x="130" y="757"/>
      <point x="107" y="735" type="curve" smooth="yes"/>
      <point x="96" y="725"/>
      <point x="92" y="715"/>
      <point x="91" y="706" type="curve"/>
      <point x="85" y="679"/>
      <point x="97" y="663"/>
      <point x="124" y="663" type="curve" smooth="yes"/>
      <point x="142" y="663"/>
      <point x="151" y="670"/>
      <point x="168" y="685" type="curve"/>
      <point x="179" y="694"/>
      <point x="201" y="709"/>
      <point x="222" y="709" type="curve" smooth="yes"/>
      <point x="244" y="709"/>
      <point x="256" y="697"/>
      <point x="253" y="683" type="curve" smooth="yes"/>
      <point x="249" y="666"/>
      <point x="236" y="653"/>
      <point x="218" y="644" type="curve" smooth="yes"/>
      <point x="110" y="588"/>
      <point x="59" y="547"/>
      <point x="37" y="446" type="curve" smooth="yes"/>
      <point x="28" y="402" type="line"/>
    </contour>
  </outline>
</glyph>
<glyph name="onesuperior" format="1">
  <advance width="192"/>
  <unicode hex="00B9"/>
  <outline>
    <contour>
      <point x="177" y="403" type="line" smooth="yes"/>
      <point x="198" y="403"/>
      <point x="224" y="419"/>
      <point x="230" y="447" type="curve"/>
      <point x="234" y="470"/>
      <point x="223" y="491"/>
      <point x="201" y="491" type="curve" smooth="yes"/>
      <point x="189" y="491" type="line"/>
      <point x="250" y="754" type="line"/>
      <point x="256" y="785"/>
      <point x="239" y="799"/>
      <point x="214" y="799" type="curve" smooth="yes"/>
      <point x="203" y="799"/>
      <point x="191" y="794"/>
      <point x="180" y="784" type="curve" smooth="yes"/>
      <point x="101" y="715" type="line" smooth="yes"/>
      <point x="91" y="706"/>
      <point x="86" y="696"/>
      <point x="84" y="685" type="curve" smooth="yes"/>
      <point x="79" y="660"/>
      <point x="99" y="642"/>
      <point x="118" y="642" type="curve" smooth="yes"/>
      <point x="125" y="642"/>
      <point x="131" y="643"/>
      <point x="138" y="645" type="curve"/>
      <point x="102" y="491" type="line"/>
      <point x="89" y="491" type="line" smooth="yes"/>
      <point x="66" y="491"/>
      <point x="41" y="473"/>
      <point x="36" y="447" type="curve" smooth="yes"/>
      <point x="31" y="424"/>
      <point x="40" y="403"/>
      <point x="70" y="403" type="curve" smooth="yes"/>
    </contour>
  </outline>
</glyph>
<glyph name="guillemotright" format="1">
  <advance width="617"/>
  <unicode hex="00BB"/>
  <outline>
    <contour>
      <point x="506" y="213" type="line" smooth="yes"/>
      <point x="519" y="223"/>
      <point x="527" y="237"/>
      <point x="530" y="250" type="curve"/>
      <point x="532" y="262"/>
      <point x="529" y="277"/>
      <point x="520" y="286" type="curve" smooth="yes"/>
      <point x="387" y="427" type="line" smooth="yes"/>
      <point x="378" y="436"/>
      <point x="370" y="439"/>
      <point x="359" y="439" type="curve" smooth="yes"/>
      <point x="335" y="439"/>
      <point x="306" y="418"/>
      <point x="301" y="391" type="curve"/>
      <point x="297" y="376"/>
      <point x="297" y="366"/>
      <point x="309" y="354" type="curve" smooth="yes"/>
      <point x="408" y="249" type="line"/>
      <point x="280" y="153" type="line" smooth="yes"/>
      <point x="267" y="143"/>
      <point x="259" y="129"/>
      <point x="256" y="116" type="curve"/>
      <point x="251" y="90"/>
      <point x="269" y="69"/>
      <point x="294" y="69" type="curve" smooth="yes"/>
      <point x="306" y="69"/>
      <point x="317" y="72"/>
      <point x="330" y="81" type="curve"/>
    </contour>
    <contour>
      <point x="276" y="213" type="line" smooth="yes"/>
      <point x="289" y="223"/>
      <point x="297" y="237"/>
      <point x="300" y="250" type="curve"/>
      <point x="302" y="262"/>
      <point x="299" y="277"/>
      <point x="290" y="286" type="curve" smooth="yes"/>
      <point x="157" y="427" type="line" smooth="yes"/>
      <point x="148" y="436"/>
      <point x="140" y="439"/>
      <point x="129" y="439" type="curve" smooth="yes"/>
      <point x="105" y="439"/>
      <point x="76" y="418"/>
      <point x="71" y="391" type="curve"/>
      <point x="67" y="376"/>
      <point x="67" y="366"/>
      <point x="79" y="354" type="curve" smooth="yes"/>
      <point x="178" y="249" type="line"/>
      <point x="50" y="153" type="line" smooth="yes"/>
      <point x="37" y="143"/>
      <point x="29" y="129"/>
      <point x="26" y="116" type="curve"/>
      <point x="21" y="90"/>
      <point x="39" y="69"/>
      <point x="64" y="69" type="curve" smooth="yes"/>
      <point x="76" y="69"/>
      <point x="87" y="72"/>
      <point x="100" y="81" type="curve"/>
    </contour>
  </outline>
</glyph>
<glyph name="questiondown" format="1">
  <advance width="559"/>
  <unicode hex="00BF"/>
  <outline>
    <contour>
      <point x="362" y="268"/>
      <point x="371" y="282"/>
      <point x="374" y="295" type="curve" smooth="yes"/>
      <point x="380" y="321"/>
      <point x="363" y="342"/>
      <point x="337" y="342" type="curve" smooth="yes"/>
      <point x="325" y="342"/>
      <point x="313" y="340"/>
      <point x="173" y="236" type="curve" smooth="yes"/>
      <point x="106" y="186"/>
      <point x="28" y="127"/>
      <point x="9" y="35" type="curve" smooth="yes"/>
      <point x="-18" y="-91"/>
      <point x="50" y="-170"/>
      <point x="183" y="-170" type="curve" smooth="yes"/>
      <point x="259" y="-170"/>
      <point x="331" y="-129"/>
      <point x="370" y="-95" type="curve" smooth="yes"/>
      <point x="385" y="-81"/>
      <point x="402" y="-65"/>
      <point x="405" y="-49" type="curve" smooth="yes"/>
      <point x="411" y="-20"/>
      <point x="392" y="-1"/>
      <point x="367" y="-1" type="curve" smooth="yes"/>
      <point x="355" y="-1"/>
      <point x="342" y="-5"/>
      <point x="333" y="-14" type="curve"/>
      <point x="302" y="-42"/>
      <point x="260" y="-76"/>
      <point x="208" y="-76" type="curve" smooth="yes"/>
      <point x="112" y="-76"/>
      <point x="91" y="-16"/>
      <point x="100" y="28" type="curve" smooth="yes"/>
      <point x="116" y="103"/>
      <point x="196" y="153"/>
      <point x="290" y="219" type="curve" smooth="yes"/>
      <point x="312" y="235"/>
      <point x="334" y="248"/>
      <point x="350" y="259" type="curve"/>
    </contour>
    <contour>
      <point x="371" y="501"/>
      <point x="337" y="472"/>
      <point x="329" y="436" type="curve" smooth="yes"/>
      <point x="323" y="405"/>
      <point x="339" y="380"/>
      <point x="369" y="380" type="curve" smooth="yes"/>
      <point x="399" y="380"/>
      <point x="435" y="411"/>
      <point x="442" y="444" type="curve" smooth="yes"/>
      <point x="449" y="476"/>
      <point x="433" y="501"/>
      <point x="402" y="501" type="curve" smooth="yes"/>
    </contour>
  </outline>
</glyph>
<glyph name="Atilde" format="1">
  <advance width="650"/>
  <unicode hex="00C3"/>
  <outline>
    <contour>
      <point x="563" y="817"/>
      <point x="532" y="793"/>
      <point x="511" y="793" type="curve" smooth="yes"/>
      <point x="496" y="793"/>
      <point x="488" y="807"/>
      <point x="477" y="829" type="curve" smooth="yes"/>
      <point x="461" y="860"/>
      <point x="439" y="877"/>
      <point x="400" y="877" type="curve" smooth="yes"/>
      <point x="322" y="877"/>
      <point x="269" y="810"/>
      <point x="240" y="753" type="curve" smooth="yes"/>
      <point x="234" y="742"/>
      <point x="233" y="735"/>
      <point x="232" y="731" type="curve" smooth="yes"/>
      <point x="227" y="708"/>
      <point x="245" y="698"/>
      <point x="264" y="698" type="curve" smooth="yes"/>
      <point x="279" y="698"/>
      <point x="289" y="705"/>
      <point x="298" y="720" type="curve"/>
      <point x="306" y="736"/>
      <point x="334" y="788"/>
      <point x="369" y="788" type="curve" smooth="yes"/>
      <point x="384" y="788"/>
      <point x="392" y="776"/>
      <point x="404" y="753" type="curve" smooth="yes"/>
      <point x="419" y="722"/>
      <point x="442" y="705"/>
      <point x="474" y="705" type="curve" smooth="yes"/>
      <point x="575" y="705"/>
      <point x="632" y="807"/>
      <point x="649" y="838" type="curve"/>
      <point x="654" y="849"/>
      <point x="655" y="856"/>
      <point x="656" y="860" type="curve" smooth="yes"/>
      <point x="661" y="883"/>
      <point x="643" y="893"/>
      <point x="624" y="893" type="curve" smooth="yes"/>
      <point x="609" y="893"/>
      <point x="596" y="886"/>
      <point x="589" y="871" type="curve" smooth="yes"/>
    </contour>
    <contour>
      <point x="459" y="655" type="line" smooth="yes"/>
      <point x="456" y="679"/>
      <point x="440" y="688"/>
      <point x="420" y="688" type="curve" smooth="yes"/>
      <point x="400" y="688"/>
      <point x="378" y="677"/>
      <point x="366" y="657" type="curve" smooth="yes"/>
      <point x="138" y="281" type="line"/>
      <point x="100" y="273" type="line" smooth="yes"/>
      <point x="76" y="268"/>
      <point x="56" y="249"/>
      <point x="51" y="225" type="curve" smooth="yes"/>
      <point x="46" y="201"/>
      <point x="57" y="184"/>
      <point x="76" y="177" type="curve"/>
      <point x="9" y="67" type="line" smooth="yes"/>
      <point x="6" y="62"/>
      <point x="3" y="56"/>
      <point x="2" y="49" type="curve"/>
      <point x="-3" y="25"/>
      <point x="12" y="0"/>
      <point x="42" y="0" type="curve" smooth="yes"/>
      <point x="66" y="0"/>
      <point x="84" y="15"/>
      <point x="94" y="32" type="curve" smooth="yes"/>
      <point x="194" y="196" type="line"/>
      <point x="408" y="241" type="line"/>
      <point x="436" y="33" type="line" smooth="yes"/>
      <point x="439" y="8"/>
      <point x="451" y="-1"/>
      <point x="475" y="-1" type="curve" smooth="yes"/>
      <point x="505" y="-1"/>
      <point x="530" y="22"/>
      <point x="536" y="48" type="curve" smooth="yes"/>
      <point x="537" y="53"/>
      <point x="537" y="61"/>
      <point x="537" y="67" type="curve"/>
    </contour>
    <contour>
      <point x="260" y="306" type="line"/>
      <point x="375" y="495" type="line"/>
      <point x="394" y="334" type="line"/>
    </contour>
  </outline>
</glyph>
<glyph name="Aring" format="1">
  <advance width="650"/>
  <unicode hex="00C5"/>
  <outline>
    <contour>
      <point x="493" y="712"/>
      <point x="578" y="755"/>
      <point x="595" y="833" type="curve" smooth="yes"/>
      <point x="609" y="900"/>
      <point x="557" y="942"/>
      <point x="489" y="942" type="curve" smooth="yes"/>
      <point x="414" y="942"/>
      <point x="329" y="897"/>
      <point x="313" y="820" type="curve" smooth="yes"/>
      <point x="299" y="754"/>
      <point x="349" y="712"/>
      <point x="420" y="712" type="curve" smooth="yes"/>
    </contour>
    <contour>
      <point x="495" y="862"/>
      <point x="511" y="846"/>
      <point x="508" y="831" type="curve" smooth="yes"/>
      <point x="503" y="806"/>
      <point x="468" y="791"/>
      <point x="445" y="791" type="curve" smooth="yes"/>
      <point x="415" y="791"/>
      <point x="395" y="802"/>
      <point x="399" y="820" type="curve" smooth="yes"/>
      <point x="403" y="838"/>
      <point x="432" y="862"/>
      <point x="468" y="862" type="curve" smooth="yes"/>
    </contour>
    <contour>
      <point x="459" y="655" type="line" smooth="yes"/>
      <point x="456" y="679"/>
      <point x="440" y="688"/>
      <point x="420" y="688" type="curve" smooth="yes"/>
      <point x="400" y="688"/>
      <point x="378" y="677"/>
      <point x="366" y="657" type="curve" smooth="yes"/>
      <point x="138" y="281" type="line"/>
      <point x="100" y="273" type="line" smooth="yes"/>
      <point x="76" y="268"/>
      <point x="56" y="249"/>
      <point x="51" y="225" type="curve" smooth="yes"/>
      <point x="46" y="201"/>
      <point x="57" y="184"/>
      <point x="76" y="177" type="curve"/>
      <point x="9" y="67" type="line" smooth="yes"/>
      <point x="6" y="62"/>
      <point x="3" y="56"/>
      <point x="2" y="49" type="curve"/>
      <point x="-3" y="25"/>
      <point x="12" y="0"/>
      <point x="42" y="0" type="curve" smooth="yes"/>
      <point x="66" y="0"/>
      <point x="84" y="15"/>
      <point x="94" y="32" type="curve" smooth="yes"/>
      <point x="194" y="196" type="line"/>
      <point x="408" y="241" type="line"/>
      <point x="436" y="33" type="line" smooth="yes"/>
      <point x="439" y="8"/>
      <point x="451" y="-1"/>
      <point x="475" y="-1" type="curve" smooth="yes"/>
      <point x="505" y="-1"/>
      <point x="530" y="22"/>
      <point x="536" y="48" type="curve" smooth="yes"/>
      <point x="537" y="53"/>
      <point x="537" y="61"/>
      <point x="537" y="67" type="curve"/>
    </contour>
    <contour>
      <point x="260" y="306" type="line"/>
      <point x="375" y="495" type="line"/>
      <point x="394" y="334" type="line"/>
    </contour>
  </outline>
</glyph>
<glyph name="AE" format="1">
  <advance width="1066"/>
  <unicode hex="00C6"/>
  <outline>
    <contour>
      <point x="261" y="331" type="line"/>
      <point x="201" y="319" type="line" smooth="yes"/>
      <point x="176" y="314"/>
      <point x="156" y="295"/>
      <point x="151" y="272" type="curve" smooth="yes"/>
      <point x="147" y="254"/>
      <point x="154" y="238"/>
      <point x="166" y="229" type="curve"/>
      <point x="23" y="73" type="line" smooth="yes"/>
      <point x="13" y="62"/>
      <point x="10" y="55"/>
      <point x="8" y="45" type="curve" smooth="yes"/>
      <point x="3" y="20"/>
      <point x="21" y="-3"/>
      <point x="46" y="-3" type="curve" smooth="yes"/>
      <point x="60" y="-3"/>
      <point x="76" y="3"/>
      <point x="89" y="17" type="curve" smooth="yes"/>
      <point x="297" y="243" type="line"/>
      <point x="474" y="279" type="line"/>
      <point x="425" y="48" type="line" smooth="yes"/>
      <point x="419" y="21"/>
      <point x="437" y="0"/>
      <point x="464" y="0" type="curve" smooth="yes"/>
      <point x="863" y="0" type="line" smooth="yes"/>
      <point x="892" y="0"/>
      <point x="916" y="21"/>
      <point x="922" y="48" type="curve" smooth="yes"/>
      <point x="928" y="77"/>
      <point x="912" y="97"/>
      <point x="883" y="97" type="curve" smooth="yes"/>
      <point x="532" y="97" type="line"/>
      <point x="573" y="289" type="line"/>
      <point x="878" y="288" type="line" smooth="yes"/>
      <point x="905" y="288"/>
      <point x="930" y="309"/>
      <point x="936" y="337" type="curve" smooth="yes"/>
      <point x="941" y="362"/>
      <point x="926" y="386"/>
      <point x="899" y="386" type="curve" smooth="yes"/>
      <point x="594" y="386" type="line"/>
      <point x="636" y="584" type="line"/>
      <point x="987" y="584" type="line" smooth="yes"/>
      <point x="1016" y="584"/>
      <point x="1041" y="607"/>
      <point x="1046" y="632" type="curve" smooth="yes"/>
      <point x="1052" y="661"/>
      <point x="1036" y="681"/>
      <point x="1007" y="681" type="curve" smooth="yes"/>
      <point x="605" y="681" type="line" smooth="yes"/>
      <point x="586" y="681"/>
      <point x="572" y="668"/>
      <point x="565" y="660" type="curve" smooth="yes"/>
    </contour>
    <contour>
      <point x="405" y="359" type="line"/>
      <point x="517" y="481" type="line"/>
      <point x="494" y="376" type="line"/>
    </contour>
  </outline>
</glyph>
<glyph name="Ccedilla" format="1">
  <advance width="658"/>
  <unicode hex="00C7"/>
  <outline>
    <contour>
      <point x="380" y="-2"/>
      <point x="474" y="41"/>
      <point x="548" y="117" type="curve"/>
      <point x="557" y="127"/>
      <point x="562" y="137"/>
      <point x="564" y="147" type="curve" smooth="yes"/>
      <point x="571" y="179"/>
      <point x="550" y="197"/>
      <point x="524" y="197" type="curve" smooth="yes"/>
      <point x="509" y="197"/>
      <point x="497" y="193"/>
      <point x="481" y="177" type="curve" smooth="yes"/>
      <point x="425" y="119"/>
      <point x="364" y="98"/>
      <point x="304" y="98" type="curve" smooth="yes"/>
      <point x="229" y="98"/>
      <point x="125" y="156"/>
      <point x="155" y="299" type="curve" smooth="yes"/>
      <point x="185" y="441"/>
      <point x="322" y="584"/>
      <point x="415" y="584" type="curve" smooth="yes"/>
      <point x="477" y="584"/>
      <point x="501" y="564"/>
      <point x="516" y="547" type="curve"/>
      <point x="512" y="521"/>
      <point x="529" y="501"/>
      <point x="556" y="501" type="curve" smooth="yes"/>
      <point x="584" y="501"/>
      <point x="611" y="524"/>
      <point x="617" y="551" type="curve" smooth="yes"/>
      <point x="629" y="611" type="line" smooth="yes"/>
      <point x="635" y="639"/>
      <point x="618" y="660"/>
      <point x="590" y="660" type="curve" smooth="yes"/>
      <point x="580" y="660"/>
      <point x="573" y="659"/>
      <point x="562" y="653" type="curve"/>
      <point x="536" y="669"/>
      <point x="494" y="684"/>
      <point x="436" y="684" type="curve" smooth="yes"/>
      <point x="296" y="684"/>
      <point x="98" y="501"/>
      <point x="55" y="299" type="curve" smooth="yes"/>
      <point x="23" y="148"/>
      <point x="100" y="30"/>
      <point x="227" y="3" type="curve"/>
      <point x="221" y="-7"/>
      <point x="215" y="-20"/>
      <point x="208" y="-35" type="curve" smooth="yes"/>
      <point x="199" y="-53"/>
      <point x="198" y="-69"/>
      <point x="216" y="-73" type="curve" smooth="yes"/>
      <point x="263" y="-83" type="line" smooth="yes"/>
      <point x="278" y="-86"/>
      <point x="285" y="-94"/>
      <point x="282" y="-106" type="curve" smooth="yes"/>
      <point x="279" y="-118"/>
      <point x="269" y="-132"/>
      <point x="253" y="-132" type="curve" smooth="yes"/>
      <point x="244" y="-132"/>
      <point x="239" y="-130"/>
      <point x="235" y="-126" type="curve"/>
      <point x="226" y="-118"/>
      <point x="221" y="-109"/>
      <point x="204" y="-109" type="curve" smooth="yes"/>
      <point x="181" y="-109"/>
      <point x="164" y="-131"/>
      <point x="160" y="-148" type="curve" smooth="yes"/>
      <point x="153" y="-180"/>
      <point x="191" y="-196"/>
      <point x="229" y="-196" type="curve" smooth="yes"/>
      <point x="287" y="-196"/>
      <point x="340" y="-168"/>
      <point x="352" y="-110" type="curve" smooth="yes"/>
      <point x="363" y="-61"/>
      <point x="337" y="-37"/>
      <point x="279" y="-27" type="curve"/>
      <point x="281" y="-18"/>
      <point x="282" y="-11"/>
      <point x="283" y="-2" type="curve"/>
    </contour>
  </outline>
</glyph>
<glyph name="Egrave" format="1">
  <advance width="636"/>
  <unicode hex="00C8"/>
  <outline>
    <contour>
      <point x="126" y="100" type="line"/>
      <point x="169" y="302" type="line"/>
      <point x="473" y="302" type="line" smooth="yes"/>
      <point x="501" y="302"/>
      <point x="526" y="324"/>
      <point x="532" y="352" type="curve" smooth="yes"/>
      <point x="538" y="380"/>
      <point x="522" y="401"/>
      <point x="494" y="401" type="curve" smooth="yes"/>
      <point x="190" y="401" type="line"/>
      <point x="228" y="582" type="line"/>
      <point x="578" y="582" type="line" smooth="yes"/>
      <point x="606" y="582"/>
      <point x="632" y="605"/>
      <point x="638" y="632" type="curve" smooth="yes"/>
      <point x="644" y="660"/>
      <point x="627" y="682"/>
      <point x="599" y="682" type="curve" smooth="yes"/>
      <point x="200" y="682" type="line" smooth="yes"/>
      <point x="172" y="682"/>
      <point x="146" y="660"/>
      <point x="140" y="632" type="curve" smooth="yes"/>
      <point x="16" y="50" type="line" smooth="yes"/>
      <point x="10" y="22"/>
      <point x="28" y="0"/>
      <point x="56" y="0" type="curve" smooth="yes"/>
      <point x="453" y="0" type="line" smooth="yes"/>
      <point x="481" y="0"/>
      <point x="506" y="22"/>
      <point x="512" y="50" type="curve" smooth="yes"/>
      <point x="518" y="78"/>
      <point x="502" y="100"/>
      <point x="474" y="100" type="curve" smooth="yes"/>
    </contour>
    <contour>
      <point x="401" y="713" type="line"/>
      <point x="407" y="704"/>
      <point x="417" y="698"/>
      <point x="432" y="698" type="curve" smooth="yes"/>
      <point x="456" y="698"/>
      <point x="484" y="718"/>
      <point x="490" y="745" type="curve" smooth="yes"/>
      <point x="492" y="755"/>
      <point x="491" y="763"/>
      <point x="484" y="775" type="curve" smooth="yes"/>
      <point x="415" y="894" type="line"/>
      <point x="407" y="906"/>
      <point x="393" y="916"/>
      <point x="375" y="916" type="curve" smooth="yes"/>
      <point x="347" y="916"/>
      <point x="316" y="890"/>
      <point x="310" y="862" type="curve" smooth="yes"/>
      <point x="306" y="846"/>
      <point x="310" y="834"/>
      <point x="318" y="824" type="curve" smooth="yes"/>
    </contour>
  </outline>
</glyph>
<glyph name="Eacute" format="1">
  <advance width="636"/>
  <unicode hex="00C9"/>
  <outline>
    <contour>
      <point x="126" y="100" type="line"/>
      <point x="169" y="302" type="line"/>
      <point x="473" y="302" type="line" smooth="yes"/>
      <point x="501" y="302"/>
      <point x="526" y="324"/>
      <point x="532" y="352" type="curve" smooth="yes"/>
      <point x="538" y="380"/>
      <point x="522" y="401"/>
      <point x="494" y="401" type="curve" smooth="yes"/>
      <point x="190" y="401" type="line"/>
      <point x="228" y="582" type="line"/>
      <point x="578" y="582" type="line" smooth="yes"/>
      <point x="606" y="582"/>
      <point x="632" y="605"/>
      <point x="638" y="632" type="curve" smooth="yes"/>
      <point x="644" y="660"/>
      <point x="627" y="682"/>
      <point x="599" y="682" type="curve" smooth="yes"/>
      <point x="200" y="682" type="line" smooth="yes"/>
      <point x="172" y="682"/>
      <point x="146" y="660"/>
      <point x="140" y="632" type="curve" smooth="yes"/>
      <point x="16" y="50" type="line" smooth="yes"/>
      <point x="10" y="22"/>
      <point x="28" y="0"/>
      <point x="56" y="0" type="curve" smooth="yes"/>
      <point x="453" y="0" type="line" smooth="yes"/>
      <point x="481" y="0"/>
      <point x="506" y="22"/>
      <point x="512" y="50" type="curve" smooth="yes"/>
      <point x="518" y="78"/>
      <point x="502" y="100"/>
      <point x="474" y="100" type="curve" smooth="yes"/>
    </contour>
    <contour>
      <point x="330" y="790" type="line"/>
      <point x="318" y="781"/>
      <point x="313" y="768"/>
      <point x="310" y="757" type="curve"/>
      <point x="305" y="730"/>
      <point x="322" y="709"/>
      <point x="346" y="709" type="curve" smooth="yes"/>
      <point x="357" y="709"/>
      <point x="370" y="715"/>
      <point x="382" y="722" type="curve" smooth="yes"/>
      <point x="524" y="807" type="line" smooth="yes"/>
      <point x="540" y="817"/>
      <point x="548" y="832"/>
      <point x="552" y="847" type="curve"/>
      <point x="558" y="878"/>
      <point x="540" y="902"/>
      <point x="510" y="902" type="curve" smooth="yes"/>
      <point x="493" y="902"/>
      <point x="477" y="891"/>
      <point x="465" y="883" type="curve" smooth="yes"/>
    </contour>
  </outline>
</glyph>
<glyph name="Ecircumflex" format="1">
  <advance width="636"/>
  <unicode hex="00CA"/>
  <outline>
    <contour>
      <point x="126" y="100" type="line"/>
      <point x="169" y="302" type="line"/>
      <point x="473" y="302" type="line" smooth="yes"/>
      <point x="501" y="302"/>
      <point x="526" y="324"/>
      <point x="532" y="352" type="curve" smooth="yes"/>
      <point x="538" y="380"/>
      <point x="522" y="401"/>
      <point x="494" y="401" type="curve" smooth="yes"/>
      <point x="190" y="401" type="line"/>
      <point x="228" y="582" type="line"/>
      <point x="578" y="582" type="line" smooth="yes"/>
      <point x="606" y="582"/>
      <point x="632" y="605"/>
      <point x="638" y="632" type="curve" smooth="yes"/>
      <point x="644" y="660"/>
      <point x="627" y="682"/>
      <point x="599" y="682" type="curve" smooth="yes"/>
      <point x="200" y="682" type="line" smooth="yes"/>
      <point x="172" y="682"/>
      <point x="146" y="660"/>
      <point x="140" y="632" type="curve" smooth="yes"/>
      <point x="16" y="50" type="line" smooth="yes"/>
      <point x="10" y="22"/>
      <point x="28" y="0"/>
      <point x="56" y="0" type="curve" smooth="yes"/>
      <point x="453" y="0" type="line" smooth="yes"/>
      <point x="481" y="0"/>
      <point x="506" y="22"/>
      <point x="512" y="50" type="curve" smooth="yes"/>
      <point x="518" y="78"/>
      <point x="502" y="100"/>
      <point x="474" y="100" type="curve" smooth="yes"/>
    </contour>
    <contour>
      <point x="293" y="786" type="line" smooth="yes"/>
      <point x="278" y="776"/>
      <point x="270" y="763"/>
      <point x="267" y="750" type="curve" smooth="yes"/>
      <point x="261" y="723"/>
      <point x="279" y="703"/>
      <point x="304" y="703" type="curve" smooth="yes"/>
      <point x="314" y="703"/>
      <point x="322" y="704"/>
      <point x="335" y="712" type="curve" smooth="yes"/>
      <point x="439" y="781" type="line"/>
      <point x="497" y="715" type="line" smooth="yes"/>
      <point x="506" y="705"/>
      <point x="516" y="703"/>
      <point x="528" y="703" type="curve" smooth="yes"/>
      <point x="553" y="703"/>
      <point x="579" y="725"/>
      <point x="584" y="750" type="curve" smooth="yes"/>
      <point x="587" y="763"/>
      <point x="585" y="774"/>
      <point x="577" y="784" type="curve" smooth="yes"/>
      <point x="502" y="880" type="line" smooth="yes"/>
      <point x="492" y="892"/>
      <point x="479" y="898"/>
      <point x="467" y="898" type="curve" smooth="yes"/>
      <point x="458" y="898"/>
      <point x="446" y="895"/>
      <point x="433" y="886" type="curve" smooth="yes"/>
    </contour>
  </outline>
</glyph>
<glyph name="Edieresis" format="1">
  <advance width="636"/>
  <unicode hex="00CB"/>
  <outline>
    <contour>
      <point x="404" y="801"/>
      <point x="377" y="827"/>
      <point x="343" y="827" type="curve" smooth="yes"/>
      <point x="304" y="827"/>
      <point x="267" y="796"/>
      <point x="259" y="762" type="curve" smooth="yes"/>
      <point x="252" y="727"/>
      <point x="275" y="703"/>
      <point x="312" y="703" type="curve" smooth="yes"/>
      <point x="352" y="703"/>
      <point x="389" y="732"/>
      <point x="397" y="767" type="curve" smooth="yes"/>
    </contour>
    <contour>
      <point x="592" y="801"/>
      <point x="565" y="827"/>
      <point x="531" y="827" type="curve" smooth="yes"/>
      <point x="492" y="827"/>
      <point x="455" y="796"/>
      <point x="447" y="762" type="curve" smooth="yes"/>
      <point x="440" y="727"/>
      <point x="464" y="703"/>
      <point x="500" y="703" type="curve" smooth="yes"/>
      <point x="540" y="703"/>
      <point x="577" y="732"/>
      <point x="585" y="767" type="curve" smooth="yes"/>
    </contour>
    <contour>
      <point x="126" y="100" type="line"/>
      <point x="169" y="302" type="line"/>
      <point x="473" y="302" type="line" smooth="yes"/>
      <point x="501" y="302"/>
      <point x="526" y="324"/>
      <point x="532" y="352" type="curve" smooth="yes"/>
      <point x="538" y="380"/>
      <point x="522" y="401"/>
      <point x="494" y="401" type="curve" smooth="yes"/>
      <point x="190" y="401" type="line"/>
      <point x="228" y="582" type="line"/>
      <point x="578" y="582" type="line" smooth="yes"/>
      <point x="606" y="582"/>
      <point x="632" y="605"/>
      <point x="638" y="632" type="curve" smooth="yes"/>
      <point x="644" y="660"/>
      <point x="627" y="682"/>
      <point x="599" y="682" type="curve" smooth="yes"/>
      <point x="200" y="682" type="line" smooth="yes"/>
      <point x="172" y="682"/>
      <point x="146" y="660"/>
      <point x="140" y="632" type="curve" smooth="yes"/>
      <point x="16" y="50" type="line" smooth="yes"/>
      <point x="10" y="22"/>
      <point x="28" y="0"/>
      <point x="56" y="0" type="curve" smooth="yes"/>
      <point x="453" y="0" type="line" smooth="yes"/>
      <point x="481" y="0"/>
      <point x="506" y="22"/>
      <point x="512" y="50" type="curve" smooth="yes"/>
      <point x="518" y="78"/>
      <point x="502" y="100"/>
      <point x="474" y="100" type="curve" smooth="yes"/>
    </contour>
  </outline>
</glyph>
<glyph name="Igrave" format="1">
  <advance width="459"/>
  <unicode hex="00CC"/>
  <outline>
    <contour>
      <point x="239" y="99" type="line"/>
      <point x="341" y="581" type="line"/>
      <point x="410" y="581" type="line" smooth="yes"/>
      <point x="438" y="581"/>
      <point x="464" y="604"/>
      <point x="470" y="632" type="curve" smooth="yes"/>
      <point x="476" y="660"/>
      <point x="459" y="681"/>
      <point x="431" y="681" type="curve" smooth="yes"/>
      <point x="192" y="681" type="line" smooth="yes"/>
      <point x="164" y="681"/>
      <point x="138" y="660"/>
      <point x="132" y="632" type="curve" smooth="yes"/>
      <point x="126" y="604"/>
      <point x="143" y="581"/>
      <point x="171" y="581" type="curve" smooth="yes"/>
      <point x="241" y="581" type="line"/>
      <point x="139" y="99" type="line"/>
      <point x="69" y="99" type="line" smooth="yes"/>
      <point x="41" y="99"/>
      <point x="14" y="77"/>
      <point x="8" y="49" type="curve" smooth="yes"/>
      <point x="2" y="21"/>
      <point x="19" y="-1"/>
      <point x="47" y="-1" type="curve" smooth="yes"/>
      <point x="286" y="-1" type="line" smooth="yes"/>
      <point x="314" y="-1"/>
      <point x="340" y="21"/>
      <point x="346" y="49" type="curve" smooth="yes"/>
      <point x="352" y="77"/>
      <point x="338" y="99"/>
      <point x="308" y="99" type="curve" smooth="yes"/>
    </contour>
    <contour>
      <point x="333" y="713" type="line"/>
      <point x="339" y="704"/>
      <point x="349" y="698"/>
      <point x="364" y="698" type="curve" smooth="yes"/>
      <point x="388" y="698"/>
      <point x="416" y="718"/>
      <point x="422" y="745" type="curve" smooth="yes"/>
      <point x="424" y="755"/>
      <point x="423" y="763"/>
      <point x="416" y="775" type="curve" smooth="yes"/>
      <point x="347" y="894" type="line"/>
      <point x="339" y="906"/>
      <point x="325" y="916"/>
      <point x="307" y="916" type="curve" smooth="yes"/>
      <point x="279" y="916"/>
      <point x="248" y="890"/>
      <point x="242" y="862" type="curve" smooth="yes"/>
      <point x="238" y="846"/>
      <point x="242" y="834"/>
      <point x="250" y="824" type="curve" smooth="yes"/>
    </contour>
  </outline>
</glyph>
<glyph name="Icircumflex" format="1">
  <advance width="459"/>
  <unicode hex="00CE"/>
  <outline>
    <contour>
      <point x="239" y="99" type="line"/>
      <point x="341" y="581" type="line"/>
      <point x="410" y="581" type="line" smooth="yes"/>
      <point x="438" y="581"/>
      <point x="464" y="604"/>
      <point x="470" y="632" type="curve" smooth="yes"/>
      <point x="476" y="660"/>
      <point x="459" y="681"/>
      <point x="431" y="681" type="curve" smooth="yes"/>
      <point x="192" y="681" type="line" smooth="yes"/>
      <point x="164" y="681"/>
      <point x="138" y="660"/>
      <point x="132" y="632" type="curve" smooth="yes"/>
      <point x="126" y="604"/>
      <point x="143" y="581"/>
      <point x="171" y="581" type="curve" smooth="yes"/>
      <point x="241" y="581" type="line"/>
      <point x="139" y="99" type="line"/>
      <point x="69" y="99" type="line" smooth="yes"/>
      <point x="41" y="99"/>
      <point x="14" y="77"/>
      <point x="8" y="49" type="curve" smooth="yes"/>
      <point x="2" y="21"/>
      <point x="19" y="-1"/>
      <point x="47" y="-1" type="curve" smooth="yes"/>
      <point x="286" y="-1" type="line" smooth="yes"/>
      <point x="314" y="-1"/>
      <point x="340" y="21"/>
      <point x="346" y="49" type="curve" smooth="yes"/>
      <point x="352" y="77"/>
      <point x="338" y="99"/>
      <point x="308" y="99" type="curve" smooth="yes"/>
    </contour>
    <contour>
      <point x="198" y="786" type="line" smooth="yes"/>
      <point x="183" y="776"/>
      <point x="175" y="763"/>
      <point x="172" y="750" type="curve" smooth="yes"/>
      <point x="166" y="723"/>
      <point x="184" y="703"/>
      <point x="209" y="703" type="curve" smooth="yes"/>
      <point x="219" y="703"/>
      <point x="227" y="704"/>
      <point x="240" y="712" type="curve" smooth="yes"/>
      <point x="344" y="781" type="line"/>
      <point x="402" y="715" type="line" smooth="yes"/>
      <point x="411" y="705"/>
      <point x="421" y="703"/>
      <point x="433" y="703" type="curve" smooth="yes"/>
      <point x="458" y="703"/>
      <point x="484" y="725"/>
      <point x="489" y="750" type="curve" smooth="yes"/>
      <point x="492" y="763"/>
      <point x="490" y="774"/>
      <point x="482" y="784" type="curve" smooth="yes"/>
      <point x="407" y="880" type="line" smooth="yes"/>
      <point x="397" y="892"/>
      <point x="384" y="898"/>
      <point x="372" y="898" type="curve" smooth="yes"/>
      <point x="363" y="898"/>
      <point x="351" y="895"/>
      <point x="338" y="886" type="curve" smooth="yes"/>
    </contour>
  </outline>
</glyph>
<glyph name="Idieresis" format="1">
  <advance width="459"/>
  <unicode hex="00CF"/>
  <outline>
    <contour>
      <point x="316" y="801"/>
      <point x="289" y="827"/>
      <point x="255" y="827" type="curve" smooth="yes"/>
      <point x="216" y="827"/>
      <point x="179" y="796"/>
      <point x="171" y="762" type="curve" smooth="yes"/>
      <point x="164" y="727"/>
      <point x="188" y="703"/>
      <point x="224" y="703" type="curve" smooth="yes"/>
      <point x="264" y="703"/>
      <point x="301" y="732"/>
      <point x="309" y="767" type="curve" smooth="yes"/>
    </contour>
    <contour>
      <point x="504" y="801"/>
      <point x="477" y="827"/>
      <point x="444" y="827" type="curve" smooth="yes"/>
      <point x="404" y="827"/>
      <point x="367" y="796"/>
      <point x="359" y="762" type="curve" smooth="yes"/>
      <point x="352" y="727"/>
      <point x="376" y="703"/>
      <point x="412" y="703" type="curve" smooth="yes"/>
      <point x="452" y="703"/>
      <point x="489" y="732"/>
      <point x="497" y="767" type="curve" smooth="yes"/>
    </contour>
    <contour>
      <point x="239" y="99" type="line"/>
      <point x="341" y="581" type="line"/>
      <point x="410" y="581" type="line" smooth="yes"/>
      <point x="438" y="581"/>
      <point x="464" y="604"/>
      <point x="470" y="632" type="curve" smooth="yes"/>
      <point x="476" y="660"/>
      <point x="459" y="681"/>
      <point x="431" y="681" type="curve" smooth="yes"/>
      <point x="192" y="681" type="line" smooth="yes"/>
      <point x="164" y="681"/>
      <point x="138" y="660"/>
      <point x="132" y="632" type="curve" smooth="yes"/>
      <point x="126" y="604"/>
      <point x="143" y="581"/>
      <point x="171" y="581" type="curve" smooth="yes"/>
      <point x="241" y="581" type="line"/>
      <point x="139" y="99" type="line"/>
      <point x="69" y="99" type="line" smooth="yes"/>
      <point x="41" y="99"/>
      <point x="14" y="77"/>
      <point x="8" y="49" type="curve" smooth="yes"/>
      <point x="2" y="21"/>
      <point x="19" y="-1"/>
      <point x="47" y="-1" type="curve" smooth="yes"/>
      <point x="286" y="-1" type="line" smooth="yes"/>
      <point x="314" y="-1"/>
      <point x="340" y="21"/>
      <point x="346" y="49" type="curve" smooth="yes"/>
      <point x="352" y="77"/>
      <point x="338" y="99"/>
      <point x="308" y="99" type="curve" smooth="yes"/>
    </contour>
  </outline>
</glyph>
<glyph name="Ocircumflex" format="1">
  <advance width="686"/>
  <unicode hex="00D4"/>
  <outline>
    <contour>
      <point x="414" y="-2"/>
      <point x="586" y="166"/>
      <point x="628" y="365" type="curve" smooth="yes"/>
      <point x="665" y="538"/>
      <point x="587" y="682"/>
      <point x="440" y="682" type="curve" smooth="yes"/>
      <point x="283" y="682"/>
      <point x="111" y="514"/>
      <point x="68" y="315" type="curve" smooth="yes"/>
      <point x="32" y="144"/>
      <point x="107" y="-2"/>
      <point x="256" y="-2" type="curve" smooth="yes"/>
    </contour>
    <contour>
      <point x="511" y="587"/>
      <point x="556" y="475"/>
      <point x="532" y="361" type="curve" smooth="yes"/>
      <point x="501" y="216"/>
      <point x="379" y="93"/>
      <point x="276" y="93" type="curve" smooth="yes"/>
      <point x="184" y="93"/>
      <point x="139" y="194"/>
      <point x="164" y="315" type="curve" smooth="yes"/>
      <point x="197" y="466"/>
      <point x="311" y="587"/>
      <point x="414" y="587" type="curve" smooth="yes"/>
    </contour>
    <contour>
      <point x="328" y="786" type="line" smooth="yes"/>
      <point x="313" y="776"/>
      <point x="305" y="763"/>
      <point x="302" y="750" type="curve" smooth="yes"/>
      <point x="296" y="723"/>
      <point x="314" y="703"/>
      <point x="339" y="703" type="curve" smooth="yes"/>
      <point x="349" y="703"/>
      <point x="357" y="704"/>
      <point x="370" y="712" type="curve" smooth="yes"/>
      <point x="474" y="781" type="line"/>
      <point x="532" y="715" type="line" smooth="yes"/>
      <point x="541" y="705"/>
      <point x="551" y="703"/>
      <point x="563" y="703" type="curve" smooth="yes"/>
      <point x="588" y="703"/>
      <point x="614" y="725"/>
      <point x="619" y="750" type="curve" smooth="yes"/>
      <point x="622" y="763"/>
      <point x="620" y="774"/>
      <point x="612" y="784" type="curve" smooth="yes"/>
      <point x="537" y="880" type="line" smooth="yes"/>
      <point x="527" y="892"/>
      <point x="514" y="898"/>
      <point x="502" y="898" type="curve" smooth="yes"/>
      <point x="493" y="898"/>
      <point x="481" y="895"/>
      <point x="468" y="886" type="curve" smooth="yes"/>
    </contour>
  </outline>
</glyph>
<glyph name="Otilde" format="1">
  <advance width="686"/>
  <unicode hex="00D5"/>
  <outline>
    <contour>
      <point x="414" y="-2"/>
      <point x="586" y="166"/>
      <point x="628" y="365" type="curve" smooth="yes"/>
      <point x="665" y="538"/>
      <point x="587" y="682"/>
      <point x="440" y="682" type="curve" smooth="yes"/>
      <point x="283" y="682"/>
      <point x="111" y="514"/>
      <point x="68" y="315" type="curve" smooth="yes"/>
      <point x="32" y="144"/>
      <point x="107" y="-2"/>
      <point x="256" y="-2" type="curve" smooth="yes"/>
    </contour>
    <contour>
      <point x="511" y="587"/>
      <point x="556" y="475"/>
      <point x="532" y="361" type="curve" smooth="yes"/>
      <point x="501" y="216"/>
      <point x="379" y="93"/>
      <point x="276" y="93" type="curve" smooth="yes"/>
      <point x="184" y="93"/>
      <point x="139" y="194"/>
      <point x="164" y="315" type="curve" smooth="yes"/>
      <point x="197" y="466"/>
      <point x="311" y="587"/>
      <point x="414" y="587" type="curve" smooth="yes"/>
    </contour>
    <contour>
      <point x="598" y="817"/>
      <point x="567" y="793"/>
      <point x="546" y="793" type="curve" smooth="yes"/>
      <point x="531" y="793"/>
      <point x="523" y="807"/>
      <point x="512" y="829" type="curve" smooth="yes"/>
      <point x="496" y="860"/>
      <point x="474" y="877"/>
      <point x="435" y="877" type="curve" smooth="yes"/>
      <point x="357" y="877"/>
      <point x="304" y="810"/>
      <point x="275" y="753" type="curve" smooth="yes"/>
      <point x="269" y="742"/>
      <point x="268" y="735"/>
      <point x="267" y="731" type="curve" smooth="yes"/>
      <point x="262" y="708"/>
      <point x="280" y="698"/>
      <point x="299" y="698" type="curve" smooth="yes"/>
      <point x="314" y="698"/>
      <point x="324" y="705"/>
      <point x="333" y="720" type="curve"/>
      <point x="341" y="736"/>
      <point x="369" y="788"/>
      <point x="404" y="788" type="curve" smooth="yes"/>
      <point x="419" y="788"/>
      <point x="427" y="776"/>
      <point x="439" y="753" type="curve" smooth="yes"/>
      <point x="454" y="722"/>
      <point x="477" y="705"/>
      <point x="509" y="705" type="curve" smooth="yes"/>
      <point x="610" y="705"/>
      <point x="667" y="807"/>
      <point x="684" y="838" type="curve"/>
      <point x="689" y="849"/>
      <point x="690" y="856"/>
      <point x="691" y="860" type="curve" smooth="yes"/>
      <point x="696" y="883"/>
      <point x="678" y="893"/>
      <point x="659" y="893" type="curve" smooth="yes"/>
      <point x="644" y="893"/>
      <point x="631" y="886"/>
      <point x="624" y="871" type="curve" smooth="yes"/>
    </contour>
  </outline>
</glyph>
<glyph name="Odieresis" format="1">
  <advance width="686"/>
  <unicode hex="00D6"/>
  <outline>
    <contour>
      <point x="451" y="801"/>
      <point x="424" y="827"/>
      <point x="391" y="827" type="curve" smooth="yes"/>
      <point x="352" y="827"/>
      <point x="314" y="796"/>
      <point x="306" y="762" type="curve" smooth="yes"/>
      <point x="299" y="727"/>
      <point x="323" y="703"/>
      <point x="359" y="703" type="curve" smooth="yes"/>
      <point x="399" y="703"/>
      <point x="436" y="732"/>
      <point x="444" y="767" type="curve" smooth="yes"/>
    </contour>
    <contour>
      <point x="639" y="801"/>
      <point x="612" y="827"/>
      <point x="579" y="827" type="curve" smooth="yes"/>
      <point x="540" y="827"/>
      <point x="502" y="796"/>
      <point x="494" y="762" type="curve" smooth="yes"/>
      <point x="487" y="727"/>
      <point x="511" y="703"/>
      <point x="547" y="703" type="curve" smooth="yes"/>
      <point x="587" y="703"/>
      <point x="624" y="732"/>
      <point x="632" y="767" type="curve" smooth="yes"/>
    </contour>
    <contour>
      <point x="414" y="-2"/>
      <point x="586" y="166"/>
      <point x="628" y="365" type="curve" smooth="yes"/>
      <point x="665" y="538"/>
      <point x="587" y="682"/>
      <point x="440" y="682" type="curve" smooth="yes"/>
      <point x="283" y="682"/>
      <point x="111" y="514"/>
      <point x="68" y="315" type="curve" smooth="yes"/>
      <point x="32" y="144"/>
      <point x="107" y="-2"/>
      <point x="256" y="-2" type="curve" smooth="yes"/>
    </contour>
    <contour>
      <point x="511" y="587"/>
      <point x="556" y="475"/>
      <point x="532" y="361" type="curve" smooth="yes"/>
      <point x="501" y="216"/>
      <point x="379" y="93"/>
      <point x="276" y="93" type="curve" smooth="yes"/>
      <point x="184" y="93"/>
      <point x="139" y="194"/>
      <point x="164" y="315" type="curve" smooth="yes"/>
      <point x="197" y="466"/>
      <point x="311" y="587"/>
      <point x="414" y="587" type="curve" smooth="yes"/>
    </contour>
  </outline>
</glyph>
<glyph name="Oslash" format="1">
  <advance width="686"/>
  <unicode hex="00D8"/>
  <outline>
    <contour>
      <point x="522" y="664" type="line"/>
      <point x="496" y="676"/>
      <point x="472" y="682"/>
      <point x="440" y="682" type="curve" smooth="yes"/>
      <point x="283" y="682"/>
      <point x="111" y="514"/>
      <point x="68" y="315" type="curve" smooth="yes"/>
      <point x="51" y="232"/>
      <point x="58" y="156"/>
      <point x="88" y="100" type="curve"/>
      <point x="43" y="40" type="line" smooth="yes"/>
      <point x="38" y="33"/>
      <point x="34" y="24"/>
      <point x="32" y="18" type="curve"/>
      <point x="27" y="-9"/>
      <point x="38" y="-30"/>
      <point x="70" y="-30" type="curve" smooth="yes"/>
      <point x="88" y="-30"/>
      <point x="104" y="-21"/>
      <point x="116" y="-6" type="curve" smooth="yes"/>
      <point x="146" y="33" type="line"/>
      <point x="175" y="11"/>
      <point x="213" y="-2"/>
      <point x="256" y="-2" type="curve" smooth="yes"/>
      <point x="414" y="-2"/>
      <point x="586" y="166"/>
      <point x="628" y="365" type="curve" smooth="yes"/>
      <point x="649" y="464"/>
      <point x="634" y="551"/>
      <point x="589" y="610" type="curve"/>
      <point x="634" y="668" type="line" smooth="yes"/>
      <point x="641" y="677"/>
      <point x="643" y="686"/>
      <point x="645" y="692" type="curve"/>
      <point x="651" y="721"/>
      <point x="630" y="739"/>
      <point x="608" y="739" type="curve" smooth="yes"/>
      <point x="590" y="739"/>
      <point x="574" y="732"/>
      <point x="560" y="714" type="curve" smooth="yes"/>
    </contour>
    <contour>
      <point x="249" y="93"/>
      <point x="229" y="100"/>
      <point x="210" y="115" type="curve"/>
      <point x="518" y="517" type="line"/>
      <point x="540" y="474"/>
      <point x="545" y="419"/>
      <point x="532" y="361" type="curve" smooth="yes"/>
      <point x="501" y="216"/>
      <point x="379" y="93"/>
      <point x="276" y="93" type="curve" smooth="yes"/>
    </contour>
    <contour>
      <point x="428" y="587"/>
      <point x="445" y="584"/>
      <point x="456" y="578" type="curve"/>
      <point x="354" y="444"/>
      <point x="264" y="329"/>
      <point x="162" y="197" type="curve"/>
      <point x="152" y="234"/>
      <point x="154" y="268"/>
      <point x="164" y="315" type="curve" smooth="yes"/>
      <point x="197" y="466"/>
      <point x="311" y="587"/>
      <point x="414" y="587" type="curve" smooth="yes"/>
    </contour>
  </outline>
</glyph>
<glyph name="Uacute" format="1">
  <advance width="709"/>
  <unicode hex="00DA"/>
  <outline>
    <contour>
      <point x="704" y="648"/>
      <point x="705" y="681"/>
      <point x="662" y="681" type="curve" smooth="yes"/>
      <point x="619" y="681"/>
      <point x="605" y="647"/>
      <point x="602" y="631" type="curve" smooth="yes"/>
      <point x="573" y="498"/>
      <point x="557" y="397"/>
      <point x="518" y="277" type="curve" smooth="yes"/>
      <point x="473" y="139"/>
      <point x="383" y="92"/>
      <point x="300" y="92" type="curve" smooth="yes"/>
      <point x="169" y="92"/>
      <point x="163" y="236"/>
      <point x="188" y="381" type="curve" smooth="yes"/>
      <point x="205" y="474"/>
      <point x="221" y="544"/>
      <point x="242" y="633" type="curve"/>
      <point x="245" y="649"/>
      <point x="244" y="681"/>
      <point x="204" y="681" type="curve" smooth="yes"/>
      <point x="163" y="681"/>
      <point x="146" y="650"/>
      <point x="142" y="634" type="curve" smooth="yes"/>
      <point x="123" y="549"/>
      <point x="105" y="474"/>
      <point x="86" y="367" type="curve" smooth="yes"/>
      <point x="47" y="151"/>
      <point x="110" y="0"/>
      <point x="279" y="0" type="curve" smooth="yes"/>
      <point x="456" y="0"/>
      <point x="561" y="110"/>
      <point x="616" y="270" type="curve" smooth="yes"/>
      <point x="661" y="400"/>
      <point x="678" y="507"/>
      <point x="701" y="633" type="curve" smooth="yes"/>
    </contour>
    <contour>
      <point x="380" y="790" type="line"/>
      <point x="368" y="781"/>
      <point x="363" y="768"/>
      <point x="360" y="757" type="curve"/>
      <point x="355" y="730"/>
      <point x="372" y="709"/>
      <point x="396" y="709" type="curve" smooth="yes"/>
      <point x="407" y="709"/>
      <point x="420" y="715"/>
      <point x="432" y="722" type="curve" smooth="yes"/>
      <point x="574" y="807" type="line" smooth="yes"/>
      <point x="590" y="817"/>
      <point x="598" y="832"/>
      <point x="602" y="847" type="curve"/>
      <point x="608" y="878"/>
      <point x="590" y="902"/>
      <point x="560" y="902" type="curve" smooth="yes"/>
      <point x="543" y="902"/>
      <point x="527" y="891"/>
      <point x="515" y="883" type="curve" smooth="yes"/>
    </contour>
  </outline>
</glyph>
<glyph name="Udieresis" format="1">
  <advance width="709"/>
  <unicode hex="00DC"/>
  <outline>
    <contour>
      <point x="434" y="801"/>
      <point x="407" y="827"/>
      <point x="373" y="827" type="curve" smooth="yes"/>
      <point x="334" y="827"/>
      <point x="297" y="796"/>
      <point x="289" y="762" type="curve" smooth="yes"/>
      <point x="282" y="727"/>
      <point x="306" y="703"/>
      <point x="342" y="703" type="curve" smooth="yes"/>
      <point x="382" y="703"/>
      <point x="419" y="732"/>
      <point x="427" y="767" type="curve" smooth="yes"/>
    </contour>
    <contour>
      <point x="622" y="801"/>
      <point x="595" y="827"/>
      <point x="562" y="827" type="curve" smooth="yes"/>
      <point x="522" y="827"/>
      <point x="485" y="796"/>
      <point x="477" y="762" type="curve" smooth="yes"/>
      <point x="470" y="727"/>
      <point x="494" y="703"/>
      <point x="530" y="703" type="curve" smooth="yes"/>
      <point x="570" y="703"/>
      <point x="607" y="732"/>
      <point x="615" y="767" type="curve" smooth="yes"/>
    </contour>
    <contour>
      <point x="704" y="648"/>
      <point x="705" y="681"/>
      <point x="662" y="681" type="curve" smooth="yes"/>
      <point x="619" y="681"/>
      <point x="605" y="647"/>
      <point x="602" y="631" type="curve" smooth="yes"/>
      <point x="573" y="498"/>
      <point x="557" y="397"/>
      <point x="518" y="277" type="curve" smooth="yes"/>
      <point x="473" y="139"/>
      <point x="383" y="92"/>
      <point x="300" y="92" type="curve" smooth="yes"/>
      <point x="169" y="92"/>
      <point x="163" y="236"/>
      <point x="188" y="381" type="curve" smooth="yes"/>
      <point x="205" y="474"/>
      <point x="221" y="544"/>
      <point x="242" y="633" type="curve"/>
      <point x="245" y="649"/>
      <point x="244" y="681"/>
      <point x="204" y="681" type="curve" smooth="yes"/>
      <point x="163" y="681"/>
      <point x="146" y="650"/>
      <point x="142" y="634" type="curve" smooth="yes"/>
      <point x="123" y="549"/>
      <point x="105" y="474"/>
      <point x="86" y="367" type="curve" smooth="yes"/>
      <point x="47" y="151"/>
      <point x="110" y="0"/>
      <point x="279" y="0" type="curve" smooth="yes"/>
      <point x="456" y="0"/>
      <point x="561" y="110"/>
      <point x="616" y="270" type="curve" smooth="yes"/>
      <point x="661" y="400"/>
      <point x="678" y="507"/>
      <point x="701" y="633" type="curve" smooth="yes"/>
    </contour>
  </outline>
</glyph>
<glyph name="Yacute" format="1">
  <advance width="619"/>
  <unicode hex="00DD"/>
  <outline>
    <contour>
      <point x="320" y="321" type="line"/>
      <point x="195" y="656" type="line" smooth="yes"/>
      <point x="189" y="672"/>
      <point x="175" y="681"/>
      <point x="158" y="681" type="curve" smooth="yes"/>
      <point x="130" y="681"/>
      <point x="103" y="658"/>
      <point x="98" y="632" type="curve" smooth="yes"/>
      <point x="96" y="623"/>
      <point x="96" y="614"/>
      <point x="100" y="603" type="curve" smooth="yes"/>
      <point x="241" y="223" type="line"/>
      <point x="123" y="77" type="line" smooth="yes"/>
      <point x="113" y="64"/>
      <point x="111" y="59"/>
      <point x="109" y="49" type="curve" smooth="yes"/>
      <point x="104" y="24"/>
      <point x="120" y="0"/>
      <point x="148" y="0" type="curve" smooth="yes"/>
      <point x="166" y="0"/>
      <point x="183" y="9"/>
      <point x="196" y="25" type="curve" smooth="yes"/>
      <point x="660" y="600" type="line" smooth="yes"/>
      <point x="672" y="615"/>
      <point x="674" y="621"/>
      <point x="677" y="632" type="curve"/>
      <point x="683" y="660"/>
      <point x="662" y="681"/>
      <point x="638" y="681" type="curve" smooth="yes"/>
      <point x="620" y="681"/>
      <point x="603" y="673"/>
      <point x="590" y="657" type="curve" smooth="yes"/>
    </contour>
    <contour>
      <point x="335" y="790" type="line"/>
      <point x="323" y="781"/>
      <point x="318" y="768"/>
      <point x="315" y="757" type="curve"/>
      <point x="310" y="730"/>
      <point x="327" y="709"/>
      <point x="351" y="709" type="curve" smooth="yes"/>
      <point x="362" y="709"/>
      <point x="375" y="715"/>
      <point x="387" y="722" type="curve" smooth="yes"/>
      <point x="529" y="807" type="line" smooth="yes"/>
      <point x="545" y="817"/>
      <point x="553" y="832"/>
      <point x="557" y="847" type="curve"/>
      <point x="563" y="878"/>
      <point x="545" y="902"/>
      <point x="515" y="902" type="curve" smooth="yes"/>
      <point x="498" y="902"/>
      <point x="482" y="891"/>
      <point x="470" y="883" type="curve" smooth="yes"/>
    </contour>
  </outline>
</glyph>
<glyph name="Thorn" format="1">
  <advance width="573"/>
  <unicode hex="00DE"/>
  <outline>
    <contour>
      <point x="234" y="632" type="line" smooth="yes"/>
      <point x="240" y="660"/>
      <point x="222" y="680"/>
      <point x="197" y="680" type="curve" smooth="yes"/>
      <point x="171" y="680"/>
      <point x="146" y="660"/>
      <point x="140" y="633" type="curve" smooth="yes"/>
      <point x="14" y="48" type="line" smooth="yes"/>
      <point x="8" y="20"/>
      <point x="25" y="0"/>
      <point x="51" y="0" type="curve" smooth="yes"/>
      <point x="78" y="0"/>
      <point x="103" y="20"/>
      <point x="108" y="47" type="curve" smooth="yes"/>
      <point x="127" y="134" type="line"/>
      <point x="269" y="142"/>
      <point x="474" y="198"/>
      <point x="511" y="373" type="curve" smooth="yes"/>
      <point x="548" y="550"/>
      <point x="367" y="577"/>
      <point x="223" y="579" type="curve"/>
    </contour>
    <contour>
      <point x="166" y="316"/>
      <point x="202" y="483"/>
      <point x="202" y="483" type="curve"/>
      <point x="213" y="483" type="line" smooth="yes"/>
      <point x="356" y="483"/>
      <point x="431" y="442"/>
      <point x="417" y="373" type="curve" smooth="yes"/>
      <point x="395" y="270"/>
      <point x="241" y="238"/>
      <point x="148" y="232" type="curve"/>
    </contour>
  </outline>
</glyph>
<glyph name="agrave" format="1">
  <advance width="531"/>
  <unicode hex="00E0"/>
  <outline>
    <contour>
      <point x="488" y="456" type="line"/>
      <point x="472" y="465"/>
      <point x="410" y="502"/>
      <point x="338" y="502" type="curve" smooth="yes"/>
      <point x="163" y="502"/>
      <point x="59" y="319"/>
      <point x="37" y="216" type="curve" smooth="yes"/>
      <point x="10" y="85"/>
      <point x="74" y="-3"/>
      <point x="184" y="-3" type="curve" smooth="yes"/>
      <point x="224" y="-3"/>
      <point x="266" y="10"/>
      <point x="302" y="25" type="curve"/>
      <point x="303" y="5"/>
      <point x="315" y="-10"/>
      <point x="341" y="-10" type="curve" smooth="yes"/>
      <point x="369" y="-10"/>
      <point x="394" y="14"/>
      <point x="400" y="40" type="curve" smooth="yes"/>
    </contour>
    <contour>
      <point x="322" y="134" type="line"/>
      <point x="294" y="118"/>
      <point x="243" y="93"/>
      <point x="203" y="93" type="curve" smooth="yes"/>
      <point x="133" y="93"/>
      <point x="123" y="164"/>
      <point x="135" y="218" type="curve" smooth="yes"/>
      <point x="149" y="285"/>
      <point x="213" y="407"/>
      <point x="320" y="407" type="curve" smooth="yes"/>
      <point x="341" y="407"/>
      <point x="365" y="402"/>
      <point x="380" y="395" type="curve"/>
    </contour>
    <contour>
      <point x="365" y="543" type="line"/>
      <point x="371" y="534"/>
      <point x="381" y="528"/>
      <point x="396" y="528" type="curve" smooth="yes"/>
      <point x="420" y="528"/>
      <point x="448" y="548"/>
      <point x="454" y="575" type="curve" smooth="yes"/>
      <point x="456" y="585"/>
      <point x="455" y="593"/>
      <point x="448" y="605" type="curve" smooth="yes"/>
      <point x="378" y="724" type="line" smooth="yes"/>
      <point x="371" y="736"/>
      <point x="357" y="746"/>
      <point x="339" y="746" type="curve" smooth="yes"/>
      <point x="311" y="746"/>
      <point x="280" y="720"/>
      <point x="274" y="692" type="curve" smooth="yes"/>
      <point x="270" y="676"/>
      <point x="274" y="664"/>
      <point x="282" y="654" type="curve" smooth="yes"/>
    </contour>
  </outline>
</glyph>
<glyph name="aring" format="1">
  <advance width="531"/>
  <unicode hex="00E5"/>
  <outline>
    <contour>
      <point x="418" y="531"/>
      <point x="503" y="583"/>
      <point x="520" y="660" type="curve" smooth="yes"/>
      <point x="534" y="725"/>
      <point x="485" y="776"/>
      <point x="418" y="776" type="curve" smooth="yes"/>
      <point x="345" y="776"/>
      <point x="261" y="722"/>
      <point x="245" y="647" type="curve" smooth="yes"/>
      <point x="231" y="582"/>
      <point x="277" y="531"/>
      <point x="346" y="531" type="curve" smooth="yes"/>
    </contour>
    <contour>
      <point x="423" y="688"/>
      <point x="438" y="672"/>
      <point x="435" y="658" type="curve" smooth="yes"/>
      <point x="430" y="633"/>
      <point x="396" y="619"/>
      <point x="374" y="619" type="curve" smooth="yes"/>
      <point x="345" y="619"/>
      <point x="325" y="630"/>
      <point x="329" y="647" type="curve" smooth="yes"/>
      <point x="333" y="664"/>
      <point x="361" y="688"/>
      <point x="397" y="688" type="curve" smooth="yes"/>
    </contour>
    <contour>
      <point x="488" y="456" type="line"/>
      <point x="472" y="465"/>
      <point x="410" y="502"/>
      <point x="338" y="502" type="curve" smooth="yes"/>
      <point x="163" y="502"/>
      <point x="59" y="319"/>
      <point x="37" y="216" type="curve" smooth="yes"/>
      <point x="10" y="85"/>
      <point x="74" y="-3"/>
      <point x="184" y="-3" type="curve" smooth="yes"/>
      <point x="224" y="-3"/>
      <point x="266" y="10"/>
      <point x="302" y="25" type="curve"/>
      <point x="303" y="5"/>
      <point x="315" y="-10"/>
      <point x="341" y="-10" type="curve" smooth="yes"/>
      <point x="369" y="-10"/>
      <point x="394" y="14"/>
      <point x="400" y="40" type="curve" smooth="yes"/>
    </contour>
    <contour>
      <point x="322" y="134" type="line"/>
      <point x="294" y="118"/>
      <point x="243" y="93"/>
      <point x="203" y="93" type="curve" smooth="yes"/>
      <point x="133" y="93"/>
      <point x="123" y="164"/>
      <point x="135" y="218" type="curve" smooth="yes"/>
      <point x="149" y="285"/>
      <point x="213" y="407"/>
      <point x="320" y="407" type="curve" smooth="yes"/>
      <point x="341" y="407"/>
      <point x="365" y="402"/>
      <point x="380" y="395" type="curve"/>
    </contour>
  </outline>
</glyph>
<glyph name="ecircumflex" format="1">
  <advance width="547"/>
  <unicode hex="00EA"/>
  <outline>
    <contour>
      <point x="342" y="112"/>
      <point x="294" y="93"/>
      <point x="261" y="93" type="curve" smooth="yes"/>
      <point x="204" y="93"/>
      <point x="166" y="114"/>
      <point x="145" y="155" type="curve"/>
      <point x="446" y="309" type="line" smooth="yes"/>
      <point x="470" y="321"/>
      <point x="483" y="338"/>
      <point x="487" y="355" type="curve" smooth="yes"/>
      <point x="497" y="402"/>
      <point x="458" y="499"/>
      <point x="326" y="499" type="curve" smooth="yes"/>
      <point x="189" y="499"/>
      <point x="73" y="376"/>
      <point x="44" y="239" type="curve" smooth="yes"/>
      <point x="18" y="114"/>
      <point x="90" y="0"/>
      <point x="242" y="0" type="curve" smooth="yes"/>
      <point x="304" y="0"/>
      <point x="380" y="33"/>
      <point x="424" y="74" type="curve"/>
      <point x="433" y="81"/>
      <point x="440" y="92"/>
      <point x="443" y="104" type="curve"/>
      <point x="448" y="131"/>
      <point x="433" y="151"/>
      <point x="406" y="151" type="curve" smooth="yes"/>
      <point x="393" y="151"/>
      <point x="380" y="144"/>
      <point x="369" y="135" type="curve" smooth="yes"/>
    </contour>
    <contour>
      <point x="137" y="247" type="line"/>
      <point x="160" y="335"/>
      <point x="229" y="405"/>
      <point x="306" y="405" type="curve" smooth="yes"/>
      <point x="352" y="405"/>
      <point x="378" y="394"/>
      <point x="390" y="372" type="curve"/>
    </contour>
    <contour>
      <point x="229" y="626" type="line" smooth="yes"/>
      <point x="214" y="616"/>
      <point x="206" y="603"/>
      <point x="203" y="590" type="curve" smooth="yes"/>
      <point x="197" y="563"/>
      <point x="215" y="543"/>
      <point x="240" y="543" type="curve" smooth="yes"/>
      <point x="250" y="543"/>
      <point x="258" y="544"/>
      <point x="271" y="552" type="curve"/>
      <point x="374" y="621" type="line"/>
      <point x="433" y="555" type="line" smooth="yes"/>
      <point x="442" y="545"/>
      <point x="452" y="543"/>
      <point x="464" y="543" type="curve" smooth="yes"/>
      <point x="489" y="543"/>
      <point x="515" y="565"/>
      <point x="520" y="590" type="curve" smooth="yes"/>
      <point x="523" y="603"/>
      <point x="521" y="614"/>
      <point x="513" y="624" type="curve" smooth="yes"/>
      <point x="438" y="720" type="line" smooth="yes"/>
      <point x="428" y="732"/>
      <point x="415" y="738"/>
      <point x="403" y="738" type="curve" smooth="yes"/>
      <point x="394" y="738"/>
      <point x="382" y="735"/>
      <point x="369" y="726" type="curve" smooth="yes"/>
    </contour>
  </outline>
</glyph>
<glyph name="edieresis" format="1">
  <advance width="547"/>
  <unicode hex="00EB"/>
  <outline>
    <contour>
      <point x="343" y="639"/>
      <point x="318" y="664"/>
      <point x="285" y="664" type="curve" smooth="yes"/>
      <point x="247" y="664"/>
      <point x="209" y="634"/>
      <point x="202" y="601" type="curve" smooth="yes"/>
      <point x="195" y="567"/>
      <point x="218" y="543"/>
      <point x="254" y="543" type="curve" smooth="yes"/>
      <point x="293" y="543"/>
      <point x="329" y="571"/>
      <point x="336" y="606" type="curve" smooth="yes"/>
    </contour>
    <contour>
      <point x="527" y="639"/>
      <point x="502" y="664"/>
      <point x="470" y="664" type="curve" smooth="yes"/>
      <point x="432" y="664"/>
      <point x="394" y="634"/>
      <point x="387" y="601" type="curve" smooth="yes"/>
      <point x="380" y="567"/>
      <point x="403" y="543"/>
      <point x="438" y="543" type="curve" smooth="yes"/>
      <point x="477" y="543"/>
      <point x="513" y="571"/>
      <point x="520" y="606" type="curve" smooth="yes"/>
    </contour>
    <contour>
      <point x="342" y="112"/>
      <point x="294" y="93"/>
      <point x="261" y="93" type="curve" smooth="yes"/>
      <point x="204" y="93"/>
      <point x="166" y="114"/>
      <point x="145" y="155" type="curve"/>
      <point x="446" y="309" type="line" smooth="yes"/>
      <point x="470" y="321"/>
      <point x="483" y="338"/>
      <point x="487" y="355" type="curve" smooth="yes"/>
      <point x="497" y="402"/>
      <point x="458" y="499"/>
      <point x="326" y="499" type="curve" smooth="yes"/>
      <point x="189" y="499"/>
      <point x="73" y="376"/>
      <point x="44" y="239" type="curve" smooth="yes"/>
      <point x="18" y="114"/>
      <point x="90" y="0"/>
      <point x="242" y="0" type="curve" smooth="yes"/>
      <point x="304" y="0"/>
      <point x="380" y="33"/>
      <point x="424" y="74" type="curve"/>
      <point x="433" y="81"/>
      <point x="440" y="92"/>
      <point x="443" y="104" type="curve"/>
      <point x="448" y="131"/>
      <point x="433" y="151"/>
      <point x="406" y="151" type="curve" smooth="yes"/>
      <point x="393" y="151"/>
      <point x="380" y="144"/>
      <point x="369" y="135" type="curve" smooth="yes"/>
    </contour>
    <contour>
      <point x="137" y="247" type="line"/>
      <point x="160" y="335"/>
      <point x="229" y="405"/>
      <point x="306" y="405" type="curve" smooth="yes"/>
      <point x="352" y="405"/>
      <point x="378" y="394"/>
      <point x="390" y="372" type="curve"/>
    </contour>
  </outline>
</glyph>
<glyph name="icircumflex" format="1">
  <advance width="285"/>
  <unicode hex="00EE"/>
  <outline>
    <contour>
      <point x="230" y="447" type="line"/>
      <point x="235" y="474"/>
      <point x="219" y="496"/>
      <point x="191" y="496" type="curve" smooth="yes"/>
      <point x="164" y="496"/>
      <point x="137" y="474"/>
      <point x="132" y="447" type="curve"/>
      <point x="42" y="49" type="line" smooth="yes"/>
      <point x="36" y="22"/>
      <point x="54" y="0"/>
      <point x="81" y="0" type="curve" smooth="yes"/>
      <point x="108" y="0"/>
      <point x="134" y="22"/>
      <point x="140" y="49" type="curve" smooth="yes"/>
    </contour>
    <contour>
      <point x="79" y="626" type="line" smooth="yes"/>
      <point x="64" y="616"/>
      <point x="56" y="603"/>
      <point x="53" y="590" type="curve" smooth="yes"/>
      <point x="47" y="563"/>
      <point x="65" y="543"/>
      <point x="90" y="543" type="curve" smooth="yes"/>
      <point x="100" y="543"/>
      <point x="108" y="544"/>
      <point x="121" y="552" type="curve"/>
      <point x="224" y="621" type="line"/>
      <point x="283" y="555" type="line" smooth="yes"/>
      <point x="292" y="545"/>
      <point x="302" y="543"/>
      <point x="314" y="543" type="curve" smooth="yes"/>
      <point x="339" y="543"/>
      <point x="365" y="565"/>
      <point x="370" y="590" type="curve" smooth="yes"/>
      <point x="373" y="603"/>
      <point x="371" y="614"/>
      <point x="363" y="624" type="curve" smooth="yes"/>
      <point x="288" y="720" type="line" smooth="yes"/>
      <point x="278" y="732"/>
      <point x="265" y="738"/>
      <point x="253" y="738" type="curve" smooth="yes"/>
      <point x="244" y="738"/>
      <point x="232" y="735"/>
      <point x="219" y="726" type="curve" smooth="yes"/>
    </contour>
  </outline>
</glyph>
<glyph name="idieresis" format="1">
  <advance width="309"/>
  <unicode hex="00EF"/>
  <outline>
    <contour>
      <point x="235" y="447" type="line"/>
      <point x="240" y="474"/>
      <point x="223" y="496"/>
      <point x="196" y="496" type="curve" smooth="yes"/>
      <point x="169" y="496"/>
      <point x="142" y="474"/>
      <point x="137" y="447" type="curve"/>
      <point x="47" y="49" type="line" smooth="yes"/>
      <point x="41" y="22"/>
      <point x="59" y="0"/>
      <point x="86" y="0" type="curve" smooth="yes"/>
      <point x="113" y="0"/>
      <point x="139" y="22"/>
      <point x="145" y="49" type="curve" smooth="yes"/>
    </contour>
    <contour>
      <point x="204" y="639"/>
      <point x="179" y="664"/>
      <point x="146" y="664" type="curve" smooth="yes"/>
      <point x="108" y="664"/>
      <point x="70" y="634"/>
      <point x="63" y="601" type="curve" smooth="yes"/>
      <point x="56" y="567"/>
      <point x="79" y="543"/>
      <point x="114" y="543" type="curve" smooth="yes"/>
      <point x="154" y="543"/>
      <point x="190" y="571"/>
      <point x="197" y="606" type="curve" smooth="yes"/>
    </contour>
    <contour>
      <point x="388" y="639"/>
      <point x="363" y="664"/>
      <point x="330" y="664" type="curve" smooth="yes"/>
      <point x="292" y="664"/>
      <point x="254" y="634"/>
      <point x="247" y="601" type="curve" smooth="yes"/>
      <point x="240" y="567"/>
      <point x="263" y="543"/>
      <point x="299" y="543" type="curve" smooth="yes"/>
      <point x="338" y="543"/>
      <point x="374" y="571"/>
      <point x="381" y="606" type="curve" smooth="yes"/>
    </contour>
  </outline>
</glyph>
<glyph name="ntilde" format="1">
  <advance width="561"/>
  <unicode hex="00F1"/>
  <outline>
    <contour>
      <point x="199" y="452" type="line"/>
      <point x="204" y="479"/>
      <point x="188" y="500"/>
      <point x="163" y="500" type="curve" smooth="yes"/>
      <point x="137" y="500"/>
      <point x="108" y="479"/>
      <point x="103" y="452" type="curve" smooth="yes"/>
      <point x="16" y="46" type="line" smooth="yes"/>
      <point x="11" y="22"/>
      <point x="29" y="0"/>
      <point x="55" y="0" type="curve" smooth="yes"/>
      <point x="85" y="0"/>
      <point x="106" y="22"/>
      <point x="112" y="50" type="curve" smooth="yes"/>
      <point x="130" y="134" type="line" smooth="yes"/>
      <point x="143" y="194"/>
      <point x="173" y="254"/>
      <point x="214" y="308" type="curve" smooth="yes"/>
      <point x="274" y="387"/>
      <point x="317" y="404"/>
      <point x="349" y="404" type="curve" smooth="yes"/>
      <point x="381" y="404"/>
      <point x="409" y="398"/>
      <point x="362" y="178" type="curve" smooth="yes"/>
      <point x="334" y="47" type="line" smooth="yes"/>
      <point x="329" y="23"/>
      <point x="347" y="0"/>
      <point x="373" y="0" type="curve" smooth="yes"/>
      <point x="400" y="0"/>
      <point x="423" y="23"/>
      <point x="429" y="48" type="curve" smooth="yes"/>
      <point x="454" y="161" type="line" smooth="yes"/>
      <point x="505" y="392"/>
      <point x="507" y="499"/>
      <point x="374" y="499" type="curve" smooth="yes"/>
      <point x="306" y="499"/>
      <point x="236" y="451"/>
      <point x="186" y="395" type="curve"/>
    </contour>
    <contour>
      <point x="480" y="637"/>
      <point x="449" y="613"/>
      <point x="428" y="613" type="curve" smooth="yes"/>
      <point x="413" y="613"/>
      <point x="405" y="627"/>
      <point x="393" y="649" type="curve"/>
      <point x="378" y="680"/>
      <point x="356" y="697"/>
      <point x="317" y="697" type="curve" smooth="yes"/>
      <point x="239" y="697"/>
      <point x="185" y="630"/>
      <point x="156" y="573" type="curve"/>
      <point x="151" y="562"/>
      <point x="149" y="555"/>
      <point x="149" y="551" type="curve"/>
      <point x="144" y="528"/>
      <point x="162" y="518"/>
      <point x="181" y="518" type="curve" smooth="yes"/>
      <point x="196" y="518"/>
      <point x="206" y="525"/>
      <point x="214" y="540" type="curve" smooth="yes"/>
      <point x="223" y="556"/>
      <point x="251" y="608"/>
      <point x="286" y="608" type="curve" smooth="yes"/>
      <point x="301" y="608"/>
      <point x="309" y="596"/>
      <point x="320" y="573" type="curve" smooth="yes"/>
      <point x="336" y="542"/>
      <point x="359" y="525"/>
      <point x="391" y="525" type="curve" smooth="yes"/>
      <point x="492" y="525"/>
      <point x="549" y="627"/>
      <point x="565" y="658" type="curve" smooth="yes"/>
      <point x="571" y="669"/>
      <point x="572" y="676"/>
      <point x="573" y="680" type="curve" smooth="yes"/>
      <point x="578" y="703"/>
      <point x="560" y="713"/>
      <point x="541" y="713" type="curve" smooth="yes"/>
      <point x="526" y="713"/>
      <point x="513" y="706"/>
      <point x="505" y="691" type="curve"/>
    </contour>
  </outline>
</glyph>
<glyph name="ograve" format="1">
  <advance width="561"/>
  <unicode hex="00F2"/>
  <outline>
    <contour>
      <point x="326" y="0"/>
      <point x="459" y="122"/>
      <point x="490" y="268" type="curve" smooth="yes"/>
      <point x="517" y="392"/>
      <point x="450" y="500"/>
      <point x="333" y="500" type="curve" smooth="yes"/>
      <point x="206" y="500"/>
      <point x="73" y="377"/>
      <point x="42" y="232" type="curve" smooth="yes"/>
      <point x="15" y="104"/>
      <point x="82" y="0"/>
      <point x="199" y="0" type="curve" smooth="yes"/>
    </contour>
    <contour>
      <point x="372" y="411"/>
      <point x="407" y="342"/>
      <point x="390" y="263" type="curve" smooth="yes"/>
      <point x="371" y="170"/>
      <point x="288" y="89"/>
      <point x="217" y="89" type="curve" smooth="yes"/>
      <point x="152" y="89"/>
      <point x="122" y="155"/>
      <point x="139" y="233" type="curve" smooth="yes"/>
      <point x="159" y="328"/>
      <point x="238" y="411"/>
      <point x="310" y="411" type="curve" smooth="yes"/>
    </contour>
    <contour>
      <point x="370" y="543" type="line"/>
      <point x="376" y="534"/>
      <point x="386" y="528"/>
      <point x="401" y="528" type="curve" smooth="yes"/>
      <point x="425" y="528"/>
      <point x="453" y="548"/>
      <point x="459" y="575" type="curve" smooth="yes"/>
      <point x="461" y="585"/>
      <point x="460" y="593"/>
      <point x="453" y="605" type="curve" smooth="yes"/>
      <point x="383" y="724" type="line" smooth="yes"/>
      <point x="376" y="736"/>
      <point x="362" y="746"/>
      <point x="344" y="746" type="curve" smooth="yes"/>
      <point x="316" y="746"/>
      <point x="285" y="720"/>
      <point x="279" y="692" type="curve" smooth="yes"/>
      <point x="275" y="676"/>
      <point x="279" y="664"/>
      <point x="287" y="654" type="curve" smooth="yes"/>
    </contour>
  </outline>
</glyph>
<glyph name="ocircumflex" format="1">
  <advance width="561"/>
  <unicode hex="00F4"/>
  <outline>
    <contour>
      <point x="326" y="0"/>
      <point x="459" y="122"/>
      <point x="490" y="268" type="curve" smooth="yes"/>
      <point x="517" y="392"/>
      <point x="450" y="500"/>
      <point x="333" y="500" type="curve" smooth="yes"/>
      <point x="206" y="500"/>
      <point x="73" y="377"/>
      <point x="42" y="232" type="curve" smooth="yes"/>
      <point x="15" y="104"/>
      <point x="82" y="0"/>
      <point x="199" y="0" type="curve" smooth="yes"/>
    </contour>
    <contour>
      <point x="372" y="411"/>
      <point x="407" y="342"/>
      <point x="390" y="263" type="curve" smooth="yes"/>
      <point x="371" y="170"/>
      <point x="288" y="89"/>
      <point x="217" y="89" type="curve" smooth="yes"/>
      <point x="152" y="89"/>
      <point x="122" y="155"/>
      <point x="139" y="233" type="curve" smooth="yes"/>
      <point x="159" y="328"/>
      <point x="238" y="411"/>
      <point x="310" y="411" type="curve" smooth="yes"/>
    </contour>
    <contour>
      <point x="239" y="626" type="line" smooth="yes"/>
      <point x="224" y="616"/>
      <point x="216" y="603"/>
      <point x="213" y="590" type="curve" smooth="yes"/>
      <point x="207" y="563"/>
      <point x="225" y="543"/>
      <point x="250" y="543" type="curve" smooth="yes"/>
      <point x="260" y="543"/>
      <point x="268" y="544"/>
      <point x="281" y="552" type="curve"/>
      <point x="384" y="621" type="line"/>
      <point x="443" y="555" type="line" smooth="yes"/>
      <point x="452" y="545"/>
      <point x="462" y="543"/>
      <point x="474" y="543" type="curve" smooth="yes"/>
      <point x="499" y="543"/>
      <point x="525" y="565"/>
      <point x="530" y="590" type="curve" smooth="yes"/>
      <point x="533" y="603"/>
      <point x="531" y="614"/>
      <point x="523" y="624" type="curve" smooth="yes"/>
      <point x="448" y="720" type="line" smooth="yes"/>
      <point x="438" y="732"/>
      <point x="425" y="738"/>
      <point x="413" y="738" type="curve" smooth="yes"/>
      <point x="404" y="738"/>
      <point x="392" y="735"/>
      <point x="379" y="726" type="curve" smooth="yes"/>
    </contour>
  </outline>
</glyph>
<glyph name="uacute" format="1">
  <advance width="538"/>
  <unicode hex="00FA"/>
  <outline>
    <contour>
      <point x="494" y="454" type="line" smooth="yes"/>
      <point x="500" y="481"/>
      <point x="481" y="500"/>
      <point x="456" y="500" type="curve" smooth="yes"/>
      <point x="432" y="500"/>
      <point x="405" y="481"/>
      <point x="399" y="454" type="curve" smooth="yes"/>
      <point x="336" y="169" type="line"/>
      <point x="334" y="158"/>
      <point x="330" y="148"/>
      <point x="325" y="144" type="curve"/>
      <point x="304" y="125"/>
      <point x="239" y="87"/>
      <point x="185" y="87" type="curve" smooth="yes"/>
      <point x="149" y="87"/>
      <point x="125" y="114"/>
      <point x="162" y="288" type="curve" smooth="yes"/>
      <point x="175" y="351"/>
      <point x="193" y="401"/>
      <point x="202" y="431" type="curve"/>
      <point x="205" y="439"/>
      <point x="207" y="445"/>
      <point x="209" y="453" type="curve" smooth="yes"/>
      <point x="216" y="485"/>
      <point x="196" y="500"/>
      <point x="171" y="500" type="curve" smooth="yes"/>
      <point x="146" y="500"/>
      <point x="128" y="492"/>
      <point x="113" y="449" type="curve" smooth="yes"/>
      <point x="100" y="414"/>
      <point x="82" y="360"/>
      <point x="68" y="287" type="curve" smooth="yes"/>
      <point x="13" y="22"/>
      <point x="67" y="-3"/>
      <point x="166" y="-3" type="curve" smooth="yes"/>
      <point x="217" y="-3"/>
      <point x="268" y="16"/>
      <point x="307" y="40" type="curve"/>
      <point x="307" y="17"/>
      <point x="323" y="0"/>
      <point x="350" y="0" type="curve" smooth="yes"/>
      <point x="376" y="0"/>
      <point x="402" y="23"/>
      <point x="408" y="48" type="curve" smooth="yes"/>
    </contour>
    <contour>
      <point x="272" y="610" type="line" smooth="yes"/>
      <point x="259" y="601"/>
      <point x="254" y="588"/>
      <point x="252" y="577" type="curve"/>
      <point x="246" y="550"/>
      <point x="264" y="529"/>
      <point x="288" y="529" type="curve" smooth="yes"/>
      <point x="299" y="529"/>
      <point x="312" y="535"/>
      <point x="324" y="542" type="curve" smooth="yes"/>
      <point x="466" y="627" type="line" smooth="yes"/>
      <point x="482" y="637"/>
      <point x="490" y="652"/>
      <point x="493" y="667" type="curve" smooth="yes"/>
      <point x="500" y="698"/>
      <point x="482" y="722"/>
      <point x="452" y="722" type="curve" smooth="yes"/>
      <point x="435" y="722"/>
      <point x="419" y="711"/>
      <point x="407" y="703" type="curve" smooth="yes"/>
    </contour>
  </outline>
</glyph>
<glyph name="ucircumflex" format="1">
  <advance width="538"/>
  <unicode hex="00FB"/>
  <outline>
    <contour>
      <point x="494" y="454" type="line" smooth="yes"/>
      <point x="500" y="481"/>
      <point x="481" y="500"/>
      <point x="456" y="500" type="curve" smooth="yes"/>
      <point x="432" y="500"/>
      <point x="405" y="481"/>
      <point x="399" y="454" type="curve" smooth="yes"/>
      <point x="336" y="169" type="line"/>
      <point x="334" y="158"/>
      <point x="330" y="148"/>
      <point x="325" y="144" type="curve"/>
      <point x="304" y="125"/>
      <point x="239" y="87"/>
      <point x="185" y="87" type="curve" smooth="yes"/>
      <point x="149" y="87"/>
      <point x="125" y="114"/>
      <point x="162" y="288" type="curve" smooth="yes"/>
      <point x="175" y="351"/>
      <point x="193" y="401"/>
      <point x="202" y="431" type="curve"/>
      <point x="205" y="439"/>
      <point x="207" y="445"/>
      <point x="209" y="453" type="curve" smooth="yes"/>
      <point x="216" y="485"/>
      <point x="196" y="500"/>
      <point x="171" y="500" type="curve" smooth="yes"/>
      <point x="146" y="500"/>
      <point x="128" y="492"/>
      <point x="113" y="449" type="curve" smooth="yes"/>
      <point x="100" y="414"/>
      <point x="82" y="360"/>
      <point x="68" y="287" type="curve" smooth="yes"/>
      <point x="13" y="22"/>
      <point x="67" y="-3"/>
      <point x="166" y="-3" type="curve" smooth="yes"/>
      <point x="217" y="-3"/>
      <point x="268" y="16"/>
      <point x="307" y="40" type="curve"/>
      <point x="307" y="17"/>
      <point x="323" y="0"/>
      <point x="350" y="0" type="curve" smooth="yes"/>
      <point x="376" y="0"/>
      <point x="402" y="23"/>
      <point x="408" y="48" type="curve" smooth="yes"/>
    </contour>
    <contour>
      <point x="219" y="626" type="line" smooth="yes"/>
      <point x="204" y="616"/>
      <point x="196" y="603"/>
      <point x="193" y="590" type="curve" smooth="yes"/>
      <point x="187" y="563"/>
      <point x="205" y="543"/>
      <point x="230" y="543" type="curve" smooth="yes"/>
      <point x="240" y="543"/>
      <point x="248" y="544"/>
      <point x="261" y="552" type="curve"/>
      <point x="364" y="621" type="line"/>
      <point x="423" y="555" type="line" smooth="yes"/>
      <point x="432" y="545"/>
      <point x="442" y="543"/>
      <point x="454" y="543" type="curve" smooth="yes"/>
      <point x="479" y="543"/>
      <point x="505" y="565"/>
      <point x="510" y="590" type="curve" smooth="yes"/>
      <point x="513" y="603"/>
      <point x="511" y="614"/>
      <point x="503" y="624" type="curve" smooth="yes"/>
      <point x="428" y="720" type="line" smooth="yes"/>
      <point x="418" y="732"/>
      <point x="405" y="738"/>
      <point x="393" y="738" type="curve" smooth="yes"/>
      <point x="384" y="738"/>
      <point x="372" y="735"/>
      <point x="359" y="726" type="curve" smooth="yes"/>
    </contour>
  </outline>
</glyph>
<glyph name="yacute" format="1">
  <advance width="515"/>
  <unicode hex="00FD"/>
  <outline>
    <contour>
      <point x="505" y="432" type="line" smooth="yes"/>
      <point x="510" y="439"/>
      <point x="512" y="446"/>
      <point x="514" y="452" type="curve"/>
      <point x="520" y="480"/>
      <point x="501" y="501"/>
      <point x="476" y="501" type="curve" smooth="yes"/>
      <point x="455" y="501"/>
      <point x="435" y="487"/>
      <point x="423" y="470" type="curve" smooth="yes"/>
      <point x="236" y="191" type="line"/>
      <point x="156" y="470" type="line" smooth="yes"/>
      <point x="152" y="485"/>
      <point x="140" y="500"/>
      <point x="119" y="500" type="curve" smooth="yes"/>
      <point x="92" y="500"/>
      <point x="66" y="478"/>
      <point x="60" y="451" type="curve" smooth="yes"/>
      <point x="58" y="442"/>
      <point x="60" y="433"/>
      <point x="61" y="427" type="curve"/>
      <point x="160" y="78" type="line"/>
      <point x="35" y="-109" type="line"/>
      <point x="31" y="-116"/>
      <point x="27" y="-124"/>
      <point x="26" y="-130" type="curve"/>
      <point x="20" y="-157"/>
      <point x="37" y="-179"/>
      <point x="63" y="-179" type="curve" smooth="yes"/>
      <point x="84" y="-179"/>
      <point x="103" y="-165"/>
      <point x="115" y="-148" type="curve" smooth="yes"/>
    </contour>
    <contour>
      <point x="242" y="610" type="line" smooth="yes"/>
      <point x="229" y="601"/>
      <point x="224" y="588"/>
      <point x="222" y="577" type="curve"/>
      <point x="216" y="550"/>
      <point x="234" y="529"/>
      <point x="258" y="529" type="curve" smooth="yes"/>
      <point x="269" y="529"/>
      <point x="282" y="535"/>
      <point x="294" y="542" type="curve" smooth="yes"/>
      <point x="436" y="627" type="line" smooth="yes"/>
      <point x="452" y="637"/>
      <point x="460" y="652"/>
      <point x="463" y="667" type="curve" smooth="yes"/>
      <point x="470" y="698"/>
      <point x="452" y="722"/>
      <point x="422" y="722" type="curve" smooth="yes"/>
      <point x="405" y="722"/>
      <point x="389" y="711"/>
      <point x="377" y="703" type="curve" smooth="yes"/>
    </contour>
  </outline>
</glyph>
<glyph name="Aogonek" format="1">
  <advance width="650"/>
  <unicode hex="0104"/>
  <outline>
    <contour>
      <point x="466" y="-196"/>
      <point x="546" y="-168"/>
      <point x="555" y="-126" type="curve" smooth="yes"/>
      <point x="560" y="-102"/>
      <point x="541" y="-80"/>
      <point x="520" y="-80" type="curve" smooth="yes"/>
      <point x="510" y="-80"/>
      <point x="502" y="-82"/>
      <point x="489" y="-90" type="curve"/>
      <point x="475" y="-100"/>
      <point x="459" y="-104"/>
      <point x="446" y="-104" type="curve" smooth="yes"/>
      <point x="431" y="-104"/>
      <point x="420" y="-95"/>
      <point x="423" y="-80" type="curve" smooth="yes"/>
      <point x="429" y="-54"/>
      <point x="459" y="-35"/>
      <point x="481" y="-21" type="curve" smooth="yes"/>
      <point x="512" y="-1"/>
      <point x="542" y="22"/>
      <point x="537" y="67" type="curve" smooth="yes"/>
      <point x="459" y="655" type="line" smooth="yes"/>
      <point x="456" y="679"/>
      <point x="440" y="688"/>
      <point x="420" y="688" type="curve" smooth="yes"/>
      <point x="400" y="688"/>
      <point x="378" y="677"/>
      <point x="366" y="657" type="curve" smooth="yes"/>
      <point x="138" y="281" type="line"/>
      <point x="100" y="273" type="line" smooth="yes"/>
      <point x="76" y="268"/>
      <point x="56" y="249"/>
      <point x="51" y="225" type="curve" smooth="yes"/>
      <point x="46" y="201"/>
      <point x="57" y="184"/>
      <point x="76" y="177" type="curve"/>
      <point x="9" y="67" type="line" smooth="yes"/>
      <point x="6" y="62"/>
      <point x="3" y="56"/>
      <point x="2" y="49" type="curve"/>
      <point x="-3" y="25"/>
      <point x="12" y="0"/>
      <point x="42" y="0" type="curve" smooth="yes"/>
      <point x="66" y="0"/>
      <point x="84" y="15"/>
      <point x="94" y="32" type="curve" smooth="yes"/>
      <point x="194" y="196" type="line"/>
      <point x="408" y="241" type="line"/>
      <point x="433" y="46" type="line"/>
      <point x="388" y="18"/>
      <point x="344" y="-26"/>
      <point x="333" y="-79" type="curve" smooth="yes"/>
      <point x="318" y="-147"/>
      <point x="359" y="-196"/>
      <point x="427" y="-196" type="curve" smooth="yes"/>
    </contour>
    <contour>
      <point x="260" y="306" type="line"/>
      <point x="375" y="495" type="line"/>
      <point x="394" y="334" type="line"/>
    </contour>
  </outline>
</glyph>
<glyph name="Cacute" format="1">
  <advance width="658"/>
  <unicode hex="0106"/>
  <outline>
    <contour>
      <point x="557" y="127"/>
      <point x="562" y="137"/>
      <point x="564" y="147" type="curve" smooth="yes"/>
      <point x="571" y="179"/>
      <point x="550" y="197"/>
      <point x="524" y="197" type="curve" smooth="yes"/>
      <point x="509" y="197"/>
      <point x="497" y="193"/>
      <point x="481" y="177" type="curve" smooth="yes"/>
      <point x="425" y="119"/>
      <point x="364" y="98"/>
      <point x="304" y="98" type="curve" smooth="yes"/>
      <point x="229" y="98"/>
      <point x="125" y="156"/>
      <point x="155" y="299" type="curve" smooth="yes"/>
      <point x="185" y="441"/>
      <point x="322" y="584"/>
      <point x="415" y="584" type="curve" smooth="yes"/>
      <point x="477" y="584"/>
      <point x="501" y="564"/>
      <point x="516" y="547" type="curve"/>
      <point x="512" y="521"/>
      <point x="529" y="501"/>
      <point x="556" y="501" type="curve" smooth="yes"/>
      <point x="584" y="501"/>
      <point x="611" y="524"/>
      <point x="617" y="551" type="curve" smooth="yes"/>
      <point x="629" y="611" type="line" smooth="yes"/>
      <point x="635" y="639"/>
      <point x="618" y="660"/>
      <point x="590" y="660" type="curve" smooth="yes"/>
      <point x="580" y="660"/>
      <point x="573" y="659"/>
      <point x="562" y="653" type="curve"/>
      <point x="536" y="669"/>
      <point x="494" y="684"/>
      <point x="436" y="684" type="curve" smooth="yes"/>
      <point x="296" y="684"/>
      <point x="98" y="501"/>
      <point x="55" y="299" type="curve" smooth="yes"/>
      <point x="19" y="128"/>
      <point x="123" y="-2"/>
      <point x="283" y="-2" type="curve" smooth="yes"/>
      <point x="380" y="-2"/>
      <point x="474" y="41"/>
      <point x="548" y="117" type="curve"/>
    </contour>
    <contour>
      <point x="362" y="790" type="line"/>
      <point x="350" y="781"/>
      <point x="345" y="768"/>
      <point x="342" y="757" type="curve"/>
      <point x="337" y="730"/>
      <point x="354" y="709"/>
      <point x="378" y="709" type="curve" smooth="yes"/>
      <point x="389" y="709"/>
      <point x="402" y="715"/>
      <point x="414" y="722" type="curve" smooth="yes"/>
      <point x="556" y="807" type="line" smooth="yes"/>
      <point x="572" y="817"/>
      <point x="580" y="832"/>
      <point x="584" y="847" type="curve"/>
      <point x="590" y="878"/>
      <point x="572" y="902"/>
      <point x="542" y="902" type="curve" smooth="yes"/>
      <point x="525" y="902"/>
      <point x="509" y="891"/>
      <point x="497" y="883" type="curve" smooth="yes"/>
    </contour>
  </outline>
</glyph>
<glyph name="Ccaron" format="1">
  <advance width="658"/>
  <unicode hex="010C"/>
  <outline>
    <contour>
      <point x="557" y="127"/>
      <point x="562" y="137"/>
      <point x="564" y="147" type="curve" smooth="yes"/>
      <point x="571" y="179"/>
      <point x="550" y="197"/>
      <point x="524" y="197" type="curve" smooth="yes"/>
      <point x="509" y="197"/>
      <point x="497" y="193"/>
      <point x="481" y="177" type="curve" smooth="yes"/>
      <point x="425" y="119"/>
      <point x="364" y="98"/>
      <point x="304" y="98" type="curve" smooth="yes"/>
      <point x="229" y="98"/>
      <point x="125" y="156"/>
      <point x="155" y="299" type="curve" smooth="yes"/>
      <point x="185" y="441"/>
      <point x="322" y="584"/>
      <point x="415" y="584" type="curve" smooth="yes"/>
      <point x="477" y="584"/>
      <point x="501" y="564"/>
      <point x="516" y="547" type="curve"/>
      <point x="512" y="521"/>
      <point x="529" y="501"/>
      <point x="556" y="501" type="curve" smooth="yes"/>
      <point x="584" y="501"/>
      <point x="611" y="524"/>
      <point x="617" y="551" type="curve" smooth="yes"/>
      <point x="629" y="611" type="line" smooth="yes"/>
      <point x="635" y="639"/>
      <point x="618" y="660"/>
      <point x="590" y="660" type="curve" smooth="yes"/>
      <point x="580" y="660"/>
      <point x="573" y="659"/>
      <point x="562" y="653" type="curve"/>
      <point x="536" y="669"/>
      <point x="494" y="684"/>
      <point x="436" y="684" type="curve" smooth="yes"/>
      <point x="296" y="684"/>
      <point x="98" y="501"/>
      <point x="55" y="299" type="curve" smooth="yes"/>
      <point x="19" y="128"/>
      <point x="123" y="-2"/>
      <point x="283" y="-2" type="curve" smooth="yes"/>
      <point x="380" y="-2"/>
      <point x="474" y="41"/>
      <point x="548" y="117" type="curve"/>
    </contour>
    <contour>
      <point x="622" y="821" type="line" smooth="yes"/>
      <point x="636" y="831"/>
      <point x="645" y="844"/>
      <point x="648" y="857" type="curve"/>
      <point x="653" y="884"/>
      <point x="636" y="904"/>
      <point x="611" y="904" type="curve" smooth="yes"/>
      <point x="601" y="904"/>
      <point x="592" y="903"/>
      <point x="580" y="895" type="curve" smooth="yes"/>
      <point x="476" y="826" type="line"/>
      <point x="417" y="892" type="line" smooth="yes"/>
      <point x="408" y="902"/>
      <point x="399" y="904"/>
      <point x="387" y="904" type="curve" smooth="yes"/>
      <point x="362" y="904"/>
      <point x="336" y="882"/>
      <point x="331" y="857" type="curve" smooth="yes"/>
      <point x="328" y="844"/>
      <point x="330" y="833"/>
      <point x="337" y="823" type="curve"/>
      <point x="413" y="727" type="line" smooth="yes"/>
      <point x="422" y="715"/>
      <point x="435" y="709"/>
      <point x="447" y="709" type="curve" smooth="yes"/>
      <point x="456" y="709"/>
      <point x="469" y="712"/>
      <point x="482" y="721" type="curve" smooth="yes"/>
    </contour>
  </outline>
</glyph>
<glyph name="ccaron" format="1">
  <advance width="535"/>
  <unicode hex="010D"/>
  <outline>
    <contour>
      <point x="321" y="117"/>
      <point x="284" y="93"/>
      <point x="227" y="93" type="curve" smooth="yes"/>
      <point x="193" y="93"/>
      <point x="111" y="122"/>
      <point x="132" y="221" type="curve" smooth="yes"/>
      <point x="137" y="243"/>
      <point x="148" y="272"/>
      <point x="166" y="302" type="curve" smooth="yes"/>
      <point x="194" y="346"/>
      <point x="255" y="407"/>
      <point x="305" y="407" type="curve" smooth="yes"/>
      <point x="343" y="407"/>
      <point x="361" y="389"/>
      <point x="379" y="361" type="curve"/>
      <point x="384" y="354"/>
      <point x="391" y="349"/>
      <point x="408" y="349" type="curve" smooth="yes"/>
      <point x="434" y="349"/>
      <point x="460" y="370"/>
      <point x="466" y="396" type="curve"/>
      <point x="468" y="408"/>
      <point x="467" y="419"/>
      <point x="460" y="430" type="curve" smooth="yes"/>
      <point x="430" y="476"/>
      <point x="398" y="500"/>
      <point x="323" y="500" type="curve" smooth="yes"/>
      <point x="224" y="500"/>
      <point x="126" y="401"/>
      <point x="87" y="335" type="curve"/>
      <point x="71" y="310"/>
      <point x="48" y="266"/>
      <point x="38" y="219" type="curve" smooth="yes"/>
      <point x="11" y="91"/>
      <point x="100" y="0"/>
      <point x="220" y="0" type="curve" smooth="yes"/>
      <point x="294" y="0"/>
      <point x="372" y="47"/>
      <point x="417" y="94" type="curve" smooth="yes"/>
      <point x="425" y="102"/>
      <point x="432" y="112"/>
      <point x="435" y="124" type="curve" smooth="yes"/>
      <point x="441" y="151"/>
      <point x="424" y="172"/>
      <point x="398" y="172" type="curve" smooth="yes"/>
      <point x="375" y="172"/>
      <point x="359" y="156"/>
      <point x="350" y="147" type="curve" smooth="yes"/>
    </contour>
    <contour>
      <point x="501" y="640" type="line" smooth="yes"/>
      <point x="515" y="650"/>
      <point x="523" y="663"/>
      <point x="526" y="676" type="curve" smooth="yes"/>
      <point x="532" y="703"/>
      <point x="514" y="723"/>
      <point x="489" y="723" type="curve" smooth="yes"/>
      <point x="479" y="723"/>
      <point x="471" y="722"/>
      <point x="458" y="714" type="curve"/>
      <point x="355" y="645" type="line"/>
      <point x="296" y="711" type="line" smooth="yes"/>
      <point x="287" y="721"/>
      <point x="277" y="723"/>
      <point x="265" y="723" type="curve" smooth="yes"/>
      <point x="240" y="723"/>
      <point x="215" y="701"/>
      <point x="209" y="676" type="curve" smooth="yes"/>
      <point x="206" y="663"/>
      <point x="208" y="652"/>
      <point x="216" y="642" type="curve" smooth="yes"/>
      <point x="292" y="546" type="line" smooth="yes"/>
      <point x="301" y="534"/>
      <point x="314" y="528"/>
      <point x="326" y="528" type="curve" smooth="yes"/>
      <point x="335" y="528"/>
      <point x="347" y="531"/>
      <point x="360" y="540" type="curve" smooth="yes"/>
    </contour>
  </outline>
</glyph>
<glyph name="eogonek" format="1">
  <advance width="547"/>
  <unicode hex="0119"/>
  <outline>
    <contour>
      <point x="259" y="-196"/>
      <point x="339" y="-168"/>
      <point x="348" y="-126" type="curve" smooth="yes"/>
      <point x="353" y="-102"/>
      <point x="334" y="-80"/>
      <point x="313" y="-80" type="curve" smooth="yes"/>
      <point x="303" y="-80"/>
      <point x="295" y="-82"/>
      <point x="282" y="-90" type="curve"/>
      <point x="268" y="-100"/>
      <point x="252" y="-104"/>
      <point x="239" y="-104" type="curve" smooth="yes"/>
      <point x="224" y="-104"/>
      <point x="213" y="-95"/>
      <point x="218" y="-75" type="curve"/>
      <point x="226" y="-36"/>
      <point x="266" y="-17"/>
      <point x="316" y="7" type="curve" smooth="yes"/>
      <point x="351" y="24"/>
      <point x="389" y="43"/>
      <point x="424" y="74" type="curve"/>
      <point x="433" y="81"/>
      <point x="440" y="92"/>
      <point x="443" y="104" type="curve"/>
      <point x="448" y="131"/>
      <point x="433" y="151"/>
      <point x="406" y="151" type="curve" smooth="yes"/>
      <point x="393" y="151"/>
      <point x="380" y="144"/>
      <point x="369" y="135" type="curve" smooth="yes"/>
      <point x="342" y="112"/>
      <point x="294" y="93"/>
      <point x="261" y="93" type="curve" smooth="yes"/>
      <point x="204" y="93"/>
      <point x="166" y="114"/>
      <point x="145" y="155" type="curve"/>
      <point x="446" y="309" type="line" smooth="yes"/>
      <point x="470" y="321"/>
      <point x="483" y="338"/>
      <point x="487" y="355" type="curve" smooth="yes"/>
      <point x="497" y="402"/>
      <point x="458" y="499"/>
      <point x="326" y="499" type="curve" smooth="yes"/>
      <point x="189" y="499"/>
      <point x="73" y="376"/>
      <point x="44" y="239" type="curve" smooth="yes"/>
      <point x="22" y="133"/>
      <point x="70" y="35"/>
      <point x="177" y="7" type="curve"/>
      <point x="152" y="-17"/>
      <point x="133" y="-46"/>
      <point x="126" y="-79" type="curve" smooth="yes"/>
      <point x="111" y="-147"/>
      <point x="152" y="-196"/>
      <point x="220" y="-196" type="curve" smooth="yes"/>
    </contour>
    <contour>
      <point x="137" y="247" type="line"/>
      <point x="160" y="335"/>
      <point x="229" y="405"/>
      <point x="306" y="405" type="curve" smooth="yes"/>
      <point x="352" y="405"/>
      <point x="378" y="394"/>
      <point x="390" y="372" type="curve"/>
    </contour>
  </outline>
</glyph>
<glyph name="ecaron" format="1">
  <advance width="547"/>
  <unicode hex="011B"/>
  <outline>
    <contour>
      <point x="342" y="112"/>
      <point x="294" y="93"/>
      <point x="261" y="93" type="curve" smooth="yes"/>
      <point x="204" y="93"/>
      <point x="166" y="114"/>
      <point x="145" y="155" type="curve"/>
      <point x="446" y="309" type="line" smooth="yes"/>
      <point x="470" y="321"/>
      <point x="483" y="338"/>
      <point x="487" y="355" type="curve" smooth="yes"/>
      <point x="497" y="402"/>
      <point x="458" y="499"/>
      <point x="326" y="499" type="curve" smooth="yes"/>
      <point x="189" y="499"/>
      <point x="73" y="376"/>
      <point x="44" y="239" type="curve" smooth="yes"/>
      <point x="18" y="114"/>
      <point x="90" y="0"/>
      <point x="242" y="0" type="curve" smooth="yes"/>
      <point x="304" y="0"/>
      <point x="380" y="33"/>
      <point x="424" y="74" type="curve"/>
      <point x="433" y="81"/>
      <point x="440" y="92"/>
      <point x="443" y="104" type="curve"/>
      <point x="448" y="131"/>
      <point x="433" y="151"/>
      <point x="406" y="151" type="curve" smooth="yes"/>
      <point x="393" y="151"/>
      <point x="380" y="144"/>
      <point x="369" y="135" type="curve" smooth="yes"/>
    </contour>
    <contour>
      <point x="137" y="247" type="line"/>
      <point x="160" y="335"/>
      <point x="229" y="405"/>
      <point x="306" y="405" type="curve" smooth="yes"/>
      <point x="352" y="405"/>
      <point x="378" y="394"/>
      <point x="390" y="372" type="curve"/>
    </contour>
    <contour>
      <point x="516" y="640" type="line" smooth="yes"/>
      <point x="530" y="650"/>
      <point x="538" y="663"/>
      <point x="541" y="676" type="curve" smooth="yes"/>
      <point x="547" y="703"/>
      <point x="529" y="723"/>
      <point x="504" y="723" type="curve" smooth="yes"/>
      <point x="494" y="723"/>
      <point x="486" y="722"/>
      <point x="473" y="714" type="curve"/>
      <point x="370" y="645" type="line"/>
      <point x="311" y="711" type="line" smooth="yes"/>
      <point x="302" y="721"/>
      <point x="292" y="723"/>
      <point x="280" y="723" type="curve" smooth="yes"/>
      <point x="255" y="723"/>
      <point x="230" y="701"/>
      <point x="224" y="676" type="curve" smooth="yes"/>
      <point x="221" y="663"/>
      <point x="223" y="652"/>
      <point x="231" y="642" type="curve" smooth="yes"/>
      <point x="307" y="546" type="line" smooth="yes"/>
      <point x="316" y="534"/>
      <point x="329" y="528"/>
      <point x="341" y="528" type="curve" smooth="yes"/>
      <point x="350" y="528"/>
      <point x="362" y="531"/>
      <point x="375" y="540" type="curve" smooth="yes"/>
    </contour>
  </outline>
</glyph>
<glyph name="lacute" format="1">
  <advance width="252"/>
  <unicode hex="013A"/>
  <outline>
    <contour>
      <point x="247" y="625" type="line" smooth="yes"/>
      <point x="253" y="651"/>
      <point x="234" y="672"/>
      <point x="209" y="672" type="curve" smooth="yes"/>
      <point x="181" y="672"/>
      <point x="157" y="651"/>
      <point x="151" y="625" type="curve" smooth="yes"/>
      <point x="28" y="45" type="line" smooth="yes"/>
      <point x="23" y="20"/>
      <point x="42" y="0"/>
      <point x="67" y="0" type="curve" smooth="yes"/>
      <point x="90" y="0"/>
      <point x="119" y="20"/>
      <point x="124" y="45" type="curve" smooth="yes"/>
    </contour>
    <contour>
      <point x="140" y="790" type="line"/>
      <point x="128" y="781"/>
      <point x="123" y="768"/>
      <point x="120" y="757" type="curve"/>
      <point x="115" y="730"/>
      <point x="132" y="709"/>
      <point x="156" y="709" type="curve" smooth="yes"/>
      <point x="167" y="709"/>
      <point x="180" y="715"/>
      <point x="192" y="722" type="curve" smooth="yes"/>
      <point x="334" y="807" type="line" smooth="yes"/>
      <point x="350" y="817"/>
      <point x="358" y="832"/>
      <point x="362" y="847" type="curve"/>
      <point x="368" y="878"/>
      <point x="350" y="902"/>
      <point x="320" y="902" type="curve" smooth="yes"/>
      <point x="303" y="902"/>
      <point x="287" y="891"/>
      <point x="275" y="883" type="curve" smooth="yes"/>
    </contour>
  </outline>
</glyph>
<glyph name="Lcaron" format="1">
  <advance width="503"/>
  <unicode hex="013D"/>
  <outline>
    <contour>
      <point x="430" y="821" type="line" smooth="yes"/>
      <point x="444" y="831"/>
      <point x="453" y="844"/>
      <point x="456" y="857" type="curve"/>
      <point x="461" y="884"/>
      <point x="444" y="904"/>
      <point x="419" y="904" type="curve" smooth="yes"/>
      <point x="409" y="904"/>
      <point x="400" y="903"/>
      <point x="388" y="895" type="curve" smooth="yes"/>
      <point x="284" y="826" type="line"/>
      <point x="225" y="892" type="line" smooth="yes"/>
      <point x="216" y="902"/>
      <point x="207" y="904"/>
      <point x="195" y="904" type="curve" smooth="yes"/>
      <point x="170" y="904"/>
      <point x="144" y="882"/>
      <point x="139" y="857" type="curve" smooth="yes"/>
      <point x="136" y="844"/>
      <point x="138" y="833"/>
      <point x="145" y="823" type="curve"/>
      <point x="221" y="727" type="line" smooth="yes"/>
      <point x="230" y="715"/>
      <point x="243" y="709"/>
      <point x="255" y="709" type="curve" smooth="yes"/>
      <point x="264" y="709"/>
      <point x="277" y="712"/>
      <point x="290" y="721" type="curve" smooth="yes"/>
    </contour>
    <contour>
      <point x="383" y="22" type="line" smooth="yes"/>
      <point x="409" y="24"/>
      <point x="434" y="48"/>
      <point x="439" y="72" type="curve" smooth="yes"/>
      <point x="445" y="103"/>
      <point x="427" y="123"/>
      <point x="396" y="121" type="curve" smooth="yes"/>
      <point x="124" y="102" type="line"/>
      <point x="237" y="632" type="line" smooth="yes"/>
      <point x="242" y="658"/>
      <point x="224" y="681"/>
      <point x="198" y="681" type="curve" smooth="yes"/>
      <point x="170" y="681"/>
      <point x="143" y="658"/>
      <point x="138" y="632" type="curve" smooth="yes"/>
      <point x="14" y="49" type="line" smooth="yes"/>
      <point x="8" y="22"/>
      <point x="28" y="-2"/>
      <point x="56" y="0" type="curve" smooth="yes"/>
    </contour>
  </outline>
</glyph>
<glyph name="lcaron" format="1">
  <advance width="283"/>
  <unicode hex="013E"/>
  <outline>
    <contour>
      <point x="237" y="625" type="line" smooth="yes"/>
      <point x="243" y="651"/>
      <point x="224" y="672"/>
      <point x="199" y="672" type="curve" smooth="yes"/>
      <point x="171" y="672"/>
      <point x="147" y="651"/>
      <point x="141" y="625" type="curve" smooth="yes"/>
      <point x="18" y="45" type="line" smooth="yes"/>
      <point x="13" y="20"/>
      <point x="32" y="0"/>
      <point x="57" y="0" type="curve" smooth="yes"/>
      <point x="80" y="0"/>
      <point x="109" y="20"/>
      <point x="114" y="45" type="curve" smooth="yes"/>
    </contour>
    <contour>
      <point x="387" y="649"/>
      <point x="369" y="672"/>
      <point x="340" y="672" type="curve" smooth="yes"/>
      <point x="309" y="672"/>
      <point x="275" y="642"/>
      <point x="268" y="609" type="curve"/>
      <point x="265" y="597"/>
      <point x="266" y="587"/>
      <point x="269" y="578" type="curve"/>
      <point x="241" y="531" type="line" smooth="yes"/>
      <point x="238" y="526"/>
      <point x="236" y="522"/>
      <point x="235" y="515" type="curve"/>
      <point x="230" y="492"/>
      <point x="245" y="473"/>
      <point x="270" y="473" type="curve" smooth="yes"/>
      <point x="296" y="473"/>
      <point x="311" y="491"/>
      <point x="324" y="512" type="curve" smooth="yes"/>
      <point x="348" y="550"/>
      <point x="377" y="600"/>
      <point x="381" y="621" type="curve" smooth="yes"/>
    </contour>
  </outline>
</glyph>
<glyph name="lslash" format="1">
  <advance width="310"/>
  <unicode hex="0142"/>
  <outline>
    <contour>
      <point x="281" y="625" type="line" smooth="yes"/>
      <point x="287" y="651"/>
      <point x="268" y="672"/>
      <point x="243" y="672" type="curve" smooth="yes"/>
      <point x="215" y="672"/>
      <point x="191" y="651"/>
      <point x="185" y="625" type="curve" smooth="yes"/>
      <point x="129" y="362" type="line"/>
      <point x="55" y="321" type="line" smooth="yes"/>
      <point x="38" y="311"/>
      <point x="27" y="296"/>
      <point x="24" y="278" type="curve"/>
      <point x="17" y="245"/>
      <point x="39" y="230"/>
      <point x="62" y="230" type="curve" smooth="yes"/>
      <point x="72" y="230"/>
      <point x="82" y="232"/>
      <point x="91" y="237" type="curve" smooth="yes"/>
      <point x="104" y="244" type="line"/>
      <point x="62" y="45" type="line" smooth="yes"/>
      <point x="57" y="20"/>
      <point x="76" y="0"/>
      <point x="101" y="0" type="curve" smooth="yes"/>
      <point x="124" y="0"/>
      <point x="153" y="20"/>
      <point x="158" y="45" type="curve" smooth="yes"/>
      <point x="213" y="305" type="line"/>
      <point x="301" y="354" type="line" smooth="yes"/>
      <point x="320" y="365"/>
      <point x="329" y="379"/>
      <point x="332" y="394" type="curve" smooth="yes"/>
      <point x="339" y="424"/>
      <point x="319" y="445"/>
      <point x="292" y="445" type="curve" smooth="yes"/>
      <point x="284" y="445"/>
      <point x="276" y="444"/>
      <point x="263" y="437" type="curve" smooth="yes"/>
      <point x="238" y="423" type="line"/>
    </contour>
  </outline>
</glyph>
<glyph name="Nacute" format="1">
  <advance width="645"/>
  <unicode hex="0143"/>
  <outline>
    <contour>
      <point x="422" y="22" type="line" smooth="yes"/>
      <point x="429" y="8"/>
      <point x="444" y="0"/>
      <point x="459" y="0" type="curve" smooth="yes"/>
      <point x="486" y="0"/>
      <point x="512" y="20"/>
      <point x="518" y="49" type="curve" smooth="yes"/>
      <point x="642" y="632" type="line" smooth="yes"/>
      <point x="648" y="659"/>
      <point x="629" y="682"/>
      <point x="603" y="682" type="curve" smooth="yes"/>
      <point x="575" y="682"/>
      <point x="549" y="659"/>
      <point x="543" y="632" type="curve" smooth="yes"/>
      <point x="452" y="207" type="line"/>
      <point x="236" y="660" type="line" smooth="yes"/>
      <point x="230" y="673"/>
      <point x="214" y="681"/>
      <point x="199" y="681" type="curve" smooth="yes"/>
      <point x="170" y="681"/>
      <point x="146" y="658"/>
      <point x="141" y="632" type="curve" smooth="yes"/>
      <point x="16" y="49" type="line" smooth="yes"/>
      <point x="10" y="23"/>
      <point x="29" y="0"/>
      <point x="55" y="0" type="curve" smooth="yes"/>
      <point x="83" y="0"/>
      <point x="109" y="21"/>
      <point x="115" y="49" type="curve" smooth="yes"/>
      <point x="206" y="473" type="line"/>
    </contour>
    <contour>
      <point x="345" y="790" type="line"/>
      <point x="333" y="781"/>
      <point x="328" y="768"/>
      <point x="325" y="757" type="curve"/>
      <point x="320" y="730"/>
      <point x="337" y="709"/>
      <point x="361" y="709" type="curve" smooth="yes"/>
      <point x="372" y="709"/>
      <point x="385" y="715"/>
      <point x="397" y="722" type="curve" smooth="yes"/>
      <point x="539" y="807" type="line" smooth="yes"/>
      <point x="555" y="817"/>
      <point x="563" y="832"/>
      <point x="567" y="847" type="curve"/>
      <point x="573" y="878"/>
      <point x="555" y="902"/>
      <point x="525" y="902" type="curve" smooth="yes"/>
      <point x="508" y="902"/>
      <point x="492" y="891"/>
      <point x="480" y="883" type="curve" smooth="yes"/>
    </contour>
  </outline>
</glyph>
<glyph name="Ohungarumlaut" format="1">
  <advance width="686"/>
  <unicode hex="0150"/>
  <outline>
    <contour>
      <point x="414" y="-2"/>
      <point x="587" y="166"/>
      <point x="629" y="365" type="curve" smooth="yes"/>
      <point x="666" y="538"/>
      <point x="587" y="682"/>
      <point x="440" y="682" type="curve" smooth="yes"/>
      <point x="283" y="682"/>
      <point x="111" y="514"/>
      <point x="68" y="315" type="curve" smooth="yes"/>
      <point x="32" y="144"/>
      <point x="107" y="-2"/>
      <point x="256" y="-2" type="curve" smooth="yes"/>
    </contour>
    <contour>
      <point x="511" y="587"/>
      <point x="556" y="475"/>
      <point x="532" y="361" type="curve" smooth="yes"/>
      <point x="501" y="216"/>
      <point x="379" y="93"/>
      <point x="276" y="93" type="curve" smooth="yes"/>
      <point x="184" y="93"/>
      <point x="139" y="194"/>
      <point x="164" y="315" type="curve" smooth="yes"/>
      <point x="197" y="466"/>
      <point x="311" y="587"/>
      <point x="414" y="587" type="curve" smooth="yes"/>
    </contour>
    <contour>
      <point x="523" y="790" type="line" smooth="yes"/>
      <point x="539" y="799"/>
      <point x="548" y="815"/>
      <point x="551" y="830" type="curve" smooth="yes"/>
      <point x="558" y="861"/>
      <point x="539" y="885"/>
      <point x="509" y="885" type="curve" smooth="yes"/>
      <point x="493" y="885"/>
      <point x="475" y="875"/>
      <point x="464" y="866" type="curve"/>
      <point x="330" y="772" type="line" smooth="yes"/>
      <point x="317" y="763"/>
      <point x="311" y="751"/>
      <point x="309" y="740" type="curve"/>
      <point x="303" y="713"/>
      <point x="321" y="692"/>
      <point x="345" y="692" type="curve" smooth="yes"/>
      <point x="356" y="692"/>
      <point x="368" y="697"/>
      <point x="379" y="704" type="curve" smooth="yes"/>
    </contour>
    <contour>
      <point x="728" y="790" type="line" smooth="yes"/>
      <point x="744" y="799"/>
      <point x="753" y="815"/>
      <point x="756" y="830" type="curve" smooth="yes"/>
      <point x="763" y="861"/>
      <point x="744" y="885"/>
      <point x="714" y="885" type="curve" smooth="yes"/>
      <point x="698" y="885"/>
      <point x="680" y="875"/>
      <point x="669" y="866" type="curve"/>
      <point x="535" y="772" type="line" smooth="yes"/>
      <point x="522" y="763"/>
      <point x="516" y="751"/>
      <point x="514" y="740" type="curve"/>
      <point x="508" y="713"/>
      <point x="526" y="692"/>
      <point x="550" y="692" type="curve" smooth="yes"/>
      <point x="561" y="692"/>
      <point x="573" y="697"/>
      <point x="584" y="704" type="curve" smooth="yes"/>
    </contour>
  </outline>
</glyph>
<glyph name="OE" format="1">
  <advance width="1124"/>
  <unicode hex="0152"/>
  <outline>
    <contour>
      <point x="589" y="100" type="line"/>
      <point x="632" y="302" type="line"/>
      <point x="936" y="302" type="line" smooth="yes"/>
      <point x="964" y="302"/>
      <point x="989" y="324"/>
      <point x="995" y="352" type="curve" smooth="yes"/>
      <point x="1001" y="380"/>
      <point x="985" y="401"/>
      <point x="957" y="401" type="curve" smooth="yes"/>
      <point x="653" y="401" type="line"/>
      <point x="691" y="582" type="line"/>
      <point x="1041" y="582" type="line" smooth="yes"/>
      <point x="1069" y="582"/>
      <point x="1095" y="605"/>
      <point x="1101" y="632" type="curve" smooth="yes"/>
      <point x="1107" y="660"/>
      <point x="1090" y="682"/>
      <point x="1062" y="682" type="curve" smooth="yes"/>
      <point x="663" y="682" type="line" smooth="yes"/>
      <point x="635" y="682"/>
      <point x="609" y="660"/>
      <point x="603" y="632" type="curve" smooth="yes"/>
      <point x="599" y="612" type="line"/>
      <point x="562" y="658"/>
      <point x="508" y="684"/>
      <point x="449" y="684" type="curve" smooth="yes"/>
      <point x="291" y="684"/>
      <point x="118" y="516"/>
      <point x="76" y="317" type="curve" smooth="yes"/>
      <point x="40" y="146"/>
      <point x="116" y="0"/>
      <point x="265" y="0" type="curve" smooth="yes"/>
      <point x="344" y="0"/>
      <point x="424" y="40"/>
      <point x="491" y="106" type="curve"/>
      <point x="479" y="50" type="line" smooth="yes"/>
      <point x="473" y="22"/>
      <point x="491" y="0"/>
      <point x="519" y="0" type="curve" smooth="yes"/>
      <point x="916" y="0" type="line" smooth="yes"/>
      <point x="944" y="0"/>
      <point x="969" y="22"/>
      <point x="975" y="50" type="curve" smooth="yes"/>
      <point x="981" y="78"/>
      <point x="965" y="100"/>
      <point x="937" y="100" type="curve" smooth="yes"/>
    </contour>
    <contour>
      <point x="192" y="95"/>
      <point x="146" y="196"/>
      <point x="172" y="317" type="curve" smooth="yes"/>
      <point x="204" y="468"/>
      <point x="320" y="589"/>
      <point x="422" y="589" type="curve" smooth="yes"/>
      <point x="519" y="589"/>
      <point x="564" y="477"/>
      <point x="540" y="363" type="curve" smooth="yes"/>
      <point x="516" y="250"/>
      <point x="410" y="95"/>
      <point x="285" y="95" type="curve" smooth="yes"/>
    </contour>
  </outline>
</glyph>
<glyph name="racute" format="1">
  <advance width="422"/>
  <unicode hex="0155"/>
  <outline>
    <contour>
      <point x="418" y="406" type="line" smooth="yes"/>
      <point x="427" y="449"/>
      <point x="417" y="501"/>
      <point x="342" y="501" type="curve" smooth="yes"/>
      <point x="283" y="501"/>
      <point x="233" y="472"/>
      <point x="194" y="437" type="curve"/>
      <point x="197" y="451" type="line" smooth="yes"/>
      <point x="203" y="478"/>
      <point x="186" y="499"/>
      <point x="159" y="499" type="curve" smooth="yes"/>
      <point x="133" y="499"/>
      <point x="105" y="478"/>
      <point x="99" y="451" type="curve" smooth="yes"/>
      <point x="13" y="46" type="line" smooth="yes"/>
      <point x="8" y="22"/>
      <point x="28" y="0"/>
      <point x="53" y="0" type="curve" smooth="yes"/>
      <point x="78" y="0"/>
      <point x="105" y="22"/>
      <point x="110" y="46" type="curve" smooth="yes"/>
      <point x="155" y="250" type="line" smooth="yes"/>
      <point x="161" y="281"/>
      <point x="179" y="314"/>
      <point x="198" y="333" type="curve" smooth="yes"/>
      <point x="237" y="373"/>
      <point x="278" y="406"/>
      <point x="310" y="406" type="curve" smooth="yes"/>
      <point x="322" y="406"/>
      <point x="323" y="400"/>
      <point x="320" y="390" type="curve"/>
      <point x="318" y="377" type="line"/>
      <point x="313" y="354"/>
      <point x="319" y="329"/>
      <point x="354" y="329" type="curve" smooth="yes"/>
      <point x="381" y="329"/>
      <point x="406" y="350"/>
      <point x="411" y="376" type="curve"/>
    </contour>
    <contour>
      <point x="237" y="610" type="line" smooth="yes"/>
      <point x="224" y="601"/>
      <point x="219" y="588"/>
      <point x="217" y="577" type="curve"/>
      <point x="211" y="550"/>
      <point x="229" y="529"/>
      <point x="253" y="529" type="curve" smooth="yes"/>
      <point x="264" y="529"/>
      <point x="277" y="535"/>
      <point x="289" y="542" type="curve" smooth="yes"/>
      <point x="431" y="627" type="line" smooth="yes"/>
      <point x="447" y="637"/>
      <point x="455" y="652"/>
      <point x="458" y="667" type="curve" smooth="yes"/>
      <point x="465" y="698"/>
      <point x="447" y="722"/>
      <point x="417" y="722" type="curve" smooth="yes"/>
      <point x="400" y="722"/>
      <point x="384" y="711"/>
      <point x="372" y="703" type="curve" smooth="yes"/>
    </contour>
  </outline>
</glyph>
<glyph name="Rcaron" format="1">
  <advance width="623"/>
  <unicode hex="0158"/>
  <outline>
    <contour>
      <point x="560" y="821" type="line" smooth="yes"/>
      <point x="574" y="831"/>
      <point x="583" y="844"/>
      <point x="586" y="857" type="curve"/>
      <point x="591" y="884"/>
      <point x="574" y="904"/>
      <point x="549" y="904" type="curve" smooth="yes"/>
      <point x="539" y="904"/>
      <point x="530" y="903"/>
      <point x="518" y="895" type="curve" smooth="yes"/>
      <point x="414" y="826" type="line"/>
      <point x="355" y="892" type="line" smooth="yes"/>
      <point x="346" y="902"/>
      <point x="337" y="904"/>
      <point x="325" y="904" type="curve" smooth="yes"/>
      <point x="300" y="904"/>
      <point x="274" y="882"/>
      <point x="269" y="857" type="curve" smooth="yes"/>
      <point x="266" y="844"/>
      <point x="268" y="833"/>
      <point x="275" y="823" type="curve"/>
      <point x="351" y="727" type="line" smooth="yes"/>
      <point x="360" y="715"/>
      <point x="373" y="709"/>
      <point x="385" y="709" type="curve" smooth="yes"/>
      <point x="394" y="709"/>
      <point x="407" y="712"/>
      <point x="420" y="721" type="curve" smooth="yes"/>
    </contour>
    <contour>
      <point x="480" y="171"/>
      <point x="426" y="238"/>
      <point x="387" y="275" type="curve"/>
      <point x="473" y="310"/>
      <point x="555" y="368"/>
      <point x="576" y="469" type="curve" smooth="yes"/>
      <point x="606" y="607"/>
      <point x="497" y="687"/>
      <point x="273" y="687" type="curve" smooth="yes"/>
      <point x="170" y="687"/>
      <point x="152" y="689"/>
      <point x="139" y="627" type="curve" smooth="yes"/>
      <point x="16" y="49" type="line" smooth="yes"/>
      <point x="10" y="21"/>
      <point x="27" y="0"/>
      <point x="55" y="0" type="curve" smooth="yes"/>
      <point x="81" y="0"/>
      <point x="108" y="21"/>
      <point x="114" y="49" type="curve" smooth="yes"/>
      <point x="152" y="227" type="line"/>
      <point x="177" y="231"/>
      <point x="201" y="233"/>
      <point x="220" y="233" type="curve" smooth="yes"/>
      <point x="255" y="233"/>
      <point x="337" y="225"/>
      <point x="412" y="26" type="curve"/>
      <point x="419" y="10"/>
      <point x="432" y="0"/>
      <point x="451" y="0" type="curve" smooth="yes"/>
      <point x="481" y="0"/>
      <point x="505" y="24"/>
      <point x="510" y="49" type="curve"/>
      <point x="511" y="56"/>
      <point x="512" y="64"/>
      <point x="510" y="72" type="curve"/>
    </contour>
    <contour>
      <point x="229" y="589" type="line"/>
      <point x="249" y="589" type="line" smooth="yes"/>
      <point x="409" y="589"/>
      <point x="494" y="548"/>
      <point x="477" y="469" type="curve" smooth="yes"/>
      <point x="457" y="374"/>
      <point x="296" y="332"/>
      <point x="172" y="324" type="curve"/>
    </contour>
  </outline>
</glyph>
<glyph name="rcaron" format="1">
  <advance width="422"/>
  <unicode hex="0159"/>
  <outline>
    <contour>
      <point x="418" y="406" type="line" smooth="yes"/>
      <point x="427" y="449"/>
      <point x="417" y="501"/>
      <point x="342" y="501" type="curve" smooth="yes"/>
      <point x="283" y="501"/>
      <point x="233" y="472"/>
      <point x="194" y="437" type="curve"/>
      <point x="197" y="451" type="line" smooth="yes"/>
      <point x="203" y="478"/>
      <point x="186" y="499"/>
      <point x="159" y="499" type="curve" smooth="yes"/>
      <point x="133" y="499"/>
      <point x="105" y="478"/>
      <point x="99" y="451" type="curve" smooth="yes"/>
      <point x="13" y="46" type="line" smooth="yes"/>
      <point x="8" y="22"/>
      <point x="28" y="0"/>
      <point x="53" y="0" type="curve" smooth="yes"/>
      <point x="78" y="0"/>
      <point x="105" y="22"/>
      <point x="110" y="46" type="curve" smooth="yes"/>
      <point x="155" y="250" type="line" smooth="yes"/>
      <point x="161" y="281"/>
      <point x="179" y="314"/>
      <point x="198" y="333" type="curve" smooth="yes"/>
      <point x="237" y="373"/>
      <point x="278" y="406"/>
      <point x="310" y="406" type="curve" smooth="yes"/>
      <point x="322" y="406"/>
      <point x="323" y="400"/>
      <point x="320" y="390" type="curve"/>
      <point x="318" y="377" type="line"/>
      <point x="313" y="354"/>
      <point x="319" y="329"/>
      <point x="354" y="329" type="curve" smooth="yes"/>
      <point x="381" y="329"/>
      <point x="406" y="350"/>
      <point x="411" y="376" type="curve"/>
    </contour>
    <contour>
      <point x="466" y="640" type="line" smooth="yes"/>
      <point x="480" y="650"/>
      <point x="488" y="663"/>
      <point x="491" y="676" type="curve" smooth="yes"/>
      <point x="497" y="703"/>
      <point x="479" y="723"/>
      <point x="454" y="723" type="curve" smooth="yes"/>
      <point x="444" y="723"/>
      <point x="436" y="722"/>
      <point x="423" y="714" type="curve"/>
      <point x="320" y="645" type="line"/>
      <point x="261" y="711" type="line" smooth="yes"/>
      <point x="252" y="721"/>
      <point x="242" y="723"/>
      <point x="230" y="723" type="curve" smooth="yes"/>
      <point x="205" y="723"/>
      <point x="180" y="701"/>
      <point x="174" y="676" type="curve" smooth="yes"/>
      <point x="171" y="663"/>
      <point x="173" y="652"/>
      <point x="181" y="642" type="curve" smooth="yes"/>
      <point x="257" y="546" type="line" smooth="yes"/>
      <point x="266" y="534"/>
      <point x="279" y="528"/>
      <point x="291" y="528" type="curve" smooth="yes"/>
      <point x="300" y="528"/>
      <point x="312" y="531"/>
      <point x="325" y="540" type="curve" smooth="yes"/>
    </contour>
  </outline>
</glyph>
<glyph name="Scedilla" format="1">
  <advance width="624"/>
  <unicode hex="015E"/>
  <outline>
    <contour>
      <point x="206" y="-118"/>
      <point x="201" y="-109"/>
      <point x="184" y="-109" type="curve" smooth="yes"/>
      <point x="161" y="-109"/>
      <point x="144" y="-131"/>
      <point x="140" y="-148" type="curve" smooth="yes"/>
      <point x="133" y="-180"/>
      <point x="171" y="-196"/>
      <point x="209" y="-196" type="curve" smooth="yes"/>
      <point x="267" y="-196"/>
      <point x="320" y="-168"/>
      <point x="332" y="-110" type="curve" smooth="yes"/>
      <point x="343" y="-61"/>
      <point x="317" y="-37"/>
      <point x="259" y="-27" type="curve"/>
      <point x="260" y="-20"/>
      <point x="262" y="-9"/>
      <point x="263" y="0" type="curve"/>
      <point x="369" y="5"/>
      <point x="506" y="68"/>
      <point x="534" y="201" type="curve" smooth="yes"/>
      <point x="555" y="299"/>
      <point x="496" y="366"/>
      <point x="357" y="407" type="curve" smooth="yes"/>
      <point x="275" y="431"/>
      <point x="237" y="460"/>
      <point x="247" y="504" type="curve" smooth="yes"/>
      <point x="260" y="566"/>
      <point x="326" y="589"/>
      <point x="395" y="589" type="curve" smooth="yes"/>
      <point x="450" y="589"/>
      <point x="505" y="567"/>
      <point x="503" y="525" type="curve" smooth="yes"/>
      <point x="502" y="502"/>
      <point x="517" y="483"/>
      <point x="542" y="483" type="curve" smooth="yes"/>
      <point x="570" y="483"/>
      <point x="596" y="505"/>
      <point x="602" y="535" type="curve" smooth="yes"/>
      <point x="628" y="655"/>
      <point x="494" y="682"/>
      <point x="417" y="682" type="curve" smooth="yes"/>
      <point x="299" y="682"/>
      <point x="169" y="640"/>
      <point x="139" y="500" type="curve" smooth="yes"/>
      <point x="115" y="387"/>
      <point x="218" y="335"/>
      <point x="311" y="309" type="curve" smooth="yes"/>
      <point x="435" y="274"/>
      <point x="434" y="229"/>
      <point x="427" y="196" type="curve" smooth="yes"/>
      <point x="412" y="127"/>
      <point x="330" y="96"/>
      <point x="270" y="96" type="curve" smooth="yes"/>
      <point x="213" y="96"/>
      <point x="149" y="123"/>
      <point x="140" y="183" type="curve" smooth="yes"/>
      <point x="137" y="205"/>
      <point x="123" y="220"/>
      <point x="98" y="220" type="curve" smooth="yes"/>
      <point x="69" y="220"/>
      <point x="42" y="197"/>
      <point x="37" y="170" type="curve"/>
      <point x="35" y="162"/>
      <point x="35" y="152"/>
      <point x="36" y="145" type="curve"/>
      <point x="52" y="73"/>
      <point x="117" y="17"/>
      <point x="207" y="3" type="curve"/>
      <point x="201" y="-7"/>
      <point x="195" y="-20"/>
      <point x="188" y="-35" type="curve" smooth="yes"/>
      <point x="179" y="-53"/>
      <point x="178" y="-69"/>
      <point x="196" y="-73" type="curve" smooth="yes"/>
      <point x="243" y="-83" type="line" smooth="yes"/>
      <point x="258" y="-86"/>
      <point x="265" y="-94"/>
      <point x="262" y="-106" type="curve" smooth="yes"/>
      <point x="259" y="-118"/>
      <point x="249" y="-132"/>
      <point x="233" y="-132" type="curve" smooth="yes"/>
      <point x="224" y="-132"/>
      <point x="219" y="-130"/>
      <point x="215" y="-126" type="curve"/>
    </contour>
  </outline>
</glyph>
